<svg id="technical_page" xmlns="http://www.w3.org/2000/svg" viewBox="0 0 18 17"><style>.st0{fill:#313131}</style><path class="st0" d="M2.3 17c-.1 0-.2 0-.3-.1L.2 15.1c-.2-.2-.2-.5 0-.7l10-10c.2-.2.5-.2.7 0l1.8 1.8c.1.1.1.2.1.4 0 .1-.1.3-.1.4l-10 10h-.4zm-1.1-2.3l1.1 1.1 9.3-9.3-1.1-1.1-9.3 9.3z"/><path class="st0" d="M14.7 9.2c-.1 0-.3 0-.4-.1l-6.9-7c-.2-.2-.2-.5 0-.7L8.6.2c.2-.2.5-.2.7-.1.1 0 1.5 1.2 3.5.6.2-.1.4 0 .5.1l4.6 4.6c.1.2.1.3.1.4s0 .3-.1.4L15 9c-.1.1-.2.2-.3.2zM8.4 1.7L14.7 8l2.2-2.2-4.1-4.1c-1.8.5-3.1-.2-3.8-.6l-.6.6z"/></svg>