<svg id="technical_page" xmlns="http://www.w3.org/2000/svg" viewBox="0 0 19.8 16"><style>.st0{fill:#313131}</style><path class="st0" d="M10 16H4.1c-.3 0-.5-.2-.5-.5v-9l-.4.4c-.2.2-.5.2-.7 0L.1 4.6c0-.1-.1-.2-.1-.3 0-.2.1-.3.2-.4l4-3.8c.1-.1.2-.1.3-.1h2.9c.1 0 .3.1.4.2l2.5 3c.2.2.2.5-.1.7-.1.1-.4.1-.6-.1L7.2 1H4.7L1.2 4.3l1.6 1.6.9-.9c.1-.1.4-.2.5-.1.2.1.3.3.3.5V15H10c.3 0 .5.2.5.5s-.3.5-.5.5z"/><path class="st0" d="M15.8 16H10c-.3 0-.5-.2-.5-.5s.2-.5.5-.5h5.4V5.3c0-.2.1-.4.3-.5.2-.1.4 0 .5.1l.8.9 1.6-1.4L15.2 1h-2.5l-2.4 2.8c-.1.2-.4.2-.7 0-.2-.1-.2-.4 0-.7l2.5-3c.1 0 .3-.1.4-.1h2.9c.1 0 .3.1.4.1L19.7 4c.1.1.2.2.1.4s-.1.3-.2.4l-2.3 2.1c-.2.2-.5.2-.7 0l-.3-.3v9c0 .2-.2.4-.5.4z"/><path class="st0" d="M10 12.2c-1.7 0-3.1-1.4-3.1-3.1C6.8 7.4 8.2 6 10 6s3.1 1.4 3.1 3.1c0 1.7-1.4 3.1-3.1 3.1zM10 7C8.8 7 7.9 8 7.9 9.1s1 2.1 2.1 2.1 2.1-1 2.1-2.1S11.1 7 10 7z"/><path class="st0" d="M8.3 11.2c-.1 0-.3-.1-.4-.2-.2-.2-.2-.5 0-.7l3.6-3.5c.2-.2.5-.2.7 0 .2.2.2.5 0 .7L8.6 11c-.1.2-.2.2-.3.2z"/></svg>