<svg id="technical_page" xmlns="http://www.w3.org/2000/svg" viewBox="0 0 12.6 17"><style>.st0{fill:#313131}.st1{fill:none;stroke:#313131;stroke-linecap:round;stroke-linejoin:round;stroke-miterlimit:10}</style><path class="st0" d="M7.1 17H5.5c-1.8 0-3.2-1.4-3.2-3.2V7.7c0-.3.2-.5.5-.5h7.1c.3 0 .5.2.5.5v6.1c-.1 1.8-1.5 3.2-3.3 3.2zM3.2 8.2v5.6c0 1.2 1 2.2 2.2 2.2h1.7c1.2 0 2.2-1 2.2-2.2V8.2H3.2zM9.2 4.9c-.1 0-.3 0-.4-.1-2.5-2.4-4.9-.1-5 0-.2.2-.6.2-.8 0-.2-.2-.2-.5 0-.7 1.2-1.1 4-2.5 6.5 0 .2.2.2.5 0 .7-.1.1-.2.1-.3.1z"/><path class="st0" d="M.5 3.5c-.1 0-.3-.1-.4-.2-.2-.2-.2-.5 0-.7.1-.1 6.3-5.9 12.3 0 .2.2.2.5 0 .7-.2.2-.5.2-.7 0C6.4-1.9 1.1 3.2.8 3.4c0 .1-.2.1-.3.1zM7.2 11.1h-2c-.3 0-.5-.2-.5-.5s.2-.5.5-.5h2c.3 0 .5.2.5.5s-.2.5-.5.5zM7.2 13.3h-2c-.3 0-.5-.2-.5-.5s.2-.5.5-.5h2c.3 0 .5.2.5.5s-.2.5-.5.5z"/></svg>