<svg id="technical_page" xmlns="http://www.w3.org/2000/svg" viewBox="0 0 18 16.5"><style>.st0{fill:#313131}.st1{fill:none;stroke:#313131;stroke-linecap:round;stroke-linejoin:round;stroke-miterlimit:10}</style><path class="st0" d="M6.8 12.4h-.1L4 11.6c-.2-.1-.3-.2-.4-.4l-.3-2.4c0-.2 0-.3.1-.4L11 .7c.2-.2.5-.2.7 0 .2.2.2.5 0 .7L4.3 8.9l.3 1.9 2.1.6 7.5-7.5c.2-.2.5-.2.7 0 .1.1.1.4-.1.6l-7.7 7.7c0 .1-.2.2-.3.2z"/><path class="st0" d="M14.2 5c-.2 0-.3-.1-.4-.2-.2-.2-.1-.5.1-.7.4-.3.7-.8.7-1.4 0-.9-.8-1.7-1.7-1.7-.5 0-.9.2-1.2.5-.2.2-.5.2-.7 0-.2-.2-.2-.5 0-.7.5-.5 1.2-.8 1.9-.8 1.5 0 2.7 1.2 2.7 2.7 0 .8-.4 1.7-1.1 2.2-.1 0-.2.1-.3.1z"/><path class="st0" d="M13.9 5.3c-.1 0-.3 0-.3-.1l-3-2.9c-.2-.2-.2-.5 0-.7.2-.2.5-.2.7 0l3 2.9c.2.2.2.5 0 .7-.2 0-.3.1-.4.1zM6.4 9.4c-.1 0-.3-.1-.4-.2-.2-.2-.2-.5 0-.7L10.6 4c.2-.2.5-.2.7 0 .2.2.2.5 0 .7L6.8 9.3c-.1.1-.2.1-.4.1zM1.9 16.5c-.1 0-.1 0 0 0-.3 0-.4-.2-.5-.3L0 12.6c-.1-.2 0-.4.1-.5L3.4 9c.3-.2.6-.2.8 0 .2.2.2.5 0 .7l-3.1 2.9 1 2.5 3.5-3.8c.2-.2.5-.2.7 0 .2.2.2.5 0 .7l-4.1 4.4c-.1.1-.2.1-.3.1zM6 16.5H4.3c-.3 0-.5-.2-.5-.5s.2-.5.5-.5H6c.3 0 .5.2.5.5s-.3.5-.5.5zM9.8 16.5H8.2c-.3 0-.5-.2-.5-.5s.2-.5.5-.5h1.6c.3 0 .5.2.5.5s-.2.5-.5.5zM13.6 16.5H12c-.3 0-.5-.2-.5-.5s.2-.5.5-.5h1.6c.3 0 .5.2.5.5s-.2.5-.5.5zM17.5 16.5h-1.6c-.3 0-.5-.2-.5-.5s.2-.5.5-.5h1.6c.3 0 .5.2.5.5s-.2.5-.5.5z"/></svg>