<svg id="technical_page" xmlns="http://www.w3.org/2000/svg" viewBox="0 0 18.9 17.3"><style>.st0{fill:#313131}.st1{fill:none;stroke:#313131;stroke-linecap:round;stroke-linejoin:round;stroke-miterlimit:10}</style><path class="st0" d="M2.6 4.6C1.3 4.6.3 3.6.3 2.3.3 1 1.3 0 2.6 0s2.3 1 2.3 2.3c0 1.3-1 2.3-2.3 2.3zm0-3.6c-.7 0-1.3.6-1.3 1.3s.6 1.3 1.3 1.3S3.9 3 3.9 2.3 3.3 1 2.6 1z"/><path class="st0" d="M11.3 16.3c-1.1 0-1.6-.8-1.6-1.4V12c-.8-.3-2.5-.9-3.1-1.6l-1-1c.2.6.5 1.3.8 1.7.1.1.6 1 .2 1.7-.3.4-.6.6-1 .7-.3 0-.6-.1-.9-.3-.3-.3-1.7-2.6-2.3-3.5 0-.1-.1-.1-.1-.2 0-.5-.3-3.2.2-4.1l.4-.6c.1-.3.4-.3.6-.2.3.1.4.4.2.7l-.3.6c-.2.4-.2 2-.1 3.4.9 1.4 1.8 3 2 3.2.2 0 .2-.1.3-.2.1-.1 0-.5-.1-.6-.8-1-1.3-3.3-1.3-3.6 0-.2.1-.4.2-.5.2-.1.4-.1.6 0 .1.1 1.6 1.3 2.4 2.2.4.5 2.1 1.2 3 1.4.2.1.4.3.4.5V15s0 .4.6.4c.3 0 .5-.4.5-.5 0-.3-.1-1.9 0-3.1 0-.9-1.2-1.8-1.7-2.1-.3-.2-.4-.4-.3-.6.1-.2.2-.4.5-.4l2.1-.1c.1 0 .3 0 .4.2.5.5 1.9 1.9 2.6 2.3.4.3.4.3.8-.1.1-.2.1-.4 0-.6-.5-.4-2.8-2.5-3.4-2.9-.3-.2-1.5-.2-2.4-.1-.2 0-.3 0-.4-.1l-2-1.9C8 5.2 8 5 8 4.9s.2-.3.4-.3c1.9-.3 4.2-1 4.5-1.5.1-.2.1-.3 0-.3-.1-.1-.3-.2-.4-.1-.4.2-2.9 1.1-3.4 1.3h-.3s-.5-.2-2.1-.5c-.4-.1-.7-.2-1 0-.2-.2-.5-.3-.7-.5-.1-.2 0-.5.2-.7.6-.3 1.2-.2 1.6-.1 1.2.3 1.9.5 2.2.6 1.4-.5 2.9-1 3.1-1.1.5-.3 1.2-.2 1.6.3.4.4.5 1 .1 1.6-.6.8-2.9 1.4-4.3 1.7l.9 1c.7-.1 2.2-.2 2.9.3.7.5 3.4 2.9 3.5 3l.1.1c.2.4.4 1.2-.1 1.8-.4.5-.9 1.1-2.1.4-.7-.4-2.1-1.8-2.6-2.3h-.5c.6.5 1.1 1.3 1.1 2.1-.1 1.3 0 3.1 0 3.1v.1c0 .5-.4 1.4-1.4 1.4zM9.3 17.3H.5c-.3 0-.5-.2-.5-.5s.2-.5.5-.5h8.8c.3 0 .5.2.5.5s-.2.5-.5.5zM18.4 17.3h-5.2c-.3 0-.5-.2-.5-.5s.2-.5.5-.5h5.2c.3 0 .5.2.5.5s-.3.5-.5.5z"/></svg>