<svg id="technical_page" xmlns="http://www.w3.org/2000/svg" viewBox="0 0 20.9 20.3"><style>.st0{fill:#313131}</style><path class="st0" d="M7 8.6c-1.2 0-2.2-1-2.2-2.2 0-1.2 1-2.2 2.2-2.2s2.2 1 2.2 2.2c0 1.3-1 2.2-2.2 2.2zm0-3.4c-.7 0-1.2.5-1.2 1.2S6.3 7.6 7 7.6s1.2-.5 1.2-1.2c0-.6-.5-1.2-1.2-1.2z"/><path class="st0" d="M15.3 19.8c-1.1 0-1.5-.8-1.5-1.3v-2.7c-.7-.2-2.3-.9-2.9-1.6-.5-.6-1.6-1.5-2-1.8-.8 0-3.9-.1-6.3-.6-1.3-.3-2.1-.7-2.4-1.3-.2-.4-.2-.7-.1-1.1.4-1 1.4-1 2-.9 2 .5 4.4 1 4.9.8l.3-.5c.1-.2.4-.3.7-.2.2.1.2.4.1.7l-.3.5c-.2.3-.6 1.1-5.9-.4 0 0-.6-.1-.8.3-.1.2-.1.2-.1.3.1.1.4.5 1.8.8 2.5.5 6.2.5 6.2.5.1 0 .2 0 .3.1.1.1 1.6 1.3 2.2 2.1.4.5 1.9 1.1 2.8 1.4.2.1.4.3.4.5v3.1s0 .3.5.3c.3 0 .4-.4.5-.5v-2.9c0-.8-1.2-1.7-1.6-1.9-.2-.1-.3-.3-.2-.5.1-.2.2-.4.5-.4l2-.1c.1 0 .3 0 .4.2.5.5 1.8 1.8 2.4 2.2.4.2.4.2.7-.1.1-.1.1-.4 0-.5-1-.8-2.8-2.4-3.2-2.7-.3-.2-1.4-.2-2.3-.1-.1 0-.3 0-.4-.1l-2.7-2.6c-.1-.1-.2-.3-.1-.4l1.2-6.7c-.3-.5-.4-.7-.5-.7 0 0-.1.1-.1.3-.5 1.3-1.5 6.3-1.5 6.4-.1.2-.3.4-.6.4-.3-.1-.5-.4-.4-.6 0-.2 1-5.1 1.5-6.5.2-.8.6-1 .9-1 .7-.1 1.3.7 1.5 1 .1.1.1.2.1.4L12.1 8l2.3 2.2c.7-.1 2.1-.2 2.8.3.6.5 3.3 2.8 3.4 2.9l.1.1c.2.4.4 1.1-.1 1.7-.4.5-.9 1-2 .4-.7-.4-2-1.7-2.5-2.2h-.4c.5.5 1 1.2 1 2-.1 1.2 0 2.9 0 2.9v.1c-.1.5-.5 1.4-1.4 1.4z"/><path class="st0" d="M8 20.3c-.3 0-.5-.2-.5-.5V15c0-.3.2-.5.5-.5s.5.2.5.5v4.8c0 .3-.3.5-.5.5zM10.2 17.9c-.3 0-.5-.2-.5-.5V15c0-.3.2-.5.5-.5s.5.2.5.5v2.4c0 .2-.2.5-.5.5z"/></svg>