<svg id="technical_page" xmlns="http://www.w3.org/2000/svg" viewBox="0 0 11.7 16"><style>.st0{fill:#313131}</style><path class="st0" d="M6.1 16c-.6 0-1.2-.1-1.8-.3-2-.5-3.5-1.9-4.1-3.6C-.3 10.6 0 9 1 7.7c1.8-2.3 1.6-3.8 1.6-3.8 0-.2.1-.4.2-.5.2-.1.4-.1.5 0 .7.4 1.1 1.3 1.3 2.1 0-.1.1-.1.1-.2 1-2.6-1.9-4.3-2-4.4-.1-.1-.2-.3-.1-.5 0-.2.2-.4.5-.4.1 0 .8 0 2.6.8 3.8 1.8 4 5.9 3.8 8 .5-.9.3-2.1.3-2.1 0-.2.1-.4.2-.5.2-.1.4-.1.5 0 .1.1 1.2.9 1.1 3.9-.1 2-.9 3.8-2.4 4.8-.8.7-1.9 1.1-3.1 1.1zM3.5 5.1c-.2.7-.6 1.9-1.7 3.2-.8 1-1 2.3-.6 3.5.5 1.4 1.7 2.5 3.4 3 1.6.4 3 .2 4.2-.6 1.2-.9 1.9-2.3 1.9-4 0-.6 0-1.1-.1-1.5-.2.6-.5 1.2-1.1 1.7l-.5.2c-.2.1-.4.1-.5 0-.2-.1-.2-.3-.2-.5.1-.3 1.5-6.2-3.1-8.3.7 1 1.2 2.4.6 3.9-.8 1.9-.9 2.1-1.4 2.1-.2 0-.4-.2-.4-.4v-.1c0-.5-.1-1.5-.5-2.2zm.9 2.2z"/><path class="st0" d="M4.4 13.3h-.2c-1.7-.6-1.9-2.5-1.7-3.4.1-.3.3-.4.6-.4.3.1.4.3.4.6 0 .1-.3 1.8 1.1 2.3.2.1.4.3.3.6-.1.2-.3.3-.5.3z"/></svg>