<svg id="technical_page" xmlns="http://www.w3.org/2000/svg" viewBox="0 0 13.6 15.8"><style>.st0{fill:#313131}</style><path class="st0" d="M6.7 15.8c-.3 0-.5-.2-.5-.5V.5c0-.3.2-.5.5-.5s.5.2.5.5v14.8c0 .2-.3.5-.5.5z"/><path class="st0" d="M12.9 12.4c-.1 0-.2 0-.3-.1L.6 5.1C.4 5 .3 4.7.4 4.4c.1-.2.4-.3.7-.2l12.1 7.2c.2.1.3.4.2.7-.1.2-.3.3-.5.3z"/><path class="st0" d="M.5 12.1c-.2 0-.3-.1-.4-.3-.1-.2-.1-.5.2-.7L12.9 4c.2-.1.5-.1.7.2.1.2.1.5-.2.7L.7 12.1H.5zM4.8 14.2c-.2 0-.3-.1-.4-.2-.2-.2-.1-.5.1-.7l1.9-1.4c.1-.1.5-.1.6.1.2.2.1.5-.1.7L5 14.1c0 .1-.1.1-.2.1z"/><path class="st0" d="M8.5 14.2c-.1 0-.2 0-.3-.1l-1.9-1.4c-.2-.2-.3-.5-.1-.7.2-.2.5-.3.7-.1l1.9 1.4c.2.2.3.5.1.7-.1.1-.2.2-.4.2zM10.5 12.9c-.3 0-.5-.2-.5-.5l-.2-2.3c0-.3.2-.5.5-.5s.5.2.5.5l.2 2.3c0 .3-.2.5-.5.5z"/><path class="st0" d="M10.3 10.6c-.2 0-.4-.1-.5-.3-.1-.3 0-.5.3-.7l2.1-.9c.3-.1.5 0 .7.3.1.3 0 .5-.3.7l-2.1.9h-.2zM12.4 7.5c-.1 0-.1 0-.2-.1l-2.1-1c-.3-.1-.4-.4-.2-.7.1-.2.4-.4.7-.2l2.1 1c.2.1.4.4.2.7-.1.1-.3.3-.5.3z"/><path class="st0" d="M10.3 6.4s-.1 0 0 0c-.4 0-.5-.3-.5-.6l.4-2.3c0-.3.3-.5.6-.4.3 0 .5.3.4.6L10.8 6c-.1.2-.3.4-.5.4zM6.7 4.1c-.2 0-.3-.1-.4-.2-.2-.3-.1-.6.1-.7l1.8-1.4c.2-.2.5-.1.7.1.2.2.1.5-.1.7L7 4c-.1 0-.2.1-.3.1z"/><path class="st0" d="M6.7 4.1c-.2 0-.3-.1-.3-.1L4.5 2.6c-.2-.2-.3-.5-.1-.7.2-.2.5-.3.7-.1L7 3.2c.2.2.3.5.1.7-.1.1-.3.2-.4.2zM3.3 6.4c-.3 0-.5-.2-.5-.4l-.4-2.3c0-.3.1-.5.4-.6.3 0 .5.1.6.4l.4 2.3c0 .3-.2.5-.5.6z"/><path class="st0" d="M1.2 7.5c-.2 0-.3-.1-.4-.3-.2-.2-.1-.5.2-.7l2.1-1c.2-.1.5 0 .7.2.1.2 0 .5-.2.7l-2.1 1c-.1.1-.2.1-.3.1zM3 10.6h-.2L.7 9.7C.4 9.6.3 9.3.4 9c.1-.2.4-.4.6-.2l2.1.9c.3.1.4.4.3.7 0 .1-.2.2-.4.2z"/><path class="st0" d="M2.8 12.9c-.3 0-.5-.3-.5-.5l.2-2.3c0-.3.3-.5.5-.5.3 0 .5.3.5.5l-.2 2.3c0 .3-.2.5-.5.5z"/></svg>