<svg id="technical_page" xmlns="http://www.w3.org/2000/svg" viewBox="0 0 17.9 17.3"><style>.st0{fill:#313131}</style><path class="st0" d="M2 13c-.1 0-.3-.1-.4-.2-.2-.2-.2-.5.1-.7.6-.5.9-1 .9-1.6 0-1-.9-1.8-.9-1.8-.2-.2-.2-.5 0-.7.2-.2.5-.2.7 0 0 0 1.2 1 1.2 2.5 0 .9-.4 1.7-1.3 2.4 0 0-.1.1-.3.1zM.5 11.8c-.1 0-.3-.1-.4-.2-.2-.2-.2-.5.1-.7.2-.2.3-.3.3-.5 0-.3-.2-.5-.3-.6-.2-.1-.3-.5-.1-.7.2-.2.5-.2.7 0 .1.1.6.6.6 1.3 0 .3-.1.8-.6 1.2-.1.1-.2.2-.3.2z"/><path class="st0" d="M3.4 14.9c-.1 0-.3-.1-.4-.2-.2-.2-.2-.5.1-.7 1.3-1.1 2-2.3 2-3.6 0-2.1-2-3.7-2-3.7-.2-.2-.3-.5-.1-.7.2-.2.5-.2.7-.1.1.1 2.3 2 2.4 4.5 0 1.6-.8 3-2.3 4.4-.2.1-.3.1-.4.1zM9.3 17.3c-1.6 0-2.8-1.4-2.8-2.7 0-.3.2-.5.5-.5s.5.2.5.5c0 .7.7 1.7 1.8 1.7 1.2 0 1.6-1.2 1.7-2 .1-1.3.4-2.3 3.2-4.2 2.4-1.7 2.6-3.7 2.6-3.8.2-1.5-.3-4.6-3.4-5.1-1.8-.4-3.3-.1-4.4.8-1.8 1.4-2 3.9-2 4 0 .3-.2.5-.5.5S6 6.2 6 6c0-.1.3-3 2.4-4.7 1.4-1 3.1-1.4 5.3-1 3.5.6 4.6 4 4.2 6.2 0 .1-.2 2.6-3 4.5-2.6 1.8-2.7 2.6-2.8 3.5-.2 1.3-1.1 2.8-2.8 2.8z"/><path class="st0" d="M10.3 10.8c-.3 0-.5-.2-.5-.5s.2-.5.5-.5c.1 0 .8-.1 1-1.3.1-.8-.3-1.2-.7-1.7-.3-.2-.6-.5-.7-1-.1-.4-.2-1.4.4-2.2.4-.6 1.1-.9 2-1 2-.1 2.7 1.7 2.8 2.7 0 .3-.2.5-.5.5s-.5-.2-.5-.5c0-.2-.2-1.9-1.7-1.7-.6 0-1 .2-1.3.6-.4.5-.3 1.2-.2 1.4 0 .2.2.4.5.6.5.5 1.2 1.2 1 2.5-.4 1.7-1.5 2.1-2.1 2.1z"/></svg>