<svg id="technical_page" xmlns="http://www.w3.org/2000/svg" viewBox="0 0 9.4 17.2"><style>.st0{fill:#313131}</style><path class="st0" d="M2.2 17.2h-.1c-.1 0-.3-.1-.3-.3L0 13c-.1-.2-.1-.3 0-.5.1-.1.3-.2.4-.2h1.4l1.6-3.1H.8c-.2 0-.4-.1-.4-.3-.1-.2-.1-.4 0-.5l2.7-4.2h-.9c-.2.1-.4-.1-.4-.3-.1-.2 0-.4.2-.6L6.9 0h.4c.1 0 .3.1.3.3l1.5 3.3c.1.2.1.3 0 .5-.1.1-.2.2-.4.2h-1l-1.1 2h2.3c.2 0 .3.1.4.2.1.1.1.3 0 .5l-2.5 5.5h.6c.2 0 .4.1.5.3.1.2 0 .4-.2.6l-5.3 3.7c.1.1 0 .1-.2.1zm-.9-3.9l1.2 2.6L6 13.5c-.1 0-.2-.1-.3-.2-.1-.1-.1-.3 0-.5l2.5-5.5H5.8c-.2 0-.3-.1-.4-.2-.1-.2-.1-.3 0-.5L7 3.5c.1-.2.3-.3.4-.3h.5l-1-2-3.1 2H4c.2 0 .4.1.4.3.1.2.1.4 0 .5L1.8 8.2h2.6c.2 0 .3.1.4.2.1.1.1.3 0 .5L2.7 13c-.1.2-.3.3-.4.3h-1z"/></svg>