<svg id="technical_page" xmlns="http://www.w3.org/2000/svg" viewBox="0 0 14.3 16.5"><style>.st0{fill:#313131}</style><path class="st0" d="M7.2 16.5c-.6 0-5.9-.2-7.1-2.5-.1-.1-.1-.2-.1-.2v-8c0-.1.1-.3.2-.4.1-.1.2-.1.4-.1 0 0 .2 0 .4-.2.2-.3.6-1.2 0-3.4-.1-.3 0-.5.3-.6L4.8 0c.2 0 .5.1.6.3.2.3.8 1.3 1.5 1.4h.3c.3 0 .5.2.5.5s-.3.4-.5.4h-.4c-1-.1-1.8-1-2.1-1.6L2 1.9c.3 1.8.2 3.1-.4 3.8-.2.3-.4.4-.6.5v7.4c.9 1.5 4.7 1.8 6.2 1.9.3 0 .5.2.5.5s-.3.5-.5.5z"/><path class="st0" d="M7.2 13.5s-.1 0 0 0c-5-.2-6.9-2.3-7-2.4-.2-.2-.2-.5 0-.7.2-.2.5-.2.7 0 0 0 1.8 1.9 6.3 2 .3 0 .5.2.5.5-.1.4-.3.6-.5.6zM3.3 11c-.3 0-.5-.2-.5-.5V1c0-.3.2-.5.5-.5s.5.2.5.5v9.5c0 .3-.2.5-.5.5zM7.2 6.6H7C5.5 6 4.8 4.1 4.8 1.2c0-.2 0-.4.2-.5.2-.2.5-.1.7.1.1.1.1.2.1.4 0 2.4.5 4 1.5 4.4.3.1.4.4.3.7-.1.2-.2.3-.4.3z"/><path class="st0" d="M7.2 16.5c-.1 0-.3-.1-.4-.1-.1-.1-.1-.2-.1-.4V6.1c0-.3.2-.5.5-.5s.5.2.5.5v9.4c1.7-.1 4.8-.5 5.7-1.8V6.2c-.2-.1-.4-.2-.6-.5-.6-.7-.7-2-.4-3.8l-2.8-.8c-.4.5-1.1 1.5-2.1 1.5h-.4c-.3 0-.5-.2-.5-.5s.2-.5.5-.5h.3C8 1.6 8.7.6 8.8.2c.2-.1.5-.2.7-.2l3.6 1.1c.3.1.4.3.3.6-.5 2.2-.2 3.1 0 3.4.2.2.4.2.4.2.3 0 .5.2.5.5v7.9c0 .1 0 .2-.1.2-1.2 2.4-6.4 2.6-7 2.6z"/><path class="st0" d="M7.2 13.5c-.3 0-.5-.2-.5-.5s.2-.5.5-.5c4.5-.1 6.3-2 6.3-2 .2-.2.5-.2.7 0 .2.2.2.5 0 .7-.1.1-2.1 2.2-7 2.3zM11 10.5c-.3 0-.5-.2-.5-.5V1c0-.3.2-.5.5-.5s.5.2.5.5v9c0 .2-.2.5-.5.5zM7.2 6.6c-.2 0-.4-.1-.5-.3-.1-.3 0-.6.3-.7 1-.4 1.6-2 1.5-4.4 0-.2 0-.3.1-.4.2-.2.5-.3.7-.1.1.1.2.3.2.5 0 3-.7 4.9-2.2 5.4h-.1z"/></svg>