<svg id="_x31_._Index_copy_2" xmlns="http://www.w3.org/2000/svg" viewBox="0 0 33.7 38.6"><style>.st0{fill:#313131}</style><path class="st0" d="M18.5 28.3c-.2 0-.4-.1-.5-.2-.3-.3-.3-.8 0-1.1l2-1.9c.3-.3.8-.3 1.1 0 .3.3.3.8 0 1.1l-2 1.9c-.2.1-.4.2-.6.2zM20.7 30.1c-.2 0-.4-.1-.5-.2-.3-.3-.3-.8 0-1.1l2-1.9c.3-.3.8-.3 1.1 0 .3.3.3.8 0 1.1l-2 1.9c-.2.1-.4.2-.6.2z"/><path class="st0" d="M32.9 36.1c-.4 0-.8-.3-.8-.8v-2c0-.1.1-1.3-1.1-2.4-.7-.7-2.4-.7-3.7-.7-.9 0-1.7 0-2.2-.2-1.2-.5-6.6-6.1-8.2-7.9-.1-.1-.2-.3-.2-.5v-3.2C17 16 18.3 5.3 19.4 1.5H1.6c.3 3.4 1.5 16.2 1.5 19.6L3 33.8H1.5l.1-12.7C1.6 17.3 0 1 0 .8 0 .6 0 .4.2.2.3.1.5 0 .8 0h19.8c.3 0 .5.2.7.4.1.2.1.5 0 .8-.8 1.3-2.2 11.3-2.9 17.4v2.8c3.2 3.4 6.8 7 7.5 7.3.3.1 1 .1 1.7.1 1.6 0 3.6 0 4.8 1.1 1.7 1.7 1.5 3.5 1.5 3.6v1.9c-.2.3-.5.7-1 .7z"/><path class="st0" d="M11.2 38.6H2.3c-.4 0-.8-.3-.8-.8v-4.2c0-.4.3-.8.8-.8H11.6l7.1 1.7H33c.2 0 .4.1.5.2.1.1.2.3.2.5l-.1 2.3c0 .4-.3.7-.7.7l-16.9.2h-.2l-4-.9v.3c.1.5-.2.8-.6.8zM3 37.1h7.4v-.5c0-.2.1-.4.3-.6.2-.1.4-.2.6-.1l4.8 1 16-.1V36H18.3l-7.1-1.7H3v2.8z"/><path class="st0" d="M12.4 34.1c-.4 0-.8-.3-.8-.8 0-8 5.5-11.3 5.7-11.4.4-.2.8-.1 1 .3.2.4.1.8-.3 1-.2.1-5 3-5 10.1.2.4-.2.8-.6.8zM17 19.7c-.1 0-.2 0-.3-.1-.2-.1-3.8-2-3.3-8.6.2-2.4.9-4.1 2.3-5.2 1.7-1.4 3.6-1.2 3.7-1.2.4 0 .7.4.7.8s-.4.7-.8.7c0 0-1.4-.1-2.6.8-1 .8-1.6 2.2-1.7 4.1-.4 5.7 2.4 7.2 2.5 7.2.4.2.5.6.3 1-.3.4-.5.5-.8.5zM25.6 33.2c-.4 0-.7-.3-.7-.7-.1-2.6.7-3.4 1-3.6.3-.2.8-.2 1 .2.2.3.2.8-.1 1 0 .1-.5.6-.4 2.3 0 .4-.4.8-.8.8zM12.1 4.5H1.3c-.4 0-.8-.3-.8-.8s.4-.7.8-.7h10.8c.4 0 .8.3.8.8s-.4.7-.8.7z"/></svg>