<svg id="_x31_._Index_copy_2" xmlns="http://www.w3.org/2000/svg" viewBox="0 0 33.5 44.1"><style>.st0{fill:#313131}</style><path class="st0" d="M27.3 17.4c-.4 0-.8-.3-.8-.8 0-6.9-4.2-14.2-12.1-14.2-7 .1-12 5-12.5 12.3 0 .4-.4.7-.8.7s-.7-.4-.7-.8C.9 6.6 6.7 1 14.5 1 22.2 1 28 7.7 28 16.6c0 .5-.3.8-.7.8zM13.9 44.1c-3.8 0-6.9-2.7-6.9-5.9s3.1-5.9 6.9-5.9 6.9 2.7 6.9 5.9-3.1 5.9-6.9 5.9zm0-10.4c-3 0-5.4 2-5.4 4.4s2.4 4.4 5.4 4.4 5.4-2 5.4-4.4-2.4-4.4-5.4-4.4z"/><path class="st0" d="M20.1 38.9c-.4 0-.8-.3-.8-.8v-5.5c0-2.4-2.4-4.4-5.4-4.4s-5.4 2-5.4 4.4v5.5c0 .4-.3.8-.8.8s-.7-.3-.7-.7v-5.5c0-3.3 3.1-5.9 6.9-5.9s6.9 2.7 6.9 5.9v5.5c0 .4-.3.7-.7.7z"/><path class="st0" d="M7.4 32.8h-.2c-2.4-.8-3.9-3.4-4.7-5.4-.2-.4 0-.8.4-1 .4-.2.8 0 1 .4.7 1.7 1.9 3.9 3.7 4.5.4.1.6.6.5.9 0 .4-.3.6-.7.6zM20.8 32.8c-.3 0-.6-.2-.7-.5-.1-.4.1-.8.5-.9 2.6-.9 4-5 4.4-6.6.1-.4.5-.7.9-.6.4.1.7.5.6.9-.1.3-1.4 6.4-5.4 7.7-.1-.1-.2 0-.3 0zM24.6 39.1h-4.4c-.4 0-.8-.3-.8-.8V34c0-.4.3-.8.8-.8h4.4c.4 0 .8.3.8.8v4.4c-.1.4-.4.7-.8.7zm-3.7-1.5h2.9v-2.9h-2.9v2.9z"/><path class="st0" d="M29.4 42.2h-2.7c-1.5 0-2.8-1.2-2.8-2.8V33c0-1.5 1.2-2.7 2.8-2.7h2.7c.4 0 .8.3.8.8v10.4c0 .4-.3.7-.8.7zm-2.6-10.4c-.7 0-1.3.6-1.3 1.2v6.4c0 .7.6 1.3 1.3 1.3h1.9v-8.9h-1.9z"/><path class="st0" d="M29.9 42.2h-.3c-.4 0-.8-.3-.8-.8V31c0-.4.3-.8.8-.8h.4c2 0 3.6 1.6 3.6 3.6v4.8c-.1 2-1.7 3.6-3.7 3.6zm.4-10.4v8.8c1-.2 1.7-1 1.7-2.1v-4.8c0-.9-.7-1.7-1.7-1.9zM7.4 4.3c-.2 0-.5-.1-.6-.3L4.9 1.2c-.2-.3-.1-.8.2-1 .3-.2.8-.1 1 .2L8 3.1c.2.3.1.8-.2 1-.1.1-.3.2-.4.2zM20.7 3.8c-.1 0-.2 0-.4-.1-.4-.2-.5-.7-.3-1L21.3.4c.2-.4.7-.5 1-.3.4.2.5.7.3 1l-1.3 2.3c-.1.3-.3.4-.6.4zM4.9 27.8c-.5 0-1.2-.1-1.8-.6-1-.7-3.7-5.4-2.9-10.2.3-1.8 1.1-3.4 2.3-4.6 1.3-1.3 3.2-1.9 5.1-1.6 2.2.3 3.7 1.2 4.5 2.6.9 1.6.8 3.8-.3 6.5-1.9 4.6-3.9 7.2-6 7.8-.3.1-.6.1-.9.1zm1.8-15.5c-1.2 0-2.4.5-3.2 1.3-1 1-1.7 2.3-1.9 3.8-.7 4.2 1.7 8.3 2.3 8.7.5.3 1 .4 1.5.3.9-.3 2.8-1.5 5-6.9 1-2.3 1.1-4 .4-5.2-.7-1.2-2.3-1.7-3.4-1.8-.2-.2-.5-.2-.7-.2zM23.1 27.8c-.3 0-.7-.1-.9-.1-2.1-.6-4.1-3.2-6-7.8-1.1-2.7-1.3-4.9-.3-6.5.8-1.4 2.4-2.3 4.5-2.6 1.9-.2 3.8.4 5.1 1.6 1.2 1.2 2 2.8 2.3 4.6.8 4.7-1.9 9.5-2.9 10.2-.6.5-1.2.6-1.8.6zm-2.5-15.5c-1.2.2-2.7.6-3.4 1.8-.7 1.2-.5 2.9.4 5.2 2.3 5.4 4.1 6.7 5 6.9.5.2 1 .1 1.5-.3.6-.4 3-4.5 2.3-8.7-.3-1.5-.9-2.8-1.9-3.8-1-.8-2.5-1.3-3.9-1.1zm-.1-.7z"/></svg>