<svg id="technical_page" xmlns="http://www.w3.org/2000/svg" viewBox="0 0 44.9 29"><style>.st0{fill:#313131}</style><path class="st0" d="M22.4 19.8H.8c-.4 0-.8-.3-.8-.8V9.9c0-.4.3-.8.8-.8h21.7c.4 0 .8.3.8.8v9.2c-.1.4-.5.7-.9.7zM1.5 18.3h20.2v-7.7H1.5v7.7z"/><path class="st0" d="M44.1 19.8H22.4c-.4 0-.8-.3-.8-.8V9.9c0-.4.3-.8.8-.8h21.7c.4 0 .8.3.8.8v9.2c0 .4-.4.7-.8.7zm-20.9-1.5h20.2v-7.7H23.2v7.7z"/><path class="st0" d="M26.3 16.9c-.4 0-.8-.3-.8-.8v-3.7c0-.4.3-.8.8-.8s.8.3.8.8v3.7c0 .4-.4.8-.8.8zM30.7 16.9c-.4 0-.8-.3-.8-.8v-3.7c0-.4.3-.8.8-.8s.8.3.8.8v3.7c0 .4-.4.8-.8.8zM35.1 16.9c-.4 0-.8-.3-.8-.8v-3.7c0-.4.3-.8.8-.8s.8.3.8.8v3.7c-.1.4-.4.8-.8.8zM39.5 16.9c-.4 0-.8-.3-.8-.8v-3.7c0-.4.3-.8.8-.8s.8.3.8.8v3.7c-.1.4-.4.8-.8.8zM22.4 10.7H.8c-.5 0-.8-.4-.8-.8V.8C0 .3.3 0 .8 0h21.7c.4 0 .8.3.8.8V10c-.1.3-.5.7-.9.7zM1.5 9.2h20.2V1.5H1.5v7.7z"/><path class="st0" d="M4.6 7.7c-.4 0-.7-.3-.7-.7V3.2c0-.4.3-.8.8-.8s.8.3.8.8V7c-.1.4-.5.7-.9.7zM9 7.7c-.4 0-.7-.3-.7-.7V3.2c0-.4.3-.8.8-.8s.8.3.8.8V7c-.1.4-.5.7-.9.7zM13.4 7.7c-.4 0-.8-.3-.8-.8V3.2c0-.4.3-.8.8-.8s.8.3.8.8V7c0 .4-.4.7-.8.7zM17.8 7.7c-.4 0-.8-.3-.8-.8V3.2c0-.4.3-.8.8-.8s.8.3.8.8V7c0 .4-.4.7-.8.7zM22.4 29H.8c-.5 0-.8-.4-.8-.8V19c0-.4.3-.8.8-.8h21.7c.4 0 .8.3.8.8v9.2c-.1.4-.5.8-.9.8zM1.5 27.5h20.2v-7.7H1.5v7.7z"/><path class="st0" d="M4.6 26c-.4 0-.8-.3-.8-.8v-3.7c0-.4.3-.8.8-.8s.8.3.8.8v3.7c0 .5-.4.8-.8.8zM9 26c-.4 0-.8-.3-.8-.8v-3.7c0-.4.3-.8.8-.8s.8.3.8.8v3.7c0 .5-.4.8-.8.8zM13.4 26c-.4 0-.8-.3-.8-.8v-3.7c0-.4.3-.8.8-.8s.8.3.8.8v3.7c0 .5-.4.8-.8.8zM17.8 26c-.4 0-.8-.3-.8-.8v-3.7c0-.4.3-.8.8-.8s.8.3.8.8v3.7c0 .5-.4.8-.8.8zM11.6 19.8c-.4 0-.8-.3-.8-.8v-8.6c0-.4.3-.8.8-.8s.8.3.8.8V19c0 .5-.4.8-.8.8zM44.1 29H22.4c-.4 0-.8-.3-.8-.8V19c0-.4.3-.8.8-.8h21.7c.4 0 .8.3.8.8v9.2c0 .4-.4.8-.8.8zm-20.9-1.5h20.2v-7.7H23.2v7.7z"/><path class="st0" d="M33.3 29c-.4 0-.8-.3-.8-.8v-8.6c0-.4.3-.8.8-.8s.8.3.8.8v8.6c-.1.4-.4.8-.8.8z"/></svg>