<svg id="technical_page" xmlns="http://www.w3.org/2000/svg" viewBox="0 0 30.3 28.9"><style>.st0{fill:#313131}.st1{fill:#ee5655}.st2{fill:#fff}</style><path class="st0" d="M25.6 28.9H.8c-.4 0-.8-.3-.8-.8V.8C0 .3.3 0 .8 0h24.9c.4 0 .8.3.8.8v11.1c0 .4-.3.8-.8.8s-.8-.3-.8-.8V1.5H1.5v25.9h24.1c.4 0 .8.3.8.8s-.3.7-.8.7z"/><path class="st0" d="M20.6 7.3H5.9c-.4 0-.8-.3-.8-.8s.3-.8.8-.8h14.7c.4 0 .8.3.8.8s-.4.8-.8.8zM20.5 11.6H5.9c-.4 0-.8-.3-.8-.8s.3-.8.8-.8h14.7c.4 0 .8.3.8.8s-.4.8-.9.8z"/><path class="st1" d="M10.9 14.5h19.3v9.6H10.9z"/><path class="st2" d="M14.9 16.7H17c2.5 0 2.5 3.6 0 3.6h-1V22h-1.1v-5.3zm2 2.7c1.1 0 1.1-1.5 0-1.5h-1v1.5h1zM21.4 16.7c1 0 2 .5 2 1.7v1.9c0 1.2-1 1.7-2 1.7h-1.9v-5.3h1.9zm0 4.2c.5 0 .9-.2.9-.6v-1.9c0-.4-.4-.6-.9-.6h-.8v3.1h.8zM25.3 19h2.2v1.1h-2.2v2h-1.1v-5.3h3.6v1.1h-2.5V19z"/></svg>