<svg id="technical_page" xmlns="http://www.w3.org/2000/svg" viewBox="0 0 30.3 28.9"><style>.st0{fill:#313131}.st1{fill:#4687f4}.st2{fill:#fff}.st3{font-family:&apos;UniSansBold&apos;}.st4{font-size:7.4418px}</style><path class="st0" d="M25.6 28.9H.8c-.4 0-.8-.3-.8-.8V.8C0 .3.3 0 .8 0h24.9c.4 0 .8.3.8.8v11.1c0 .4-.3.8-.8.8s-.8-.3-.8-.8V1.5H1.5v25.9h24.1c.4 0 .8.3.8.8s-.3.7-.8.7z"/><path class="st0" d="M20.6 7.3H5.9c-.4 0-.8-.3-.8-.8s.3-.8.8-.8h14.7c.4 0 .8.3.8.8s-.4.8-.8.8zM20.5 11.6H5.9c-.4 0-.8-.3-.8-.8s.3-.8.8-.8h14.7c.4 0 .8.3.8.8s-.4.8-.9.8z"/><path class="st1" d="M10.9 14.5h19.3v9.6H10.9z"/><text transform="translate(14.39 22.016)" class="st2 st3 st4">DOC</text></svg>