<svg id="_x31_._Index_copy_2" xmlns="http://www.w3.org/2000/svg" viewBox="0 0 52.3 31.5"><style>.st0{fill:#313131}</style><path class="st0" d="M14.3 27.4c-4.1 0-7.4-3.3-7.4-7.4s3.3-7.4 7.4-7.4 7.4 3.3 7.4 7.4-3.3 7.4-7.4 7.4zm0-13.3c-3.3 0-5.9 2.7-5.9 5.9s2.7 5.9 5.9 5.9 5.9-2.7 5.9-5.9-2.6-5.9-5.9-5.9zM38.3 27.4c-4.1 0-7.4-3.3-7.4-7.4s3.3-7.4 7.4-7.4 7.4 3.3 7.4 7.4-3.3 7.4-7.4 7.4zm0-13.3c-3.3 0-5.9 2.7-5.9 5.9s2.7 5.9 5.9 5.9 5.9-2.7 5.9-5.9-2.7-5.9-5.9-5.9z"/><path class="st0" d="M14.3 31.5C8 31.5 2.8 26.3 2.8 20S8 8.5 14.3 8.5 25.8 13.7 25.8 20s-5.2 11.5-11.5 11.5zm0-21.5c-5.5 0-10 4.5-10 10s4.5 10 10 10 10-4.5 10-10-4.5-10-10-10zM37.9 31.5c-6.3 0-11.5-5.1-11.5-11.5 0-6.3 5.1-11.5 11.5-11.5S49.3 13.7 49.3 20s-5.1 11.5-11.4 11.5zm0-21.5c-5.5 0-10 4.5-10 10s4.5 10 10 10 10-4.5 10-10c-.1-5.5-4.5-10-10-10zM14.3 8.5c-1.9 0-11.5-.1-11.5-2.9 0-2.7 9.6-2.9 11.5-2.9s11.5.1 11.5 2.9-9.6 2.9-11.5 2.9zM4.4 5.6c.8.6 4.2 1.4 9.9 1.4s9.1-.8 9.8-1.4c-.8-.5-4.1-1.4-9.8-1.4s-9.1.9-9.9 1.4zm19.9.2zM37.9 8.5c-1.9 0-11.5-.1-11.5-2.9 0-2.7 9.6-2.9 11.5-2.9s11.5.1 11.5 2.9c-.1 2.8-9.6 2.9-11.5 2.9zM28 5.6c.8.6 4.1 1.4 9.9 1.4 5.7 0 9.1-.8 9.8-1.4-.8-.5-4.1-1.4-9.8-1.4s-9.1.9-9.9 1.4zm19.9.2z"/><path class="st0" d="M3.6 6.4c-.4 0-.8-.4-.8-.8V2.9C2.8.1 12.4 0 14.3 0s11.5.1 11.5 2.9v2.5c0 .4-.3.8-.8.8s-.8-.3-.8-.8V3c-.5-.5-3.9-1.5-10-1.5S4.8 2.4 4.3 3v2.7c0 .3-.3.7-.7.7zM48.6 6.4c-.4 0-.8-.3-.8-.8V3c-.5-.5-3.9-1.5-10-1.5s-9.5.9-10 1.5v2.4c0 .4-.3.8-.8.8s-.8-.3-.8-.8V2.9C26.2.2 35.8 0 37.7 0s11.5.1 11.5 2.9v2.8c.1.3-.2.7-.6.7zM21.3 29.2c-.1 0-.3 0-.4-.1-.4-.2-.5-.7-.3-1 1.1-1.9 3.2-3.1 5.4-3.1 2.1 0 4 1 5.2 2.7.2.3.1.8-.2 1-.3.2-.8.1-1-.2-.9-1.3-2.4-2.1-4-2.1-1.7 0-3.3.9-4.1 2.3-.1.3-.3.5-.6.5z"/><path class="st0" d="M26.1 8.2c-1.4 0-2.5-.7-2.6-.8-.3-.2-.4-.7-.2-1 .2-.3.7-.4 1-.2.1.1 1.7 1.1 3.1.1.3-.2.8-.1 1 .2.2.3.1.8-.2 1-.6.6-1.4.7-2.1.7zM26.1 5.8c-.7 0-1.4-.2-1.9-.4-.4-.2-.6-.6-.4-1 .2-.4.6-.6 1-.4.5.2 1.2.4 1.9.2.4-.1.8.1.9.5.1.4-.1.8-.5.9-.3.2-.6.2-1 .2zM33.3 10.6H18.7c-.4 0-.8-.3-.8-.8s.3-.8.8-.8h14.6c.4 0 .8.3.8.8s-.4.8-.8.8zM10.1 10.4c-.4 0-.8-.3-.8-.8V8.1c0-.4.3-.8.8-.8s.8.3.8.8v1.6c-.1.4-.4.7-.8.7zM42.9 10.4c-.4 0-.8-.3-.8-.8V8.1c0-.4.3-.8.8-.8s.8.3.8.8v1.6c0 .4-.3.7-.8.7zM5.5 30.7c-.2 0-.3-.1-.5-.2-3.2-2.6-5-6.4-5-10.5 0-4.4 2.1-8.5 5.7-11 .3-.2.8-.2 1 .2.2.3.2.8-.2 1-3.2 2.3-5.1 5.9-5.1 9.8 0 3.6 1.6 7 4.4 9.3.3.3.4.7.1 1.1 0 .2-.2.3-.4.3zM46.1 30.7c-.2 0-.5-.1-.6-.3-.2-.3-.2-.8.2-1 3.2-2.3 5.1-5.9 5.1-9.8 0-3.6-1.6-7-4.4-9.3-.4-.4-.4-.9-.2-1.2.3-.3.8-.4 1.1-.1 3.2 2.6 5 6.4 5 10.5 0 4.4-2.1 8.5-5.7 11-.2.1-.3.2-.5.2z"/></svg>