<svg id="technical_page" xmlns="http://www.w3.org/2000/svg" viewBox="0 0 48.4 29.2"><style>.st0{fill:#313131}</style><path class="st0" d="M4.7 25.3h-4c-.4 0-.7-.3-.7-.7V.8C0 .3.3 0 .8 0h34.1c.4 0 .8.3.8.8v21.9c0 .4-.3.8-.8.8s-.8-.3-.8-.8V1.5H1.5v22.3h3.2c.4 0 .8.3.8.8s-.4.7-.8.7z"/><path class="st0" d="M33.9 25.3H12.5c-.4 0-.8-.3-.8-.8s.3-.8.8-.8h21.4c.4 0 .8.3.8.8s-.4.8-.8.8zM47.7 25.3h-5.3c-.4 0-.8-.3-.8-.8s.3-.8.8-.8H47V8.3l-3-2.9h-8.3v16.9c0 .4-.3.8-.8.8s-.8-.3-.8-.8V4.6c0-.4.3-.8.8-.8h9.3c.2 0 .4.1.5.2l3.5 3.4c.1.1.2.3.2.5v16.6c0 .5-.3.8-.7.8z"/><path class="st0" d="M47.7 14.5H39c-.4 0-.8-.3-.8-.8V4.6c0-.4.3-.8.8-.8s.8.3.8.8V13h7.9c.4 0 .8.3.8.8s-.4.7-.8.7zM41.3 17.2H39c-.4 0-.8-.3-.8-.8s.3-.8.8-.8h2.3c.4 0 .8.3.8.8s-.4.8-.8.8zM8.6 29.2C6 29.2 4 27.1 4 24.6s2.1-4.7 4.7-4.7 4.7 2.1 4.7 4.7-2.2 4.6-4.8 4.6zm0-7.8c-1.7 0-3.2 1.4-3.2 3.2s1.4 3.2 3.2 3.2c1.7 0 3.2-1.4 3.2-3.2s-1.4-3.2-3.2-3.2zM38.3 29.2c-2.6 0-4.7-2.1-4.7-4.7s2.1-4.7 4.7-4.7 4.7 2.1 4.7 4.7-2.1 4.7-4.7 4.7zm0-7.8c-1.7 0-3.2 1.4-3.2 3.2s1.4 3.2 3.2 3.2 3.2-1.4 3.2-3.2-1.5-3.2-3.2-3.2z"/><path class="st0" d="M8.6 26c-.8 0-1.4-.6-1.4-1.4 0-.8.6-1.4 1.4-1.4.8 0 1.4.6 1.4 1.4 0 .8-.6 1.4-1.4 1.4zm0-1.5c-.1 0-.1.1-.1.1 0 .1.2.1.2 0 0 0 0-.1-.1-.1zM38.4 26c-.8 0-1.4-.6-1.4-1.4s.6-1.4 1.4-1.4 1.4.6 1.4 1.4-.6 1.4-1.4 1.4zm0-1.5c-.1 0-.1.1-.1.1 0 .1.2.1.2 0 .1-.1 0-.1-.1-.1z"/><g><path class="st0" d="M13.1 12.7c-.2 0-.4-.1-.5-.2-.3-.3-.3-.8 0-1.1l6-6c.3-.3.8-.3 1.1 0 .3.3.3.8 0 1.1l-6 6c-.2.1-.4.2-.6.2z"/></g><g><path class="st0" d="M20.7 14.5c-.2 0-.4-.1-.5-.2-.3-.3-.3-.8 0-1.1l6-6c.3-.2.8-.2 1.1.1.3.3.3.8 0 1.1l-6 6c-.2.1-.4.1-.6.1z"/></g><g><path class="st0" d="M13.7 16.7c-.2 0-.4-.1-.5-.2-.3-.3-.3-.8 0-1.1l6-6c.3-.3.8-.3 1.1 0 .3.3.3.8 0 1.1l-6 6c-.2.1-.4.2-.6.2z"/></g><g><path class="st0" d="M21.3 9.1c-.2 0-.4-.1-.5-.2-.3-.3-.3-.8 0-1.1l2.4-2.4c.3-.3.8-.3 1.1 0 .3.3.3.8 0 1.1l-2.4 2.4c-.2.1-.4.2-.6.2z"/></g></svg>