<svg id="_x31_._Index_copy_2" xmlns="http://www.w3.org/2000/svg" viewBox="0 0 41.4 42.9"><style>.st0{fill:none;stroke:#313131;stroke-width:1.5;stroke-linecap:round;stroke-linejoin:round;stroke-miterlimit:10}</style><path class="st0" d="M4.7 15.8V4.2c0-1.1.9-2 2-2s2 .9 2 2v11.6M8.7 15.6V2.7c0-1.1.9-2 2-2s2 .9 2 2v12.9"/><path class="st0" d="M4.7 15.7V8.6c0-1.1-.9-2-2-2s-2 .9-2 2v29.1c0 .8.7 1.5 1.5 1.5h12.9c.8 0 1.5-.7 1.5-1.5V27.1L22 15.3c.5-1 0-2.2-1-2.6-1-.5-2.2 0-2.6 1l-1.9 4.1v-.5-.3c.1-.2.1-.4.1-.6v-11c0-1.1-.9-2-2-2s-2 .9-2 2v10.4M36.6 27.1v11.6c0 1.1-.9 2-2 2s-2-.9-2-2V27.1M32.6 27.3v12.9c0 1.1-.9 2-2 2s-2-.9-2-2V27.3"/><path class="st0" d="M36.6 27.2v7.1c0 1.1.9 2 2 2s2-.9 2-2v-8.4V5.2c0-.8-.7-1.5-1.5-1.5H26.2c-.8 0-1.5.7-1.5 1.5v10.6l-5.5 11.7c-.5 1 0 2.2 1 2.6 1 .5 2.2 0 2.6-1l1.9-4.1v.8c-.1.2-.1.4-.1.6v11c0 1.1.9 2 2 2s2-.9 2-2V27.2M.9 35.4h10M40.6 7.6h-9"/></svg>