<svg id="_x31_._Index_copy_2" xmlns="http://www.w3.org/2000/svg" viewBox="0 0 48.2 38.7"><style>.st0{fill:#313131}</style><path class="st0" d="M15.9 38c-.2 0-.4-.1-.6-.3-.3-.3-.2-.8.1-1.1 3.6-3.1 5.7-9.9 6.5-12.6.1-.4.5-.6.9-.5.4.1.6.5.5.9-.8 2.9-3.1 10.1-7 13.4-.1.2-.3.2-.4.2z"/><path class="st0" d="M14.3 38.7c-5.9 0-6.9-10-7-14.3 0-.4.3-.8.7-.8.4 0 .8.3.8.7.1 3 .7 12.8 5.5 12.8h.1c5.7-.1 8.8-3.5 11.9-12.8.1-.4.6-.6.9-.5.4.1.6.6.5.9-2.8 8.6-6 13.9-13.4 14z"/><path class="st0" d="M15.6 38.1c-.1 0-.2 0-.3-.1-3.9-2.1-4.5-9.4-4.4-13.6 0-.4.4-.7.8-.7s.7.3.7.8c0 2.4.2 10.4 3.6 12.3.4.2.5.6.3 1-.2.1-.4.3-.7.3zM38.3 20.8H2.4c-.2 0-.4-.1-.5-.2-.1-.1-.2-.3-.2-.5l.2-5.6c0-3.2 1.4-6.3 3.9-8.8C9.4 2 14.7 0 20.4 0h.1c10.1 0 18.6 6.6 18.6 14.4l-.1 5.7c.1.4-.3.7-.7.7zM3.2 19.3l34.4.1v-4.9c0-6.9-8-12.9-17.1-12.9h-.1C15 1.6 10.1 3.5 6.8 6.7c-2.3 2.3-3.5 5-3.5 7.8l-.1 4.8zm35.2-4.9z"/><path class="st0" d="M40.8 27.8c-1.7 0-3.2 0-4-.1-.1 0-.2 0-.3-.1L31.6 25H.8c-.3 0-.5-.1-.6-.4-.1-.2-.2-.5 0-.7l2.1-4.2c.2-.4.6-.5 1-.3s.5.6.3 1L2 23.5h29.9c.1 0 .3 0 .4.1l4.8 2.6c3.6.1 7.8.1 9.4-.2-1.2-1.1-5-3.4-8.4-5.3-.4-.2-.5-.7-.3-1 .2-.4.7-.5 1-.3 6.3 3.4 9.5 5.7 9.6 6.8 0 .3-.1.7-.4.9-1 .6-4.3.7-7.2.7zM6.6 13.8h-.2c-.4-.1-.6-.5-.5-.9 1.3-5.3 6.6-7.7 6.8-7.8.4-.2.8 0 1 .4.2.4 0 .8-.4 1 0 0-4.8 2.2-5.9 6.8-.1.3-.4.5-.8.5z"/></svg>