<svg id="_x31_._Index_copy_2" xmlns="http://www.w3.org/2000/svg" viewBox="0 0 42.8 38.8"><style>.st0{fill:#313131}.st1{fill:none;stroke:#313131;stroke-width:1.5;stroke-linecap:round;stroke-linejoin:round;stroke-miterlimit:10}</style><path class="st0" d="M41.9 29.9c-.4 0-.8-.3-.8-.8v-6.9c0-8-4.7-15.1-12.1-18.2-.4-.2-.6-.6-.4-1s.6-.6 1-.4c7.9 3.3 13 11 13 19.6v6.9c.1.5-.3.8-.7.8zM.9 32.4c-.4 0-.8-.3-.8-.8v-9.3c0-8.9 5.6-16.9 14-20 .4-.1.8.1 1 .4s-.1.8-.4 1C6.9 6.5 1.7 14 1.7 22.3v9.3c0 .4-.4.8-.8.8z"/><path class="st0" d="M38.4 28.7c-.4 0-.7-.3-.8-.7v-6.3c0-6-3.6-11.6-9.2-14.2-.4-.2-.5-.6-.4-1 .2-.4.6-.5 1-.4 6.1 2.8 10.1 8.9 10.1 15.5v6.3c.1.4-.3.8-.7.8zM4.4 24c-.4 0-.8-.3-.8-.8v-1.6c0-7.1 4.4-13.4 11.2-16 .4-.1.8 0 1 .4.1.4 0 .8-.4 1C9.2 9.4 5.2 15.1 5.2 21.6v1.6c0 .4-.4.8-.8.8zM14.8 37.5h-.3c-.4 0-.7-.3-.7-.7l-.1-2.2V24.1c0-.4.3-.7.7-.7.2 0 2.2-.2 3.3.9.6.5.9 1.2.9 2v8.9c-.1.1-.5 2.3-3.8 2.3zm.3-3l.1 1.5c1.4-.1 1.7-.8 1.8-1v-8.7c0-.4-.1-.7-.4-.9-.4-.3-1-.5-1.5-.5v9.6zM41.9 35.6c-.4 0-.8-.3-.8-.8v-6.2c0-.4.3-.8.8-.8s.8.3.8.8v6.2c0 .5-.3.8-.8.8z"/><path class="st0" d="M4.4 36.3H.8c-.5 0-.8-.3-.8-.8v-12c0-.4.3-.8.8-.8s.8.3.8.8v11.3h2.2V23.5c0-.4.3-.8.8-.8s.8.3.8.8v12.1c-.2.4-.6.7-1 .7zM42.1 36.3h-3.7c-.4 0-.8-.3-.8-.8v-12c0-.4.3-.8.8-.8s.8.3.8.8v11.3h2.2V23.5c0-.4.3-.8.8-.8s.8.3.8.8v12.1c-.2.4-.5.7-.9.7z"/><path class="st0" d="M7.2 34.6H4.4c-.4 0-.8-.3-.8-.8V27c0-.4.3-.8.8-.8h2.8c.4 0 .8.3.8.8v6.8c0 .5-.4.8-.8.8zm-2.1-1.5h1.3v-5.3H5.1v5.3z"/><path class="st0" d="M14.4 38.8h-4.3c-2 0-3.6-1.6-3.6-3.6V26c0-2.4 1.9-4.3 4.3-4.3h3.6c.4 0 .8.3.8.8v15.6c0 .4-.4.7-.8.7zm-3.6-15.5c-1.6 0-2.8 1.3-2.8 2.8v9.2c0 1.1.9 2.1 2.1 2.1h3.6V23.3h-2.9zM27.8 37.3c-.7 0-2-.1-2.9-.9-.6-.5-.9-1.2-.9-2v-8.8-.1c0-.1.4-2.5 4-2.3.4 0 .7.3.7.7l.1 2.2v10.4c0 .4-.3.7-.7.7.1.1-.1.1-.3.1zm-2.2-11.7v8.7c0 .4.1.7.4.9.4.3 1 .5 1.5.5V26l-.1-1.5c-1.5.2-1.8.9-1.8 1.1zM38.2 34.3h-2.8c-.4 0-.8-.3-.8-.8v-6.8c0-.4.3-.8.8-.8h2.8c.4 0 .8.3.8.8v6.8c0 .5-.4.8-.8.8zm-2.1-1.5h1.3v-5.3h-1.3v5.3z"/><path class="st0" d="M31.8 38.8h-3.6c-.4 0-.8-.3-.8-.8V22.5c0-.4.3-.8.8-.8h4.3c2 0 3.6 1.6 3.6 3.6v9.2c0 2.4-2 4.3-4.3 4.3zm-2.9-1.5h2.8c1.6 0 2.8-1.3 2.8-2.8v-9.2c0-1.1-.9-2.1-2.1-2.1h-3.6v14.1zM27 8.1h-9.9C15.3 8.1 14 6.7 14 5V3.1C14 1.4 15.3 0 17.1 0H27c1.7 0 3.1 1.4 3.1 3.1V5c0 1.7-1.4 3.1-3.1 3.1zm-9.9-6.6c-.9 0-1.6.7-1.6 1.6V5c0 .9.7 1.6 1.6 1.6H27c.9 0 1.6-.7 1.6-1.6V3.1c0-.9-.7-1.6-1.6-1.6h-9.9z"/></svg>