<svg id="technical_page" xmlns="http://www.w3.org/2000/svg" viewBox="0 0 31.4 27.7"><style>.st0{fill:#313131}</style><path class="st0" d="M.8 16.5c-.2 0-.4-.1-.5-.2-.3-.3-.3-.8 0-1.1L15.4.2c.3-.3.8-.3 1.1 0l14.9 14.9c.3.3.3.8 0 1.1-.3.3-.8.3-1.1 0L15.8 1.8 1.3 16.3c-.2.1-.4.2-.5.2z"/><path class="st0" d="M13.2 27.7h-8c-.4 0-.8-.3-.8-.8V15.3c0-.4.3-.8.8-.8s.8.3.8.8v10.9h7.3c.4 0 .8.3.8.8s-.5.7-.9.7zM26.2 27.7h-7.5c-.4 0-.8-.3-.8-.8s.3-.8.8-.8h6.8V15.3c0-.4.3-.8.8-.8s.8.3.8.8V27c-.1.4-.4.7-.9.7z"/><path class="st0" d="M18.7 27.7c-.4 0-.8-.3-.8-.8V20H14v7c0 .4-.3.8-.8.8s-.8-.3-.8-.8v-7.7c0-.4.3-.8.8-.8h5.4c.4 0 .8.3.8.8V27c.1.4-.3.7-.7.7zM23.6 9.3c-.4 0-.8-.3-.8-.8V2.7h-1.4v2.9c0 .4-.3.8-.8.8S20 6 20 5.6V2c0-.4.3-.8.8-.8h2.9c.4 0 .8.3.8.8v6.6c-.1.4-.5.7-.9.7z"/></svg>