<svg id="Isolation_Mode" xmlns="http://www.w3.org/2000/svg" viewBox="0 0 14.9 14.9"><style>.st0{fill:#fff}</style><path class="st0" d="M10.8 0H4.1C1.8 0 0 1.8 0 4.1v6.7c0 2.3 1.8 4.1 4.1 4.1h6.7c2.3 0 4.1-1.8 4.1-4.1V4.1C14.9 1.8 13 0 10.8 0zm2.7 10.8c0 1.5-1.2 2.8-2.8 2.8H4.1c-1.5 0-2.8-1.2-2.8-2.8V4.1c0-1.5 1.2-2.8 2.8-2.8h6.7c1.5 0 2.8 1.2 2.8 2.8l-.1 6.7z"/><path class="st0" d="M7.4 3.6c-2.1 0-3.8 1.7-3.8 3.8 0 2.1 1.7 3.8 3.8 3.8s3.8-1.7 3.8-3.8c.1-2.1-1.7-3.8-3.8-3.8zm0 6.3C6 9.9 4.9 8.8 4.9 7.4S6 4.9 7.4 4.9 9.9 6 9.9 7.4 8.8 9.9 7.4 9.9zM11.4 2.5c-.3 0-.5.1-.7.3-.2.2-.3.4-.3.7 0 .3.1.5.3.7.2.2.4.3.7.3.3 0 .5-.1.7-.3.2-.2.3-.4.3-.7 0-.3-.1-.5-.3-.7-.2-.2-.4-.3-.7-.3z"/></svg>