<svg id="technical_page" xmlns="http://www.w3.org/2000/svg" viewBox="0 0 26.6 26.6"><style>.st0{fill:#c4c4c4}</style><path class="st0" d="M13.3 26.6C6 26.6 0 20.7 0 13.3S6 0 13.3 0s13.3 6 13.3 13.3-5.9 13.3-13.3 13.3zm0-25.1C6.8 1.5 1.5 6.8 1.5 13.3s5.3 11.8 11.8 11.8 11.8-5.3 11.8-11.8S19.8 1.5 13.3 1.5z"/><path class="st0" d="M18.4 10.9c-.7 0-1.3-.6-1.3-1.3s.6-1.3 1.3-1.3 1.3.6 1.3 1.3-.6 1.3-1.3 1.3zm0-1.5c-.1 0-.2.1-.2.2 0 .2.4.2.4 0 0-.1-.1-.2-.2-.2zM8.2 10.9c-.7 0-1.3-.6-1.3-1.3s.6-1.3 1.3-1.3 1.3.6 1.3 1.3-.6 1.3-1.3 1.3zm0-1.5c-.1 0-.2.1-.2.2 0 .2.4.2.4 0 0-.1-.1-.2-.2-.2zM13.4 19.9c-3.6 0-6.2-2.6-6.3-2.7-.3-.3-.3-.8 0-1.1.3-.3.8-.3 1.1 0 .2.2 4.9 4.9 10.2 0 .3-.3.8-.3 1.1 0 .3.3.3.8 0 1.1-2.2 2-4.3 2.7-6.1 2.7z"/></svg>