<svg id="Isolation_Mode" xmlns="http://www.w3.org/2000/svg" viewBox="0 0 197.8 61.1"><style>.st0{fill:#ee5655}.st1{fill:#0d0a0b}</style><path class="st0" d="M54.2 17.5c0-1.5-.8-3-2.1-3.8L29.5.7c-1.5-.9-3.3-.9-4.8 0l-22.6 13C.8 14.5.1 16 0 17.5v26.3c.1 1.5.9 2.9 2.2 3.7l22.5 13c1.5.9 3.3.9 4.8 0l22.5-13c1.3-.8 2.1-2.2 2.2-3.7V17.7v-.2zm-41.9 1.7c-1.4.8-2.3 2.3-2.4 4v23l-2.5-1.4h-.1-.1c-.7-.4-1.3-1-1.7-1.7-.4-.7-.6-1.5-.6-2.4V20.5c0-.5.1-1.1.3-1.5.4-1.1 1.1-2 2.1-2.6l17.3-10c1.5-.9 3.3-.9 4.8 0h.1L32 7.8 12.3 19.2zm9.8 5.7c-1.5.9-2.4 2.4-2.4 4.2v22.8l-2.5-1.4-2.4-1.5V26.2 26c.1-1.6 1-3.2 2.4-4h.1L37 10.6l2.5 1.4.9.5 1.6.9-19.9 11.5zM39.4 49l-2.5 1.4-2.5 1.4V37.6c0-1.7.9-3.3 2.4-4.2l2.5-1.5V49zm9.8-8.4c0 .9-.2 1.7-.6 2.4-.4.7-1 1.3-1.7 1.7l-.1.1-2.5 1.4V34.8l4.9-2.8v8.6zm0-20l-17.3 10c-1.5.9-2.4 2.4-2.4 4.2v20h-.1c-1.5.9-3.3.9-4.8 0V31.9c0-1.7.9-3.3 2.4-4.2h.1l19.7-11.4c1 .6 1.8 1.5 2.1 2.6.2.5.3 1.1.3 1.7z"/><path class="st1" d="M104.4 18.2c-3.3 0-5.1 1.6-5.1 4.8 0 3.2 1.8 4.8 5.1 4.8s5.1-1.6 5.1-4.8c.1-3.2-1.8-4.8-5.1-4.8zm0 7.7c-1.5 0-2.2-.9-2.2-2.9s.7-2.9 2.2-2.9c1.5 0 2.2.8 2.2 2.9 0 2-.7 2.9-2.2 2.9zM116.8 18.2c-1.2 0-2.2.4-3 1v-.3c0-.3-.2-.5-.5-.5h-2c-.1 0-.2.1-.2.2v11.7c0 .1.1.2.2.2h1.7c.6 0 1-.5 1-1v-2.1c.7.2 1.4.4 2.4.4 2.7 0 4.6-1.6 4.6-4.8.1-3.2-1.8-4.8-4.2-4.8zm-.9 7.6c-.4 0-1.1-.1-1.8-.3V21c.6-.4 1.4-.8 2-.8 1.4 0 2 .9 2 2.8s-.6 2.8-2.2 2.8zM131.8 18.3h-2.4c-.3 0-.8.3-1 .6l-3 5.5v-5.1c0-.6-.5-1-1-1h-1.6c-.1 0-.2.1-.2.2V27c0 .3.2.5.5.5h2.4c.3 0 .8-.3 1-.6l3-5.5v5.1c0 .6.5 1 1 1h1.6c.1 0 .2-.1.2-.2v-8.5c0-.2-.2-.5-.5-.5zM134.5 20.4h2.2v6.8c0 .3.2.5.5.5h1.4c.6 0 1-.5 1-1v-6.2h2.2c.6 0 1-.5 1-1v-.8c0-.1-.1-.2-.2-.2h-8.9c-.1 0-.2.1-.2.2v.8c0 .4.5.9 1 .9zM156.7 27.4v-8c0-.6-.5-1-1-1h-2.4c-.3 0-.6.3-.8.6l-2.1 5.1-2.1-5.1c-.2-.4-.4-.6-.8-.6h-2.4c-.6 0-1 .5-1 1v8c0 .1.1.2.2.2h1.6c.6 0 1-.5 1-1v-4.8l2.2 5.2c.2.3.4.6.8.6h.8c.4 0 .6-.2.8-.6l2.2-5.2v4.8c0 .6.5 1 1 1h1.6c.3 0 .4-.1.4-.2zM77.4 27.4V15.9c0-.3-.2-.5-.5-.5h-4.8c-2.5 0-4.9.6-5.6 3.3l-1 3.8-1.3 4.8c0 .2.1.3.2.3h2.2c.4 0 .8-.3 1-.7v-.1l.6-2.1h6v1.8c0 .6.5 1.1 1.1 1.1h1.8c.2 0 .3-.1.3-.2zm-3.2-5.1h-5.4l.7-2.7c.3-1 1.1-1.7 2.2-1.7h2.4v4.4zM89.4 27.4v-8.5c0-.3-.2-.5-.5-.5h-4c-1.8 0-3.6.4-4.2 2.3 0 .1 0 .2-.1.2l-1.4 5.7-.1.5-.1.2c0 .2.1.3.2.3h2c.3 0 .7-.3.8-.6l1.3-5.4c.2-.9.7-1.3 1.5-1.3h1.6v6.2c0 .6.5 1 1 1h1.7c.2.1.3 0 .3-.1zM98.3 18.3H92c-.3 0-.5.2-.5.5v8.5c0 .1.1.2.2.2h1.7c.6 0 1-.5 1-1v-6.2h3.9c.3 0 .5-.2.5-.5v-1c.1-.2-.2-.5-.5-.5zM71.6 37.7h-4.2v-2.1h7.2c.4 0 .8-.3.8-.8V34c0-.5-.4-.8-.8-.8h-9.3c-.6 0-1 .5-1 1v10.1c0 .6.5 1 1 1h6.4c2.6 0 4.6-1.2 4.6-3.9-.1-2.5-2.1-3.7-4.7-3.7zm0 5.3h-4.2v-2.9h4.2c.9 0 1.4.5 1.4 1.5 0 .9-.5 1.4-1.4 1.4zM82.2 35.9c-3.1 0-5 1.7-5 4.8 0 3.1 1.9 4.8 5 4.8 2.8 0 4.6-.6 4.6-2.4 0-.3-.2-.5-.5-.5H85c-.4 0-.8.2-1 .5-.3.4-.9.6-1.7.6-1.4 0-2.1-.6-2.2-2H86c.6 0 1-.5 1-1 .2-3.1-1.7-4.8-4.8-4.8zm-1.9 4c.1-1.3.7-2 2-2s1.9.7 2 2h-4zM96.4 40.5c.9-.4 1.2-1.1 1.2-2 0-1.8-1.6-2.6-3.9-2.6H92c-2 0-3.8 1-3.8 2.6 0 .3.2.5.5.5H90c.5 0 .7-.2.9-.6.2-.4.7-.6 1.1-.6h1.6c.8 0 1.1.4 1.1.9s-.3.9-1.1.9h-2c-.3 0-.5.2-.5.5v.9c0 .3.2.5.5.5h2.1c.8 0 1.2.4 1.2 1s-.4 1-1.2 1H92c-.5 0-1-.2-1.3-.6-.2-.3-.4-.6-.9-.6h-1.3c-.3 0-.5.2-.5.5 0 1.6 1.8 2.6 4 2.6h1.9c2.5 0 4-.8 4-2.7 0-1-.6-1.7-1.5-2.2zM104 35.9c-3.3 0-5.1 1.6-5.1 4.8 0 3.2 1.8 4.8 5.1 4.8s5.1-1.6 5.1-4.8c0-3.1-1.8-4.8-5.1-4.8zm0 7.8c-1.5 0-2.2-.9-2.2-2.9s.7-2.9 2.2-2.9c1.5 0 2.2.8 2.2 2.9 0 2-.7 2.9-2.2 2.9zM119.8 36.1h-8.6c-.3 0-.5.2-.5.5v8.3c0 .3.2.5.5.5h1.4c.6 0 1-.5 1-1v-6.2h3.7v6.2c0 .6.5 1 1 1h1.4c.3 0 .5-.2.5-.5v-8.3c.1-.3-.1-.5-.4-.5zM127.2 35.9c-2.8 0-4.6.6-4.6 2.5 0 .3.2.5.5.5h1.3c.4 0 .7-.2 1-.4.3-.4.9-.6 1.6-.6 1.2 0 1.7.4 1.7 1.8h-2.8c-2.3 0-4 1-4 3s1.7 3 4 3c1.3 0 2.3-.4 3.1-1v.3c0 .3.2.5.5.5h1.1c.6 0 1-.5 1-1v-4.7c0-2.8-1.9-3.9-4.4-3.9zm1.5 7c-.6.4-1.5.8-2.5.8-.9 0-1.4-.4-1.4-1.1 0-.6.5-1 1.3-1h2.6v1.3zM142.6 42.1h-1.3c-.4 0-.7.2-1 .6-.3.5-.9.8-1.8.8-1.7 0-2.3-.9-2.3-2.8s.6-2.8 2.2-2.8c.9 0 1.5.3 1.8.8.2.4.5.6 1 .6h1.3c.3 0 .5-.2.5-.5 0-2-1.8-3-4.8-3-3.2 0-5 1.6-5 4.8 0 3.2 1.8 4.8 5.1 4.8 3 0 4.8-1 4.8-3 0-.1-.2-.3-.5-.3zM153.6 36.1h-1.4c-.6 0-1 .5-1 1v2.5h-3.7v-2.5c0-.6-.5-1-1-1H145c-.3 0-.5.2-.5.5v8.3c0 .3.2.5.5.5h1.4c.6 0 1-.5 1-1v-2.7h3.7v2.7c0 .6.5 1 1 1h1.4c.3 0 .5-.2.5-.5v-8.3c.1-.3-.1-.5-.4-.5zM160.8 35.9c-3.3 0-5.1 1.6-5.1 4.8 0 3.2 1.8 4.8 5.1 4.8s5.1-1.6 5.1-4.8c.1-3.1-1.8-4.8-5.1-4.8zm0 7.8c-1.5 0-2.2-.9-2.2-2.9s.7-2.9 2.2-2.9 2.2.8 2.2 2.9c0 2-.7 2.9-2.2 2.9zM176.4 42.1h-1.3c-.4 0-.7.2-1 .6-.3.5-.9.8-1.8.8-1.7 0-2.3-.9-2.3-2.8s.6-2.8 2.2-2.8c.9 0 1.5.3 1.8.8.2.4.5.6 1 .6h1.3c.3 0 .5-.2.5-.5 0-2-1.8-3-4.8-3-2.7 0-5 2.2-5 4.9 0 3.1 1.9 4.7 5.1 4.7 3 0 4.8-1 4.8-3 0-.1-.2-.3-.5-.3zM186.4 36.1H178c-.3 0-.5.2-.5.5v.5c0 .6.5 1 1 1h2.2v6.7c0 .3.2.5.5.5h1.4c.6 0 1-.5 1-1v-6.2h2.2c.6 0 1-.5 1-1v-.5c.1-.3-.2-.5-.4-.5zM196.7 36.1h-1.9c-.3 0-.8.3-1 .6l-3 5.5v-5.1c0-.6-.5-1-1-1h-1.3c-.3 0-.5.2-.5.5v7.8c0 .6.5 1 1 1h1.9c.4 0 .8-.3 1-.6l3-5.5v5.1c0 .6.5 1 1 1h1.3c.3 0 .5-.2.5-.5v-7.8c.1-.5-.4-1-1-1z"/></svg>