<svg id="Isolation_Mode" xmlns="http://www.w3.org/2000/svg" viewBox="0 0 134.8 41.6"><style>.st0{fill:#939393}</style><path class="st0" d="M36.9 11.9c0-1.1-.6-2-1.4-2.6L20.1.4c-1-.6-2.3-.6-3.3 0L1.4 9.3C.6 9.9 0 10.9 0 11.9V29.8c.1 1 .6 2 1.5 2.5l15.3 8.9c1 .6 2.3.6 3.3 0l15.3-8.9c.9-.6 1.4-1.5 1.5-2.5V12v-.1zM8.4 13.1c-1 .6-1.6 1.6-1.6 2.7v15.7l-1.7-1c-.5-.3-.9-.7-1.1-1.2-.3-.5-.4-1-.4-1.6V14c0-.4.1-.7.2-1.1.3-.7.8-1.4 1.5-1.8l11.8-6.8c1-.6 2.3-.6 3.3 0l1.7 1-13.7 7.8zm6.7 3.9c-1 .6-1.6 1.7-1.6 2.8v15.6l-1.7-1-1.7-1V17.9v-.1c0-1.1.7-2.2 1.6-2.7h.1l13.4-7.8 1.7 1 .6.3 1.1.6L15.1 17zm11.8 16.4l-1.7 1-1.7 1v-9.7c0-1.2.6-2.2 1.6-2.8l1.7-1v11.5zm6.7-5.8c0 .6-.2 1.1-.4 1.6-.3.5-.7.9-1.1 1.2l-.1.1-1.7 1v-7.8l3.4-1.9v5.8zm0-13.6l-11.8 6.8c-1 .6-1.6 1.7-1.6 2.8v13.6c-1 .6-2.3.6-3.3 0V21.7c0-1.2.6-2.3 1.6-2.8l13.4-7.8c.7.4 1.2 1 1.5 1.8.1.4.2.7.2 1.1zM71.2 12.4c-2.2 0-3.5 1.1-3.5 3.3 0 2.2 1.3 3.3 3.5 3.3s3.5-1.1 3.5-3.3c0-2.2-1.3-3.3-3.5-3.3zm0 5.2c-1 0-1.5-.6-1.5-2s.5-2 1.5-2 1.5.6 1.5 2c0 1.5-.5 2-1.5 2zM79.6 12.4c-.8 0-1.5.3-2 .7v-.2c0-.2-.1-.3-.3-.3H76c-.1 0-.2.1-.2.2v8c0 .1.1.2.2.2h1.1c.4 0 .7-.3.7-.7v-1.4c.5.2 1 .3 1.7.3 1.8 0 3.1-1.1 3.1-3.3-.1-2.4-1.3-3.5-3-3.5zm-.6 5.2c-.3 0-.8-.1-1.3-.2v-3c.4-.3.9-.5 1.4-.5.9 0 1.3.6 1.3 1.9.1 1.2-.3 1.8-1.4 1.8zM89.8 12.5h-1.6c-.2 0-.5.2-.7.4l-2 3.7v-3.5c0-.4-.3-.7-.7-.7h-1.1c-.1 0-.2.1-.2.2v5.8c0 .2.2.4.4.4h1.6c.2 0 .5-.2.7-.4l2-3.7v3.4c0 .4.3.7.7.7H90c.1 0 .2-.1.2-.2v-5.8c0-.1-.2-.3-.4-.3zM91.7 13.9h1.5v4.6c0 .2.1.3.3.3h1c.4 0 .7-.3.7-.7v-4.2h1.5c.4 0 .7-.3.7-.7v-.5c0-.1-.1-.2-.2-.2h-6.1c-.1 0-.2.1-.2.2v.5c.1.4.4.7.8.7zM106.8 18.7v-5.5c0-.4-.3-.7-.7-.7h-1.6c-.2 0-.4.2-.5.4l-1.4 3.4-1.4-3.4c-.1-.2-.3-.4-.5-.4H99c-.4 0-.7.3-.7.7v5.5c0 .1.1.2.2.2h1.1c.4 0 .7-.3.7-.7v-3.3l1.5 3.6c.1.2.3.4.5.4h.6c.2 0 .4-.2.5-.4l1.5-3.6v3.3c0 .4.3.7.7.7h1.1c0-.1.1-.1.1-.2zM52.8 18.7v-7.8c0-.2-.1-.3-.3-.3h-3.3c-1.7 0-3.4.4-3.8 2.3l-.7 2.6-.9 3.3c0 .1.1.2.2.2h1.5c.3 0 .6-.2.7-.5v-.1l.4-1.5h4.1v1.2c0 .4.3.8.8.8h1.3c-.1-.1 0-.1 0-.2zm-2.2-3.5h-3.7l.5-1.9c.2-.7.8-1.2 1.5-1.2h1.6v3.1zM60.9 18.7v-5.8c0-.2-.2-.3-.3-.3h-2.7c-1.2 0-2.4.3-2.9 1.6v.2l-1 3.9-.1.4v.2c0 .1.1.2.2.2h1.4c.2 0 .5-.2.5-.4l.9-3.7c.2-.6.5-.9 1-.9H59v4.2c0 .4.3.7.7.7h1.1c.1-.2.1-.2.1-.3zM67 12.5h-4.4c-.2 0-.3.2-.3.3v5.8c0 .1.1.2.2.2h1.1c.4 0 .7-.3.7-.7v-4.2H67c.2 0 .4-.2.4-.4v-.7c0-.1-.2-.3-.4-.3zM48.8 25.7H46v-1.4h4.9c.3 0 .5-.2.5-.5v-.6c0-.3-.2-.5-.5-.5h-6.4c-.4 0-.7.3-.7.7v6.9c0 .4.3.7.7.7h4.3c1.8 0 3.2-.8 3.2-2.6 0-1.9-1.4-2.7-3.2-2.7zm0 3.6H46v-2h2.9c.6 0 1 .3 1 1-.1.7-.5 1-1.1 1zM56.1 24.5c-2.1 0-3.4 1.2-3.4 3.3 0 2.1 1.3 3.3 3.4 3.3 1.9 0 3.2-.4 3.2-1.7 0-.2-.2-.4-.4-.4H58c-.3 0-.5.1-.7.3-.2.2-.6.4-1.1.4-1 0-1.4-.4-1.5-1.4h4c.4 0 .7-.3.7-.7 0-2-1.2-3.1-3.3-3.1zm-1.4 2.7c0-.9.5-1.4 1.4-1.4.9 0 1.3.5 1.3 1.4h-2.7zM65.7 27.6c.6-.3.8-.7.8-1.4 0-1.2-1.1-1.8-2.7-1.8h-1.2c-1.4 0-2.6.7-2.6 1.8 0 .2.2.3.4.3h.9c.3 0 .5-.2.6-.4.2-.3.5-.4.7-.4h1.1c.5 0 .8.3.8.6 0 .4-.2.6-.8.6h-1.3c-.2 0-.3.2-.3.3v.8c0 .2.2.3.3.3h1.4c.6 0 .8.3.8.7 0 .4-.3.7-.8.7h-1.2c-.4 0-.7-.1-.9-.4-.1-.2-.3-.4-.6-.4h-.9c-.2 0-.3.1-.3.3 0 1.1 1.2 1.8 2.7 1.8H64c1.7 0 2.7-.5 2.7-1.8.1-.8-.4-1.3-1-1.6zM70.9 24.5c-2.2 0-3.5 1.1-3.5 3.3 0 2.2 1.3 3.3 3.5 3.3s3.5-1.1 3.5-3.3c0-2.2-1.3-3.3-3.5-3.3zm0 5.3c-1 0-1.5-.6-1.5-2s.5-2 1.5-2 1.5.6 1.5 2-.5 2-1.5 2zM81.7 24.6h-5.8c-.2 0-.3.2-.3.3v5.6c0 .2.2.4.4.4h1c.4 0 .7-.3.7-.7V26H80v4.2c0 .4.3.7.7.7h1c.2 0 .4-.2.4-.4V25c-.1-.2-.2-.4-.4-.4zM86.7 24.5c-1.9 0-3.2.4-3.2 1.7 0 .2.2.3.4.3h.9c.3 0 .5-.1.7-.3.2-.3.6-.4 1.1-.4.8 0 1.2.3 1.2 1.2h-1.9c-1.6 0-2.7.7-2.7 2s1.2 2 2.7 2c.9 0 1.6-.3 2.1-.7v.2c0 .2.2.3.3.3h.7c.4 0 .7-.3.7-.7V27c0-1.8-1.3-2.5-3-2.5zm1 4.7c-.4.3-1 .5-1.7.5-.6 0-.9-.3-.9-.7 0-.4.3-.7.9-.7h1.8v.9zM97.2 28.7h-.9c-.3 0-.5.2-.7.4-.2.3-.6.5-1.2.5-1.2 0-1.6-.6-1.6-1.9 0-1.3.4-1.9 1.5-1.9.6 0 1 .2 1.2.5.2.3.4.4.7.4h.9c.2 0 .4-.2.4-.4 0-1.4-1.2-2-3.3-2-2.2 0-3.4 1.1-3.4 3.3 0 2.2 1.2 3.3 3.5 3.3 2 0 3.3-.7 3.3-2 0 0-.2-.2-.4-.2zM104.7 24.6h-1c-.4 0-.7.3-.7.7V27h-2.5v-1.7c0-.4-.3-.7-.7-.7h-1c-.2 0-.3.2-.3.3v5.6c0 .2.2.3.3.3h1c.4 0 .7-.3.7-.7v-1.8h2.5v1.8c0 .4.3.7.7.7h1c.2 0 .3-.2.3-.3V25c.1-.2-.1-.4-.3-.4zM109.6 24.5c-2.2 0-3.5 1.1-3.5 3.3 0 2.2 1.3 3.3 3.5 3.3s3.5-1.1 3.5-3.3c0-2.2-1.2-3.3-3.5-3.3zm0 5.3c-1 0-1.5-.6-1.5-2s.5-2 1.5-2 1.5.6 1.5 2-.5 2-1.5 2zM120.3 28.7h-.9c-.3 0-.5.2-.7.4-.2.3-.6.5-1.2.5-1.2 0-1.6-.6-1.6-1.9 0-1.3.4-1.9 1.5-1.9.6 0 1 .2 1.2.5.2.3.4.4.7.4h.9c.2 0 .4-.2.4-.3 0-1.4-1.2-2-3.3-2-1.9 0-3.4 1.5-3.4 3.4 0 2.1 1.3 3.2 3.5 3.2 2 0 3.3-.7 3.3-2-.1-.1-.2-.3-.4-.3zM127 24.6h-5.7c-.2 0-.3.2-.3.3v.4c0 .4.3.7.7.7h1.5v4.6c0 .2.2.4.4.4h1c.4 0 .7-.3.7-.7V26h1.5c.4 0 .7-.3.7-.7V25c-.1-.2-.3-.4-.5-.4zM134.1 24.6h-1.3c-.2 0-.5.2-.7.4l-2 3.8v-3.5c0-.4-.3-.7-.7-.7h-.9c-.2 0-.3.2-.3.3v5.3c0 .4.3.7.7.7h1.3c.2 0 .5-.2.7-.4l2-3.7v3.5c0 .4.3.7.7.7h.9c.2 0 .3-.2.3-.3v-5.3c0-.5-.3-.8-.7-.8z"/></svg>