<svg id="_x31_._Index_copy_2" xmlns="http://www.w3.org/2000/svg" viewBox="0 0 20.2 20.2"><style>.st0{fill:#313131}</style><path class="st0" d="M15.1 20.2c-.3 0-.7 0-1.3-.1-.6-.1-1.4-.3-2.2-.7-.8-.4-1.8-.9-2.9-1.6-1.1-.7-2.2-1.7-3.4-2.9-.9-.9-1.7-1.8-2.4-2.7-.6-.9-1.1-1.7-1.5-2.4-.4-.7-.7-1.4-.9-2C.3 7.2.2 6.6.1 6.2 0 5.7 0 5.3 0 5v-.4c0-.4.1-.6.3-.9.1-.3.3-.5.5-.7L3.4.4C4-.1 4.9-.2 5.5.3c.2.1.3.3.5.6L8.1 5c.2.4.3.8.2 1.2-.1.3-.3.7-.5.9l-.8.8c0 .2.1.4.2.6.1.3.4.6.7 1.1.3.4.8.9 1.3 1.5.6.6 1.1 1 1.5 1.3.4.3.8.5 1.1.7.3.2.5.2.5.2l1-1c.7-.6 1.6-.7 2.2-.4 0 0 .1 0 .1.1l3.8 2.3c.6.4.8.8.8 1.2.1.5-.1 1-.5 1.4l-2.6 2.6c-.2.2-.4.3-.7.5-.3.1-.5.2-.8.2h-.5zM1.5 4.8v.4c0 .1 0 .4.1.8s.2.8.3 1.4c.2.5.4 1.1.8 1.8s.8 1.4 1.4 2.2c.6.8 1.3 1.6 2.2 2.5 1.1 1.1 2.2 2 3.2 2.7 1 .6 1.9 1.1 2.6 1.4.8.3 1.4.5 1.9.6 1 .2 1.1.1 1.3.1h.1c.1 0 .2-.1.3-.1.1 0 .2-.1.2-.2l2.7-2.6.1-.1s0-.1-.1-.1l-3.7-2.2s-.1 0-.1-.1c0 0-.3 0-.5.1l-1.1 1.1c-.1.1-.3.2-.4.3-.2.1-.4.1-.5.1h-.2c-.2 0-.5-.2-.9-.4-.3-.2-.8-.4-1.3-.8s-1.1-.9-1.7-1.5c-.6-.6-1.1-1.2-1.5-1.7-.4-.6-.7-1-.9-1.4-.2-.4-.3-.8-.4-1.1v-.1c0-.1 0-.2.1-.4 0-.2.1-.3.2-.5l1-1c.1 0 .1-.1.1-.2v-.2l-2.1-4-.1-.1s-.1 0-.1.1L1.8 4.2l-.2.2c0 .2-.1.3-.1.4z"/></svg>