<svg id="technical_page" xmlns="http://www.w3.org/2000/svg" viewBox="0 0 39.8 34.2"><style>.st0{fill:#313131}</style><path class="st0" d="M18.6 15.3c-.3 0-.6-.2-.7-.5L13.4 1c-.1-.2 0-.5.1-.7.2-.2.4-.3.6-.3h3.4c.3 0 .5.1.6.3l9 13.8c.2.3.1.8-.2 1-.3.2-.8.1-1-.2L17.1 1.5h-2l4.1 12.8c.1.4-.1.8-.5.9 0 .1 0 .1-.1.1zM17.5 34.2h-3.4c-.2 0-.5-.1-.6-.3-.1-.2-.2-.4-.1-.7l4.5-13.8c.1-.4.6-.6.9-.5.4.1.6.6.5.9l-4.1 12.8h2L26 19.3c.2-.3.7-.4 1-.2.3.2.4.7.2 1l-9 13.8c-.2.2-.4.3-.7.3z"/><path class="st0" d="M5.8 23.7h-5c-.3 0-.6-.2-.7-.5-.2-.2-.1-.6.1-.8l4.9-5.1-4.9-5.1c-.2-.2-.3-.5-.1-.8.1-.3.4-.5.7-.5h5.1c.2 0 .4.1.5.2l2.9 3.1h27.3c1.7 0 3.1 1.4 3.1 3.1 0 1.7-1.4 3.1-3.1 3.1H9.2l-2.9 3c-.1.2-.3.3-.5.3zm-3.3-1.5h3l2.9-3c.1-.2.3-.2.5-.2h27.7c.9 0 1.6-.7 1.6-1.6 0-.9-.7-1.6-1.6-1.6H9c-.2 0-.4-.1-.5-.2l-2.9-3.1h-3l4.2 4.3c.1.1.2.3.2.5v.1c0 .2-.1.4-.2.5l-4.3 4.3zM7.1 6.7H.8C.3 6.7 0 6.4 0 6s.3-.8.8-.8h6.4c.4 0 .8.3.8.8s-.4.7-.9.7zM10.3 3.1H3.9c-.4 0-.8-.3-.8-.8s.3-.8.8-.8h6.4c.4 0 .8.3.8.8s-.4.8-.8.8zM7.1 28.5H.8c-.4 0-.8-.3-.8-.8s.3-.7.8-.7h6.4c.4 0 .8.3.8.8s-.4.7-.9.7zM10.3 32.1H3.9c-.4 0-.8-.3-.8-.8s.3-.8.8-.8h6.4c.4 0 .8.3.8.8s-.4.8-.8.8z"/><path class="st0" d="M32.5 20.5c-.4 0-.8-.3-.8-.8v-4.8c0-.4.3-.8.8-.8s.8.3.8.8v4.8c0 .4-.4.8-.8.8zM35.6 20.5c-.4 0-.8-.3-.8-.8v-4.8c0-.4.3-.8.8-.8s.8.3.8.8v4.8c-.1.4-.4.8-.8.8z"/></svg>