<svg id="_x31_._Index_copy_2" xmlns="http://www.w3.org/2000/svg" viewBox="0 0 39.2 42.5"><style>.st0{fill:#313131}</style><path class="st0" d="M9.3 40.8c-.4 0-.8-.3-.8-.8V6.8c0-.5-.3-.8-.7-.8H6.6c-.7 0-1.2.1-1.4.4-.1.1-.2.2-.2.4V40c0 .4-.3.8-.8.8s-.7-.4-.7-.8V6.8c0-.5.2-1 .6-1.4.4-.4 1.2-.8 2.5-.8h1.1c1.2 0 2.3 1 2.3 2.3V40c0 .4-.3.8-.7.8z"/><path class="st0" d="M13.1 40.8c-.4 0-.8-.3-.8-.8V5.9c0-2.4-2-4.4-4.4-4.4-4 0-6.4 1.7-6.4 4.4V40c0 .4-.3.8-.8.8S0 40.4 0 40V5.9C0 3.2 2.1 0 7.9 0c3.3 0 5.9 2.7 5.9 5.9V40c.1.4-.3.8-.7.8z"/><path class="st0" d="M2.5 42.5C1.1 42.5 0 41.4 0 40c0-.4.3-.8.8-.8s.8.3.8.8.4 1 1 1 1-.4 1-1c0-.4.3-.8.8-.8s.6.4.6.8c0 1.4-1.1 2.5-2.5 2.5zM11.2 42.5c-1.5 0-2.7-1.1-2.7-2.5 0-.4.3-.8.8-.8s.7.4.7.8c0 .5.5 1 1.2 1s1.2-.4 1.2-1c0-.4.3-.8.8-.8s.8.3.8.8c-.1 1.4-1.3 2.5-2.8 2.5zM4 9.9c-.2 0-.3-.1-.5-.2L.6 7.3C.3 7 .2 6.6.5 6.2c.3-.3.7-.4 1.1-.1l2.9 2.4c.3.3.4.7.1 1.1-.2.2-.4.3-.6.3zM4 17.1c-.2 0-.3-.1-.5-.2L.6 14.5c-.3-.3-.4-.7-.1-1.1.3-.3.7-.4 1.1-.1l2.9 2.4c.3.3.4.7.1 1.1-.2.2-.4.3-.6.3zM4 25.6c-.2 0-.3-.1-.5-.2L.6 23c-.3-.3-.4-.7-.1-1.1.3-.3.7-.4 1.1-.1l2.9 2.4c.3.3.4.7.1 1.1-.2.2-.4.3-.6.3zM4 33.5c-.2 0-.3-.1-.5-.2L.6 31c-.3-.3-.4-.7-.1-1.1.3-.3.7-.4 1.1-.1l2.9 2.4c.3.3.4.7.1 1.1-.2.1-.4.2-.6.2zM9.6 9.9c-.2 0-.4-.1-.6-.3-.2-.3-.2-.8.1-1.1L12 6.1c.3-.3.8-.2 1.1.1.3.4.2.8-.1 1.1l-2.9 2.4c-.1.1-.3.2-.5.2zM9.6 17.1c-.2 0-.4-.1-.6-.3-.3-.3-.2-.8.1-1.1l2.9-2.4c.3-.3.8-.2 1.1.1.3.3.2.8-.1 1.1L10.1 17c-.1.1-.3.1-.5.1zM9.6 25.6c-.2 0-.4-.1-.6-.3-.3-.3-.2-.8.1-1.1l2.9-2.4c.3-.3.8-.2 1.1.1.3.3.2.8-.1 1.1l-2.9 2.4c-.1.1-.3.2-.5.2zM9.6 33.5c-.2 0-.4-.1-.6-.3-.3-.3-.2-.8.1-1.1l2.9-2.4c.3-.3.8-.2 1.1.1.3.3.2.8-.1 1.1l-2.9 2.4c-.1.2-.3.2-.5.2zM27.2 32.7c-2 0-4.9-2.7-5.8-3.6-.1-.1-.2-.3-.2-.5v-3.3c0-.4.3-.8.8-.8s.8.3.8.8v3c1.9 1.8 4.1 3.2 4.7 2.9 1.5-1 6.9-14.4 5.9-18.5-.1-.5-.4-.8-.8-1-1.5-.7-4.8.3-9.7 3v2.4c0 .4-.3.8-.8.8s-.8-.3-.8-.8v-2.9c0-.3.2-.5.4-.7l.4-.2c3.5-1.9 8.4-4.2 11.1-3.1.8.4 1.4 1 1.6 2 1.2 4.7-4.6 19.3-6.7 20.2-.3.2-.6.3-.9.3z"/><path class="st0" d="M28.5 37c-2.8 0-7.4-3.8-8.4-4.6L18 30.3c-.1-.1-.2-.3-.2-.5v-4.5c0-.4.3-.8.8-.8s.8.3.8.8v4.2l1.8 1.8c2.3 2 6.4 4.8 7.7 4.2 1.7-.8 10.3-19.7 8.7-25.8-.2-.8-.6-1.3-1.3-1.6-2.3-1-6.9.3-13.8 3.8l-.6.1-2.6 1.6v3.5c0 .4-.3.8-.8.8s-.8-.3-.8-.8v-3.9c0-.3.1-.5.4-.6l3-1.9.5-.3C26.4 8.1 33.1 5 36.8 6.7c1.1.5 1.8 1.4 2.2 2.6 1.7 6.3-6.6 26.3-9.5 27.6-.4.1-.7.1-1 .1z"/><path class="st0" d="M22.6 25.8h-4.8c-.8 0-1.5-.7-1.5-1.5V18c0-.8.7-1.5 1.5-1.5h4.8c.8 0 1.5.7 1.5 1.5v6.3c0 .8-.6 1.5-1.5 1.5zm0-1.5v.8-.8zM17.8 18v6.3h4.8V18h-4.8z"/></svg>