<svg id="technical_page" xmlns="http://www.w3.org/2000/svg" viewBox="0 0 26.6 26.6"><style>.st0{fill:#c4c4c4}</style><path class="st0" d="M13.3 26.6C6 26.6 0 20.7 0 13.3S6 0 13.3 0s13.3 6 13.3 13.3-5.9 13.3-13.3 13.3zm0-25.1C6.8 1.5 1.5 6.8 1.5 13.3s5.3 11.8 11.8 11.8 11.8-5.3 11.8-11.8S19.8 1.5 13.3 1.5z"/><path class="st0" d="M8.3 14.7c-2.1 0-3.9-1.7-3.9-3.9s1.7-3.9 3.9-3.9 3.9 1.7 3.9 3.9-1.7 3.9-3.9 3.9zm0-6.3c-1.3 0-2.4 1.1-2.4 2.4s1.1 2.4 2.4 2.4 2.4-1.1 2.4-2.4-1.1-2.4-2.4-2.4zM18 14.7c-2.1 0-3.9-1.7-3.9-3.9s1.7-3.9 3.9-3.9 3.9 1.7 3.9 3.9-1.8 3.9-3.9 3.9zm0-6.3c-1.3 0-2.4 1.1-2.4 2.4s1.1 2.4 2.4 2.4 2.4-1.1 2.4-2.4-1.1-2.4-2.4-2.4z"/><path class="st0" d="M14.3 11.6h-2.4c-.4 0-.8-.3-.8-.8s.3-.8.8-.8h2.4c.4 0 .8.3.8.8s-.3.8-.8.8zM13.4 20.3c-3.6 0-6.2-2.6-6.3-2.7-.3-.3-.3-.8 0-1.1.3-.3.8-.3 1.1 0 .2.2 4.9 4.9 10.2 0 .3-.3.8-.3 1.1 0 .3.3.3.8 0 1.1-2.2 2-4.3 2.7-6.1 2.7z"/></svg>