<svg id="_x31_._Index_copy_2" xmlns="http://www.w3.org/2000/svg" viewBox="0 0 51.1 40.8"><style>.st0{fill:#313131}</style><path class="st0" d="M28.3 34.7H16.7c-.4 0-.7-.3-.7-.7L12.3 3c-.1-.8.2-1.6.7-2.1.5-.6 1.2-.9 2-.9h15.9c.8 0 1.6.3 2.1 1s.8 1.4.6 2.2L29 34c-.1.4-.4.7-.7.7zm-10.9-1.5h10.2l4.6-30.3c.1-.4-.1-.7-.3-1-.2-.3-.6-.4-.9-.4H15c-.4 0-.7.1-.9.4-.2.3-.3.6-.3 1l3.6 30.3z"/><path class="st0" d="M27.3 40.4h-9.7c-.9 0-1.6-.7-1.6-1.6V34c0-.4.3-.8.8-.8h11.4c.4 0 .8.3.8.8v4.8c-.1.9-.8 1.6-1.7 1.6zm-9.8-5.6v4.1c0 .1.1.1.1.1h9.7c.1 0 .1-.1.1-.1v-4.1h-9.9zM27.6 12.9h-9.7c-.4 0-.8-.3-.8-.8V4.8c0-.4.3-.8.8-.8h9.7c.4 0 .8.3.8.8v7.4c-.1.4-.4.7-.8.7zm-8.9-1.5h8.2V5.5h-8.2v5.9zM9.5 37H2.6c-.4 0-.7-.3-.7-.7L0 16.2c0-.2.1-.4.2-.6.1-.2.3-.2.6-.2H12c.2 0 .4.1.6.3.1.2.2.4.2.6l-2.4 20.1c-.2.3-.5.6-.9.6zm-6.3-1.5h5.6L11 16.9H1.6l1.6 18.6z"/><path class="st0" d="M9.5 40.7H2.6c-.6 0-1-.4-1-1v-3.4c0-.6.4-1 1-1h6.9c.6 0 1 .4 1 1v3.4c0 .5-.5 1-1 1zm-5.9-2h4.9v-1.4H3.6v1.4zM8.1 25.6H3.8c-.4 0-.8-.3-.8-.8v-4.6c0-.4.3-.8.8-.8h4.3c.4 0 .8.3.8.8v4.6c0 .5-.4.8-.8.8zm-3.5-1.5h2.8V21H4.6v3.1zM48.4 40.8H35.7c-1.5 0-2.7-1.2-2.7-2.7l2.1-21.7c0-1.4 1.2-2.6 2.7-2.6h8.5c1.5 0 2.7 1.2 2.7 2.7L51.1 38c0 1.5-1.2 2.8-2.7 2.8zM37.8 15.2c-.7 0-1.2.5-1.2 1.2l-2.1 21.7c0 .6.5 1.1 1.2 1.1h12.7c.7 0 1.2-.5 1.2-1.2l-2.1-21.5c0-.7-.5-1.3-1.2-1.3h-8.5z"/><path class="st0" d="M43.3 15.2h-2.1c-.6 0-1.1-.5-1.1-1.1V9.5c0-.4.3-.8.8-.8s.8.3.8.8v4.2h1.4v-3.5c0-.4.3-.8.8-.8s.8.3.8.8V14c-.3.6-.8 1.2-1.4 1.2z"/><path class="st0" d="M34.5 11.5c-.2 0-.5-.1-.6-.3-.2-.3-.2-.7.1-1 5.5-5.4 9.9-4.8 11.2-4.4 1.4.4 2 1.1 2.2 1.7.4.9.3 1.9 0 2.5-.5 1.1-1.6 1.2-2.2 1-.1 0-.2-.1-.3-.1-3.3-2.7-10.1.5-10.2.6h-.2zm11.3-1.9c.2 0 .2-.1.3-.1.1-.3.2-.9 0-1.3s-.6-.7-1.3-.9c-.8-.3-3.2-.6-6.4 1.4 2.4-.6 5.4-.7 7.4.9zM45.8 36.8H34.2c-.6 0-1-.4-1-1s.4-1 1-1h11.6c.6 0 1 .4 1 1s-.4 1-1 1z"/></svg>