<svg id="technical_page" xmlns="http://www.w3.org/2000/svg" viewBox="0 0 52.2 29.2"><style>.st0{fill:#313131}</style><path class="st0" d="M51.4 24.6H.8c-.4 0-.8-.3-.8-.8V4.1c0-.4.3-.7.7-.8l39.8-.1c.2 0 .4.1.5.2l10.8 10.5c.1.1.2.3.2.5v9.5c.2.4-.2.7-.6.7zM1.5 23.1h49.2v-8.4l-10.4-10-38.8.1v18.3z"/><path class="st0" d="M49.3 13.2h-17c-.4 0-.7-.3-.7-.8V7.2c0-.4.3-.8.7-.8h11.6c.4 0 .8.3.8.8s-.3.8-.8.8H33.1v3.8h16.2c.4 0 .8.3.8.8s-.4.6-.8.6zM28.2 13.2H23c-.4 0-.8-.3-.8-.8V7.2c0-.4.3-.8.8-.8h5.3c.4 0 .8.3.8.8v5.3c-.1.4-.4.7-.9.7zm-4.5-1.5h3.8V7.9h-3.8v3.8zM19.9 13.2h-5.3c-.4 0-.8-.3-.8-.8V7.2c0-.4.3-.8.8-.8h5.3c.4 0 .8.3.8.8v5.3c-.1.4-.4.7-.8.7zm-4.5-1.5h3.8V7.9h-3.8v3.8zM48.6 18.3H32.3c-.4 0-.7-.3-.7-.8s.3-.8.7-.8h16.3c.4 0 .8.3.8.8s-.4.8-.8.8zM28.9 18.3h-1.4c-.4 0-.8-.3-.8-.8s.3-.8.8-.8h1.4c.4 0 .8.3.8.8s-.3.8-.8.8zM14 1.5H3.6c-.4 0-.8-.3-.8-.8s.4-.7.8-.7H14c.4 0 .8.3.8.8s-.4.7-.8.7zM6.7 26.7c-1.5 0-2.8-1.2-2.8-2.8 0-.4.3-.8.8-.8s.8.3.8.8c0 .7.6 1.3 1.3 1.3s1.3-.6 1.3-1.3c0-.4.3-.8.8-.8s.8.3.8.8c-.3 1.5-1.5 2.8-3 2.8zM14 26.7c-1.5 0-2.8-1.2-2.8-2.8 0-.4.3-.8.8-.8s.8.3.8.8c0 .7.6 1.3 1.3 1.3s1.3-.6 1.3-1.3c0-.4.3-.8.8-.8s.8.3.8.8c-.3 1.5-1.5 2.8-3 2.8zM37.2 26.7c-1.5 0-2.8-1.2-2.8-2.8 0-.4.3-.8.8-.8s.8.3.8.8c0 .7.6 1.3 1.3 1.3s1.3-.6 1.3-1.3c0-.4.3-.8.8-.8s.8.3.8.8c-.3 1.5-1.5 2.8-3 2.8zM44.5 26.7c-1.5 0-2.8-1.2-2.8-2.8 0-.4.3-.8.8-.8s.8.3.8.8c0 .7.6 1.3 1.3 1.3s1.3-.6 1.3-1.3c0-.4.3-.8.8-.8s.8.3.8.8c-.2 1.5-1.5 2.8-3 2.8zM51.4 29.2H.8c-.4 0-.8-.3-.8-.8s.3-.8.8-.8h50.7c.4 0 .8.3.8.8s-.5.8-.9.8z"/></svg>