<svg id="Isolation_Mode" xmlns="http://www.w3.org/2000/svg" viewBox="0 0 17.3 9.9"><style>.st0{fill:#fff}</style><path class="st0" d="M17.2 8.9s0-.1-.1-.1c-.3-.5-.9-1.2-1.7-2-.4-.4-.6-.6-.7-.8-.2-.2-.2-.5-.1-.7.1-.2.3-.6.8-1.2.2-.3.4-.6.6-.8C17 1.9 17.5 1 17.4.6l-.1-.1c0-.1-.1-.1-.3-.1-.2 0-.3-.1-.6 0h-2.6H13.5s-.1 0-.1.1c0 0-.1.1-.1.2-.3.7-.6 1.4-1 2-.2.4-.4.7-.6 1-.2.3-.3.5-.5.6l-.3.3c-.1.1-.2.1-.2.1h-.2c-.1-.1-.2-.1-.2-.2-.1-.1-.1-.2-.1-.4v-.4-.4-.4-.7-.6-.5-.4c0-.1-.1-.2-.1-.3 0-.1-.1-.2-.2-.2S9.7.1 9.5.1C9.2 0 8.8 0 8.3 0 7.2 0 6.5.1 6.2.2c-.1.1-.3.2-.4.3-.1.1-.1.2 0 .2.4.1.6.2.8.4l.1.1c0 .1.1.2.1.4s.1.4.1.7v1.1c0 .3-.1.6-.1.7 0 .2-.1.3-.1.4-.1.2-.2.2-.2.3h-.2c-.1 0-.2 0-.3-.1-.2-.1-.3-.2-.5-.3-.1-.2-.2-.4-.4-.6-.2-.3-.3-.6-.5-1l-.2-.2c0-.2-.2-.5-.3-.8-.2-.3-.3-.6-.4-.9 0-.1-.1-.2-.2-.3 0 0-.1 0-.1-.1-.1 0-.1 0-.2-.1H.7C.4.4.3.5.2.6v.2c-.2.1-.2.2-.1.3.4.8.8 1.7 1.2 2.5s.7 1.3 1 1.8c.3.5.6.9 1 1.4.3.4.5.7.6.8l.3.3.2.2c.2.1.4.3.6.5.3.2.6.4 1 .6.3.2.7.4 1.2.5.4.1.8.2 1.3.1h1c.2 0 .4-.1.5-.2 0 0 0-.1.1-.2v-.2c0-.3 0-.5.1-.7 0-.2.1-.4.2-.5.1-.1.1-.2.2-.3.1-.1.1-.1.2-.1h.1c.1 0 .3 0 .5.1s.4.3.6.5c.2.2.4.4.6.7.2.3.5.5.6.6l.2.1c.1.1.3.1.5.2s.4.1.5 0h2.3c.2 0 .4 0 .5-.1l.2-.2v-.3c-.1-.2-.2-.2-.2-.3z"/></svg>