<svg id="_x31_._Index_copy_2" xmlns="http://www.w3.org/2000/svg" viewBox="0 0 58.3 43"><style>.st0{fill:#313131}</style><path class="st0" d="M42.4 43H15.9c-1.1 0-2-1.2-2-2.9V6.8c0-.4.3-.8.8-.8s.8.3.8.8v33.3c0 .9.4 1.3.5 1.4h26.5c.1 0 .5-.5.5-1.4V6.8c0-.4.3-.8.8-.8s.8.3.8.8v33.3c-.2 1.6-1.1 2.9-2.2 2.9z"/><path class="st0" d="M43.8 7.8c-.3 0-.5-.1-.7-.4-.3-.5-.3-.6-.8-.7l-.2-.1-5.6-1.9c-.4-.1-.6-.6-.5-1 .1-.4.6-.6 1-.5l5.9 2.1c.7.3 1 .5 1.5 1.4.2.4.1.8-.3 1-.1.1-.2.1-.3.1zM14.6 7.9h-.3c-.4-.1-.6-.6-.5-1 .4-1 1-1.3 1.7-1.7l6.9-2.1c.4-.1.8.1.9.5.1.4-.1.8-.5.9L16 6.6c-.5.2-.7.4-.8.8 0 .3-.3.5-.6.5z"/><path class="st0" d="M5.7 35.8c-.1 0-.3 0-.4-.1l-5-3.4c-.3-.2-.4-.6-.2-1l14-25.1c.2-.4.7-.5 1-.3.4.2.5.7.3 1L1.7 31.5 5.6 34l8.5-12c.2-.3.7-.4 1-.2.3.2.4.7.2 1l-9 12.7c-.1.2-.3.3-.6.3zM52.5 35.8c-.2 0-.5-.1-.6-.3L43 22.9c-.2-.3-.2-.8.2-1 .3-.2.8-.2 1 .2l8.5 12 3.8-2.6L42.8 7c-.2-.4-.1-.8.3-1 .4-.2.8-.1 1 .3l14 25.1c.2.3.1.8-.2 1l-5 3.4h-.4zM29.7 5.9c-.2 0-.3-.1-.5-.2l-5.3-4.1c-.3-.3-.4-.7-.1-1.1.3-.3.7-.4 1.1-.1l4.9 3.8L34.7.5c.3-.3.8-.2 1.1.1.3.3.2.8-.1 1.1l-5.3 4.1c-.4 0-.5.1-.7.1z"/><path class="st0" d="M29.7 42.8c-.4 0-.8-.3-.8-.8V5.1c0-.4.3-.8.8-.8s.8.3.8.8V42c0 .4-.4.8-.8.8zM25.1 40.4h-7.7c-.7 0-1.3-.6-1.3-1.3V30c0-.7.6-1.3 1.3-1.3h7.7c.7 0 1.3.6 1.3 1.3v9.2c-.1.7-.6 1.2-1.3 1.2zm-7.4-1.5h7.2v-8.7h-7.2v8.7z"/><path class="st0" d="M23.6 32.2H17c-.4 0-.8-.3-.8-.8s.3-.8.8-.8h6.6c.4 0 .8.3.8.8s-.4.8-.8.8zM40.2 40.4h-7.7c-.7 0-1.2-.6-1.2-1.3V30c0-.7.6-1.3 1.2-1.3h7.7c.7 0 1.3.6 1.3 1.3v9.2c-.1.7-.6 1.2-1.3 1.2zm-7.4-1.5H40v-8.7h-7.2v8.7z"/><path class="st0" d="M40.6 32.2H34c-.4 0-.8-.3-.8-.8s.3-.8.8-.8h6.6c.4 0 .8.3.8.8s-.4.8-.8.8zM27.1 7.6c-.5 0-1-.1-1.5-.4l-.1-.1-3.4-3c-.1-.1-.1-.2-.2-.3-.2-.5-.3-1.4.2-2.3.7-1 2.2-1.5 4.4-1.4h6.2c.4 0 .8.3.8.8s-.3.8-.8.8h-6.2c-2.2-.1-2.9.5-3.1.8-.2.3-.2.6-.1.8l3.2 2.9c1 .5 2.3-.4 2.9-.8.3-.2.4-.3.7-.3.4 0 .8.3.8.8 0 .3-.2.6-.5.7 0 0-.1 0-.1.1-.7 0-1.9.9-3.2.9z"/><path class="st0" d="M32.6 7.6c-1.3 0-2.6-.8-3.1-1.2l-.1-.1c-.3-.1-.4-.4-.4-.7 0-.4.3-.8.8-.8.3 0 .4.1.7.3.5.4 1.9 1.3 2.9.8l3-2.9c0-.2.1-.5-.1-.8-.2-.3-.9-.8-3.1-.8-.4 0-.7-.3-.8-.7 0-.4.3-.8.7-.8 2.2-.1 3.7.4 4.4 1.4.6.9.4 1.8.2 2.3 0 .1-.1.2-.2.3l-3.4 3-.1.1c-.4.4-.9.6-1.4.6z"/></svg>