<?xml version="1.0" encoding="utf-8"?>
<!-- Generator: Adobe Illustrator 20.1.0, SVG Export Plug-In . SVG Version: 6.00 Build 0)  -->
<svg version="1.1" id="technical_page" xmlns="http://www.w3.org/2000/svg" xmlns:xlink="http://www.w3.org/1999/xlink" x="0px"
	 y="0px" viewBox="0 0 18 17" style="enable-background:new 0 0 18 17;" xml:space="preserve">
<style type="text/css">
	.st0{fill:#313131;}
</style>
<g>
	<path class="st0" d="M2.3,17L2.3,17C2.2,17,2.1,17,2,16.9l-1.8-1.8c-0.2-0.2-0.2-0.5,0-0.7l10-10c0.2-0.2,0.5-0.2,0.7,0l1.8,1.8
		c0.1,0.1,0.1,0.2,0.1,0.4c0,0.1-0.1,0.3-0.1,0.4l-10,10C2.6,17,2.4,17,2.3,17z M1.2,14.7l1.1,1.1l9.3-9.3l-1.1-1.1L1.2,14.7z"/>
</g>
<g>
	<path class="st0" d="M14.7,9.2c-0.1,0-0.3,0-0.4-0.1L7.4,2.1c-0.2-0.2-0.2-0.5,0-0.7l1.2-1.2C8.8,0,9.1,0,9.3,0.1
		c0.1,0,1.5,1.2,3.5,0.6c0.2-0.1,0.4,0,0.5,0.1l4.6,4.6C18,5.6,18,5.7,18,5.8S18,6.1,17.9,6.2L15,9C14.9,9.1,14.8,9.2,14.7,9.2z
		 M8.4,1.7L14.7,8l2.2-2.2l-4.1-4.1C11,2.2,9.7,1.5,9,1.1L8.4,1.7z"/>
</g>
</svg>
