<?xml version="1.0" encoding="utf-8"?>
<!-- Generator: Adobe Illustrator 20.1.0, SVG Export Plug-In . SVG Version: 6.00 Build 0)  -->
<svg version="1.1" id="technical_page" xmlns="http://www.w3.org/2000/svg" xmlns:xlink="http://www.w3.org/1999/xlink" x="0px"
	 y="0px" viewBox="0 0 19.8 16" style="enable-background:new 0 0 19.8 16;" xml:space="preserve">
<style type="text/css">
	.st0{fill:#313131;}
</style>
<g>
	<path class="st0" d="M10,16H4.1c-0.3,0-0.5-0.2-0.5-0.5v-9L3.2,6.9C3,7.1,2.7,7.1,2.5,6.9L0.1,4.6C0.1,4.5,0,4.4,0,4.3
		C0,4.1,0.1,4,0.2,3.9l4-3.8C4.3,0,4.4,0,4.5,0h2.9c0.1,0,0.3,0.1,0.4,0.2l2.5,3c0.2,0.2,0.2,0.5-0.1,0.7C10.1,4,9.8,4,9.6,3.8
		L7.2,1H4.7L1.2,4.3l1.6,1.6L3.7,5c0.1-0.1,0.4-0.2,0.5-0.1c0.2,0.1,0.3,0.3,0.3,0.5V15H10c0.3,0,0.5,0.2,0.5,0.5S10.2,16,10,16z"/>
</g>
<g>
	<path class="st0" d="M15.8,16H10c-0.3,0-0.5-0.2-0.5-0.5S9.7,15,10,15h5.4V5.3c0-0.2,0.1-0.4,0.3-0.5c0.2-0.1,0.4,0,0.5,0.1L17,5.8
		l1.6-1.4L15.2,1h-2.5l-2.4,2.8C10.2,4,9.9,4,9.6,3.8C9.4,3.7,9.4,3.4,9.6,3.1l2.5-3C12.2,0.1,12.4,0,12.5,0h2.9
		c0.1,0,0.3,0.1,0.4,0.1L19.7,4c0.1,0.1,0.2,0.2,0.1,0.4s-0.1,0.3-0.2,0.4l-2.3,2.1c-0.2,0.2-0.5,0.2-0.7,0l-0.3-0.3v9
		C16.3,15.8,16.1,16,15.8,16z"/>
</g>
<g>
	<path class="st0" d="M10,12.2c-1.7,0-3.1-1.4-3.1-3.1C6.8,7.4,8.2,6,10,6s3.1,1.4,3.1,3.1C13.1,10.8,11.7,12.2,10,12.2z M10,7
		c-1.2,0-2.1,1-2.1,2.1s1,2.1,2.1,2.1s2.1-1,2.1-2.1S11.1,7,10,7z"/>
</g>
<g>
	<path class="st0" d="M8.3,11.2c-0.1,0-0.3-0.1-0.4-0.2c-0.2-0.2-0.2-0.5,0-0.7l3.6-3.5c0.2-0.2,0.5-0.2,0.7,0
		c0.2,0.2,0.2,0.5,0,0.7l-3.6,3.5C8.5,11.2,8.4,11.2,8.3,11.2z"/>
</g>
</svg>
