<?xml version="1.0" encoding="utf-8"?>
<!-- Generator: Adobe Illustrator 20.1.0, SVG Export Plug-In . SVG Version: 6.00 Build 0)  -->
<svg version="1.1" id="technical_page" xmlns="http://www.w3.org/2000/svg" xmlns:xlink="http://www.w3.org/1999/xlink" x="0px"
	 y="0px" viewBox="0 0 12.6 17" style="enable-background:new 0 0 12.6 17;" xml:space="preserve">
<style type="text/css">
	.st0{fill:#313131;}
	.st1{fill:none;stroke:#313131;stroke-linecap:round;stroke-linejoin:round;stroke-miterlimit:10;}
</style>
<g>
	<path class="st0" d="M7.1,17H5.5c-1.8,0-3.2-1.4-3.2-3.2V7.7c0-0.3,0.2-0.5,0.5-0.5h7.1c0.3,0,0.5,0.2,0.5,0.5v6.1
		C10.3,15.6,8.9,17,7.1,17z M3.2,8.2v5.6c0,1.2,1,2.2,2.2,2.2h1.7c1.2,0,2.2-1,2.2-2.2V8.2H3.2z"/>
</g>
<g>
	<path class="st0" d="M9.2,4.9c-0.1,0-0.3,0-0.4-0.1c-2.5-2.4-4.9-0.1-5,0C3.6,5,3.2,5,3,4.8c-0.2-0.2-0.2-0.5,0-0.7
		C4.2,3,7,1.6,9.5,4.1c0.2,0.2,0.2,0.5,0,0.7C9.4,4.9,9.3,4.9,9.2,4.9z"/>
</g>
<g>
	<path class="st0" d="M0.5,3.5c-0.1,0-0.3-0.1-0.4-0.2c-0.2-0.2-0.2-0.5,0-0.7c0.1-0.1,6.3-5.9,12.3,0c0.2,0.2,0.2,0.5,0,0.7
		c-0.2,0.2-0.5,0.2-0.7,0C6.4-1.9,1.1,3.2,0.8,3.4C0.8,3.5,0.6,3.5,0.5,3.5z"/>
</g>
<g>
	<path class="st1" d="M4.9,10.5"/>
</g>
<g>
	<path class="st0" d="M7.2,11.1h-2c-0.3,0-0.5-0.2-0.5-0.5s0.2-0.5,0.5-0.5h2c0.3,0,0.5,0.2,0.5,0.5S7.5,11.1,7.2,11.1z"/>
</g>
<g>
	<path class="st0" d="M7.2,13.3h-2c-0.3,0-0.5-0.2-0.5-0.5s0.2-0.5,0.5-0.5h2c0.3,0,0.5,0.2,0.5,0.5S7.5,13.3,7.2,13.3z"/>
</g>
</svg>
