<?xml version="1.0" encoding="utf-8"?>
<!-- Generator: Adobe Illustrator 20.1.0, SVG Export Plug-In . SVG Version: 6.00 Build 0)  -->
<svg version="1.1" id="technical_page" xmlns="http://www.w3.org/2000/svg" xmlns:xlink="http://www.w3.org/1999/xlink" x="0px"
	 y="0px" viewBox="0 0 18 16.5" style="enable-background:new 0 0 18 16.5;" xml:space="preserve">
<style type="text/css">
	.st0{fill:#313131;}
	.st1{fill:none;stroke:#313131;stroke-linecap:round;stroke-linejoin:round;stroke-miterlimit:10;}
</style>
<g>
	<path class="st0" d="M6.8,12.4c0,0-0.1,0-0.1,0L4,11.6c-0.2-0.1-0.3-0.2-0.4-0.4L3.3,8.8c0-0.2,0-0.3,0.1-0.4L11,0.7
		c0.2-0.2,0.5-0.2,0.7,0c0.2,0.2,0.2,0.5,0,0.7L4.3,8.9l0.3,1.9l2.1,0.6l7.5-7.5c0.2-0.2,0.5-0.2,0.7,0C15,4,15,4.3,14.8,4.5
		l-7.7,7.7C7.1,12.3,6.9,12.4,6.8,12.4z"/>
</g>
<g>
	<path class="st0" d="M14.2,5c-0.2,0-0.3-0.1-0.4-0.2c-0.2-0.2-0.1-0.5,0.1-0.7c0.4-0.3,0.7-0.8,0.7-1.4c0-0.9-0.8-1.7-1.7-1.7
		c-0.5,0-0.9,0.2-1.2,0.5c-0.2,0.2-0.5,0.2-0.7,0c-0.2-0.2-0.2-0.5,0-0.7C11.5,0.3,12.2,0,12.9,0c1.5,0,2.7,1.2,2.7,2.7
		c0,0.8-0.4,1.7-1.1,2.2C14.4,4.9,14.3,5,14.2,5z"/>
</g>
<g>
	<path class="st0" d="M13.9,5.3c-0.1,0-0.3,0-0.3-0.1l-3-2.9c-0.2-0.2-0.2-0.5,0-0.7c0.2-0.2,0.5-0.2,0.7,0l3,2.9
		c0.2,0.2,0.2,0.5,0,0.7C14.1,5.2,14,5.3,13.9,5.3z"/>
</g>
<g>
	<path class="st0" d="M6.4,9.4c-0.1,0-0.3-0.1-0.4-0.2c-0.2-0.2-0.2-0.5,0-0.7l4.6-4.5c0.2-0.2,0.5-0.2,0.7,0c0.2,0.2,0.2,0.5,0,0.7
		L6.8,9.3C6.7,9.4,6.6,9.4,6.4,9.4z"/>
</g>
<g>
	<path class="st0" d="M1.9,16.5C1.8,16.5,1.8,16.5,1.9,16.5c-0.3,0-0.4-0.2-0.5-0.3L0,12.6c-0.1-0.2,0-0.4,0.1-0.5l3.3-3.1
		C3.7,8.8,4,8.8,4.2,9c0.2,0.2,0.2,0.5,0,0.7l-3.1,2.9l1,2.5l3.5-3.8c0.2-0.2,0.5-0.2,0.7,0c0.2,0.2,0.2,0.5,0,0.7l-4.1,4.4
		C2.1,16.5,2,16.5,1.9,16.5z"/>
</g>
<g>
	<path class="st1" d="M3.6,16"/>
</g>
<g>
	<path class="st0" d="M6,16.5H4.3c-0.3,0-0.5-0.2-0.5-0.5s0.2-0.5,0.5-0.5H6c0.3,0,0.5,0.2,0.5,0.5S6.2,16.5,6,16.5z"/>
</g>
<g>
	<path class="st0" d="M9.8,16.5H8.2c-0.3,0-0.5-0.2-0.5-0.5s0.2-0.5,0.5-0.5h1.6c0.3,0,0.5,0.2,0.5,0.5S10.1,16.5,9.8,16.5z"/>
</g>
<g>
	<path class="st0" d="M13.6,16.5H12c-0.3,0-0.5-0.2-0.5-0.5s0.2-0.5,0.5-0.5h1.6c0.3,0,0.5,0.2,0.5,0.5S13.9,16.5,13.6,16.5z"/>
</g>
<g>
	<path class="st0" d="M17.5,16.5h-1.6c-0.3,0-0.5-0.2-0.5-0.5s0.2-0.5,0.5-0.5h1.6c0.3,0,0.5,0.2,0.5,0.5S17.8,16.5,17.5,16.5z"/>
</g>
</svg>
