<?xml version="1.0" encoding="utf-8"?>
<!-- Generator: Adobe Illustrator 20.1.0, SVG Export Plug-In . SVG Version: 6.00 Build 0)  -->
<svg version="1.1" id="technical_page" xmlns="http://www.w3.org/2000/svg" xmlns:xlink="http://www.w3.org/1999/xlink" x="0px"
	 y="0px" viewBox="0 0 18.9 17.3" style="enable-background:new 0 0 18.9 17.3;" xml:space="preserve">
<style type="text/css">
	.st0{fill:#313131;}
	.st1{fill:none;stroke:#313131;stroke-linecap:round;stroke-linejoin:round;stroke-miterlimit:10;}
</style>
<g>
	<path class="st0" d="M2.6,4.6c-1.3,0-2.3-1-2.3-2.3C0.3,1,1.3,0,2.6,0s2.3,1,2.3,2.3C4.9,3.6,3.9,4.6,2.6,4.6z M2.6,1
		C1.9,1,1.3,1.6,1.3,2.3s0.6,1.3,1.3,1.3S3.9,3,3.9,2.3S3.3,1,2.6,1z"/>
</g>
<g>
	<path class="st0" d="M11.3,16.3c-1.1,0-1.6-0.8-1.6-1.4v-2.9c-0.8-0.3-2.5-0.9-3.1-1.6c-0.3-0.3-0.7-0.7-1-1
		c0.2,0.6,0.5,1.3,0.8,1.7c0.1,0.1,0.6,1,0.2,1.7c-0.3,0.4-0.6,0.6-1,0.7c-0.3,0-0.6-0.1-0.9-0.3c-0.3-0.3-1.7-2.6-2.3-3.5
		c0-0.1-0.1-0.1-0.1-0.2c0-0.5-0.3-3.2,0.2-4.1l0.4-0.6C3,4.5,3.3,4.5,3.5,4.6C3.8,4.7,3.9,5,3.7,5.3L3.4,5.9
		c-0.2,0.4-0.2,2-0.1,3.4c0.9,1.4,1.8,3,2,3.2c0.2,0,0.2-0.1,0.3-0.2c0.1-0.1,0-0.5-0.1-0.6c-0.8-1-1.3-3.3-1.3-3.6
		c0-0.2,0.1-0.4,0.2-0.5c0.2-0.1,0.4-0.1,0.6,0c0.1,0.1,1.6,1.3,2.4,2.2c0.4,0.5,2.1,1.2,3,1.4c0.2,0.1,0.4,0.3,0.4,0.5V15
		c0,0,0,0.4,0.6,0.4c0.3,0,0.5-0.4,0.5-0.5c0-0.3-0.1-1.9,0-3.1c0-0.9-1.2-1.8-1.7-2.1C9.9,9.5,9.8,9.3,9.9,9.1
		c0.1-0.2,0.2-0.4,0.5-0.4l2.1-0.1c0.1,0,0.3,0,0.4,0.2c0.5,0.5,1.9,1.9,2.6,2.3c0.4,0.3,0.4,0.3,0.8-0.1c0.1-0.2,0.1-0.4,0-0.6
		c-0.5-0.4-2.8-2.5-3.4-2.9c-0.3-0.2-1.5-0.2-2.4-0.1c-0.2,0-0.3,0-0.4-0.1L8.1,5.4C8,5.2,8,5,8,4.9s0.2-0.3,0.4-0.3
		c1.9-0.3,4.2-1,4.5-1.5c0.1-0.2,0.1-0.3,0-0.3c-0.1-0.1-0.3-0.2-0.4-0.1c-0.4,0.2-2.9,1.1-3.4,1.3c-0.1,0-0.2,0-0.3,0
		c0,0-0.5-0.2-2.1-0.5c-0.4-0.1-0.7-0.2-1,0C5.5,3.3,5.2,3.2,5,3C4.9,2.8,5,2.5,5.2,2.3C5.8,2,6.4,2.1,6.8,2.2C8,2.5,8.7,2.7,9,2.8
		c1.4-0.5,2.9-1,3.1-1.1c0.5-0.3,1.2-0.2,1.6,0.3c0.4,0.4,0.5,1,0.1,1.6C13.2,4.4,10.9,5,9.5,5.3l0.9,1c0.7-0.1,2.2-0.2,2.9,0.3
		c0.7,0.5,3.4,2.9,3.5,3c0,0,0.1,0.1,0.1,0.1c0.2,0.4,0.4,1.2-0.1,1.8c-0.4,0.5-0.9,1.1-2.1,0.4c-0.7-0.4-2.1-1.8-2.6-2.3l-0.5,0
		c0.6,0.5,1.1,1.3,1.1,2.1c-0.1,1.3,0,3.1,0,3.1c0,0,0,0.1,0,0.1C12.7,15.4,12.3,16.3,11.3,16.3z"/>
</g>
<g>
	<path class="st0" d="M9.3,17.3H0.5c-0.3,0-0.5-0.2-0.5-0.5s0.2-0.5,0.5-0.5h8.8c0.3,0,0.5,0.2,0.5,0.5S9.6,17.3,9.3,17.3z"/>
</g>
<g>
	<path class="st0" d="M18.4,17.3h-5.2c-0.3,0-0.5-0.2-0.5-0.5s0.2-0.5,0.5-0.5h5.2c0.3,0,0.5,0.2,0.5,0.5S18.6,17.3,18.4,17.3z"/>
</g>
<g>
	<path class="st1" d="M8.9,15.7"/>
</g>
<g>
	<path class="st1" d="M6.7,14.9"/>
</g>
</svg>
