<?xml version="1.0" encoding="utf-8"?>
<!-- Generator: Adobe Illustrator 20.1.0, SVG Export Plug-In . SVG Version: 6.00 Build 0)  -->
<svg version="1.1" id="technical_page" xmlns="http://www.w3.org/2000/svg" xmlns:xlink="http://www.w3.org/1999/xlink" x="0px"
	 y="0px" viewBox="0 0 20.9 20.3" style="enable-background:new 0 0 20.9 20.3;" xml:space="preserve">
<style type="text/css">
	.st0{fill:#313131;}
</style>
<g>
	<path class="st0" d="M7,8.6c-1.2,0-2.2-1-2.2-2.2c0-1.2,1-2.2,2.2-2.2s2.2,1,2.2,2.2C9.2,7.7,8.2,8.6,7,8.6z M7,5.2
		c-0.7,0-1.2,0.5-1.2,1.2c0,0.7,0.5,1.2,1.2,1.2s1.2-0.5,1.2-1.2C8.2,5.8,7.7,5.2,7,5.2z"/>
</g>
<g>
	<path class="st0" d="M15.3,19.8c-1.1,0-1.5-0.8-1.5-1.3v-2.7c-0.7-0.2-2.3-0.9-2.9-1.6c-0.5-0.6-1.6-1.5-2-1.8
		c-0.8,0-3.9-0.1-6.3-0.6c-1.3-0.3-2.1-0.7-2.4-1.3C0,10.1,0,9.8,0.1,9.4c0.4-1,1.4-1,2-0.9c2,0.5,4.4,1,4.9,0.8l0.3-0.5
		c0.1-0.2,0.4-0.3,0.7-0.2C8.2,8.7,8.2,9,8.1,9.3L7.8,9.8c-0.2,0.3-0.6,1.1-5.9-0.4c0,0-0.6-0.1-0.8,0.3C1,9.9,1,9.9,1,10
		c0.1,0.1,0.4,0.5,1.8,0.8C5.3,11.3,9,11.3,9,11.3c0.1,0,0.2,0,0.3,0.1c0.1,0.1,1.6,1.3,2.2,2.1c0.4,0.5,1.9,1.1,2.8,1.4
		c0.2,0.1,0.4,0.3,0.4,0.5v3.1c0,0,0,0.3,0.5,0.3c0.3,0,0.4-0.4,0.5-0.5c0-0.3,0-1.8,0-2.9c0-0.8-1.2-1.7-1.6-1.9
		c-0.2-0.1-0.3-0.3-0.2-0.5c0.1-0.2,0.2-0.4,0.5-0.4l2-0.1c0.1,0,0.3,0,0.4,0.2c0.5,0.5,1.8,1.8,2.4,2.2c0.4,0.2,0.4,0.2,0.7-0.1
		c0.1-0.1,0.1-0.4,0-0.5c-1-0.8-2.8-2.4-3.2-2.7c-0.3-0.2-1.4-0.2-2.3-0.1c-0.1,0-0.3,0-0.4-0.1l-2.7-2.6c-0.1-0.1-0.2-0.3-0.1-0.4
		l1.2-6.7C12.1,1.2,12,1,11.9,1c0,0-0.1,0.1-0.1,0.3c-0.5,1.3-1.5,6.3-1.5,6.4C10.2,7.9,10,8.1,9.7,8.1C9.4,8,9.2,7.7,9.3,7.5
		c0-0.2,1-5.1,1.5-6.5C11,0.2,11.4,0,11.7,0c0.7-0.1,1.3,0.7,1.5,1c0.1,0.1,0.1,0.2,0.1,0.4L12.1,8l2.3,2.2c0.7-0.1,2.1-0.2,2.8,0.3
		c0.6,0.5,3.3,2.8,3.4,2.9c0,0,0.1,0.1,0.1,0.1c0.2,0.4,0.4,1.1-0.1,1.7c-0.4,0.5-0.9,1-2,0.4c-0.7-0.4-2-1.7-2.5-2.2l-0.4,0
		c0.5,0.5,1,1.2,1,2c-0.1,1.2,0,2.9,0,2.9c0,0,0,0.1,0,0.1C16.6,18.9,16.2,19.8,15.3,19.8z"/>
</g>
<g>
	<path class="st0" d="M8,20.3c-0.3,0-0.5-0.2-0.5-0.5V15c0-0.3,0.2-0.5,0.5-0.5c0.3,0,0.5,0.2,0.5,0.5v4.8C8.5,20.1,8.2,20.3,8,20.3
		z"/>
</g>
<g>
	<path class="st0" d="M10.2,17.9c-0.3,0-0.5-0.2-0.5-0.5v-2.4c0-0.3,0.2-0.5,0.5-0.5s0.5,0.2,0.5,0.5v2.4
		C10.7,17.6,10.5,17.9,10.2,17.9z"/>
</g>
</svg>
