<?xml version="1.0" encoding="utf-8"?>
<!-- Generator: Adobe Illustrator 20.1.0, SVG Export Plug-In . SVG Version: 6.00 Build 0)  -->
<svg version="1.1" id="technical_page" xmlns="http://www.w3.org/2000/svg" xmlns:xlink="http://www.w3.org/1999/xlink" x="0px"
	 y="0px" viewBox="0 0 11.7 16" style="enable-background:new 0 0 11.7 16;" xml:space="preserve">
<style type="text/css">
	.st0{fill:#313131;}
</style>
<g>
	<path class="st0" d="M6.1,16c-0.6,0-1.2-0.1-1.8-0.3c-2-0.5-3.5-1.9-4.1-3.6C-0.3,10.6,0,9,1,7.7c1.8-2.3,1.6-3.8,1.6-3.8
		c0-0.2,0.1-0.4,0.2-0.5c0.2-0.1,0.4-0.1,0.5,0c0.7,0.4,1.1,1.3,1.3,2.1c0-0.1,0.1-0.1,0.1-0.2c1-2.6-1.9-4.3-2-4.4
		C2.6,0.8,2.5,0.6,2.6,0.4C2.6,0.2,2.8,0,3.1,0c0.1,0,0.8,0,2.6,0.8c3.8,1.8,4,5.9,3.8,8C10,7.9,9.8,6.7,9.8,6.7
		c0-0.2,0.1-0.4,0.2-0.5c0.2-0.1,0.4-0.1,0.5,0c0.1,0.1,1.2,0.9,1.1,3.9c-0.1,2-0.9,3.8-2.4,4.8C8.4,15.6,7.3,16,6.1,16z M3.5,5.1
		C3.3,5.8,2.9,7,1.8,8.3c-0.8,1-1,2.3-0.6,3.5c0.5,1.4,1.7,2.5,3.4,3c1.6,0.4,3,0.2,4.2-0.6c1.2-0.9,1.9-2.3,1.9-4
		c0-0.6,0-1.1-0.1-1.5c-0.2,0.6-0.5,1.2-1.1,1.7L9,10.6c-0.2,0.1-0.4,0.1-0.5,0c-0.2-0.1-0.2-0.3-0.2-0.5c0.1-0.3,1.5-6.2-3.1-8.3
		c0,0,0,0,0,0c0.7,1,1.2,2.4,0.6,3.9C5,7.6,4.9,7.8,4.4,7.8C4.2,7.8,4,7.6,4,7.4c0,0,0-0.1,0-0.1C4,6.8,3.9,5.8,3.5,5.1z M4.4,7.3
		L4.4,7.3L4.4,7.3z"/>
</g>
<g>
	<path class="st0" d="M4.4,13.3c-0.1,0-0.1,0-0.2,0c-1.7-0.6-1.9-2.5-1.7-3.4c0.1-0.3,0.3-0.4,0.6-0.4c0.3,0.1,0.4,0.3,0.4,0.6
		c0,0.1-0.3,1.8,1.1,2.3C4.8,12.5,5,12.7,4.9,13C4.8,13.2,4.6,13.3,4.4,13.3z"/>
</g>
</svg>
