<?xml version="1.0" encoding="utf-8"?>
<!-- Generator: Adobe Illustrator 20.1.0, SVG Export Plug-In . SVG Version: 6.00 Build 0)  -->
<svg version="1.1" id="technical_page" xmlns="http://www.w3.org/2000/svg" xmlns:xlink="http://www.w3.org/1999/xlink" x="0px"
	 y="0px" viewBox="0 0 8.4 17" style="enable-background:new 0 0 8.4 17;" xml:space="preserve">
<style type="text/css">
	.st0{fill:#313131;}
</style>
<g>
	<path class="st0" d="M1,17c-0.1,0-0.1,0-0.2,0c-0.2-0.1-0.3-0.3-0.3-0.6l1.8-7.1H0.5c-0.2,0-0.3-0.1-0.4-0.2C0,9,0,8.8,0,8.7
		l1.9-8.3C2,0.2,2.2,0,2.4,0h5.5c0.2,0,0.3,0.1,0.4,0.3s0.1,0.3,0,0.5L5.4,5.6h2.2c0.2,0,0.4,0.1,0.4,0.3s0.1,0.4,0,0.5L1.4,16.8
		C1.3,17,1.1,17,1,17z M1.1,8.3H3c0.2,0,0.3,0.1,0.4,0.2c0.1,0.1,0.1,0.3,0.1,0.4l-1.2,4.7l4.5-7.1H4.5c-0.2,0-0.3-0.1-0.4-0.3
		S4,6,4.1,5.8L7,1H2.8L1.1,8.3z"/>
</g>
</svg>
