<?xml version="1.0" encoding="utf-8"?>
<!-- Generator: Adobe Illustrator 20.1.0, SVG Export Plug-In . SVG Version: 6.00 Build 0)  -->
<svg version="1.1" id="technical_page" xmlns="http://www.w3.org/2000/svg" xmlns:xlink="http://www.w3.org/1999/xlink" x="0px"
	 y="0px" viewBox="0 0 13.6 15.8" style="enable-background:new 0 0 13.6 15.8;" xml:space="preserve">
<style type="text/css">
	.st0{fill:#313131;}
</style>
<g>
	<path class="st0" d="M6.7,15.8c-0.3,0-0.5-0.2-0.5-0.5V0.5C6.2,0.2,6.4,0,6.7,0s0.5,0.2,0.5,0.5v14.8C7.2,15.5,6.9,15.8,6.7,15.8z"
		/>
</g>
<g>
	<path class="st0" d="M12.9,12.4c-0.1,0-0.2,0-0.3-0.1L0.6,5.1C0.4,5,0.3,4.7,0.4,4.4c0.1-0.2,0.4-0.3,0.7-0.2l12.1,7.2
		c0.2,0.1,0.3,0.4,0.2,0.7C13.3,12.3,13.1,12.4,12.9,12.4z"/>
</g>
<g>
	<path class="st0" d="M0.5,12.1c-0.2,0-0.3-0.1-0.4-0.3c-0.1-0.2-0.1-0.5,0.2-0.7L12.9,4c0.2-0.1,0.5-0.1,0.7,0.2
		c0.1,0.2,0.1,0.5-0.2,0.7L0.7,12.1C0.7,12.1,0.6,12.1,0.5,12.1z"/>
</g>
<g>
	<path class="st0" d="M4.8,14.2c-0.2,0-0.3-0.1-0.4-0.2c-0.2-0.2-0.1-0.5,0.1-0.7l1.9-1.4C6.5,11.8,6.9,11.8,7,12
		c0.2,0.2,0.1,0.5-0.1,0.7l-1.9,1.4C5,14.2,4.9,14.2,4.8,14.2z"/>
</g>
<g>
	<path class="st0" d="M8.5,14.2c-0.1,0-0.2,0-0.3-0.1l-1.9-1.4c-0.2-0.2-0.3-0.5-0.1-0.7c0.2-0.2,0.5-0.3,0.7-0.1l1.9,1.4
		C9,13.5,9.1,13.8,8.9,14C8.8,14.1,8.7,14.2,8.5,14.2z"/>
</g>
<g>
	<path class="st0" d="M10.5,12.9c-0.3,0-0.5-0.2-0.5-0.5l-0.2-2.3c0-0.3,0.2-0.5,0.5-0.5c0.3,0,0.5,0.2,0.5,0.5l0.2,2.3
		C11,12.7,10.8,12.9,10.5,12.9C10.5,12.9,10.5,12.9,10.5,12.9z"/>
</g>
<g>
	<path class="st0" d="M10.3,10.6c-0.2,0-0.4-0.1-0.5-0.3c-0.1-0.3,0-0.5,0.3-0.7l2.1-0.9c0.3-0.1,0.5,0,0.7,0.3
		c0.1,0.3,0,0.5-0.3,0.7l-2.1,0.9C10.4,10.6,10.3,10.6,10.3,10.6z"/>
</g>
<g>
	<path class="st0" d="M12.4,7.5c-0.1,0-0.1,0-0.2-0.1l-2.1-1C9.8,6.3,9.7,6,9.9,5.7c0.1-0.2,0.4-0.4,0.7-0.2l2.1,1
		c0.2,0.1,0.4,0.4,0.2,0.7C12.8,7.3,12.6,7.5,12.4,7.5z"/>
</g>
<g>
	<path class="st0" d="M10.3,6.4C10.3,6.4,10.2,6.4,10.3,6.4c-0.4,0-0.5-0.3-0.5-0.6l0.4-2.3c0-0.3,0.3-0.5,0.6-0.4
		c0.3,0,0.5,0.3,0.4,0.6L10.8,6C10.7,6.2,10.5,6.4,10.3,6.4z"/>
</g>
<g>
	<path class="st0" d="M6.7,4.1C6.5,4.1,6.4,4,6.3,3.9C6.1,3.6,6.2,3.3,6.4,3.2l1.8-1.4c0.2-0.2,0.5-0.1,0.7,0.1
		c0.2,0.2,0.1,0.5-0.1,0.7L7,4C6.9,4,6.8,4.1,6.7,4.1z"/>
</g>
<g>
	<path class="st0" d="M6.7,4.1C6.5,4.1,6.4,4,6.4,4L4.5,2.6C4.3,2.4,4.2,2.1,4.4,1.9c0.2-0.2,0.5-0.3,0.7-0.1l1.9,1.4
		c0.2,0.2,0.3,0.5,0.1,0.7C7,4,6.8,4.1,6.7,4.1z"/>
</g>
<g>
	<path class="st0" d="M3.3,6.4C3,6.4,2.8,6.2,2.8,6L2.4,3.7c0-0.3,0.1-0.5,0.4-0.6c0.3,0,0.5,0.1,0.6,0.4l0.4,2.3
		C3.8,6.1,3.6,6.3,3.3,6.4C3.3,6.4,3.3,6.4,3.3,6.4z"/>
</g>
<g>
	<path class="st0" d="M1.2,7.5C1,7.5,0.9,7.4,0.8,7.2C0.6,7,0.7,6.7,1,6.5l2.1-1c0.2-0.1,0.5,0,0.7,0.2c0.1,0.2,0,0.5-0.2,0.7
		l-2.1,1C1.4,7.5,1.3,7.5,1.2,7.5z"/>
</g>
<g>
	<path class="st0" d="M3,10.6c-0.1,0-0.1,0-0.2,0L0.7,9.7C0.4,9.6,0.3,9.3,0.4,9C0.5,8.8,0.8,8.6,1,8.8l2.1,0.9
		c0.3,0.1,0.4,0.4,0.3,0.7C3.4,10.5,3.2,10.6,3,10.6z"/>
</g>
<g>
	<path class="st0" d="M2.8,12.9C2.8,12.9,2.8,12.9,2.8,12.9c-0.3,0-0.5-0.3-0.5-0.5l0.2-2.3c0-0.3,0.3-0.5,0.5-0.5
		c0.3,0,0.5,0.3,0.5,0.5l-0.2,2.3C3.3,12.7,3.1,12.9,2.8,12.9z"/>
</g>
</svg>
