<?xml version="1.0" encoding="utf-8"?>
<!-- Generator: Adobe Illustrator 20.1.0, SVG Export Plug-In . SVG Version: 6.00 Build 0)  -->
<svg version="1.1" id="technical_page" xmlns="http://www.w3.org/2000/svg" xmlns:xlink="http://www.w3.org/1999/xlink" x="0px"
	 y="0px" viewBox="0 0 17.9 17.3" style="enable-background:new 0 0 17.9 17.3;" xml:space="preserve">
<style type="text/css">
	.st0{fill:#313131;}
</style>
<g>
	<path class="st0" d="M2,13c-0.1,0-0.3-0.1-0.4-0.2c-0.2-0.2-0.2-0.5,0.1-0.7c0.6-0.5,0.9-1,0.9-1.6c0-1-0.9-1.8-0.9-1.8
		C1.5,8.5,1.5,8.2,1.7,8c0.2-0.2,0.5-0.2,0.7,0C2.4,8,3.6,9,3.6,10.5c0,0.9-0.4,1.7-1.3,2.4C2.3,12.9,2.2,13,2,13z"/>
</g>
<g>
	<path class="st0" d="M0.5,11.8c-0.1,0-0.3-0.1-0.4-0.2c-0.2-0.2-0.2-0.5,0.1-0.7c0.2-0.2,0.3-0.3,0.3-0.5c0-0.3-0.2-0.5-0.3-0.6
		C0,9.7-0.1,9.3,0.1,9.1c0.2-0.2,0.5-0.2,0.7,0c0.1,0.1,0.6,0.6,0.6,1.3c0,0.3-0.1,0.8-0.6,1.2C0.7,11.7,0.6,11.8,0.5,11.8z"/>
</g>
<g>
	<path class="st0" d="M3.4,14.9c-0.1,0-0.3-0.1-0.4-0.2c-0.2-0.2-0.2-0.5,0.1-0.7c1.3-1.1,2-2.3,2-3.6c0-2.1-2-3.7-2-3.7
		C2.9,6.5,2.8,6.2,3,6c0.2-0.2,0.5-0.2,0.7-0.1C3.8,6,6,7.9,6.1,10.4c0,1.6-0.8,3-2.3,4.4C3.6,14.9,3.5,14.9,3.4,14.9z"/>
</g>
<g>
	<path class="st0" d="M9.3,17.3c-1.6,0-2.8-1.4-2.8-2.7c0-0.3,0.2-0.5,0.5-0.5s0.5,0.2,0.5,0.5c0,0.7,0.7,1.7,1.8,1.7
		c1.2,0,1.6-1.2,1.7-2c0.1-1.3,0.4-2.3,3.2-4.2c2.4-1.7,2.6-3.7,2.6-3.8c0.2-1.5-0.3-4.6-3.4-5.1C11.6,0.8,10.1,1.1,9,2
		c-1.8,1.4-2,3.9-2,4c0,0.3-0.2,0.5-0.5,0.5c-0.3,0-0.5-0.3-0.5-0.5c0-0.1,0.3-3,2.4-4.7c1.4-1,3.1-1.4,5.3-1c3.5,0.6,4.6,4,4.2,6.2
		c0,0.1-0.2,2.6-3,4.5c-2.6,1.8-2.7,2.6-2.8,3.5C11.9,15.8,11,17.3,9.3,17.3z"/>
</g>
<g>
	<path class="st0" d="M10.3,10.8c-0.3,0-0.5-0.2-0.5-0.5c0-0.3,0.2-0.5,0.5-0.5c0.1,0,0.8-0.1,1-1.3c0.1-0.8-0.3-1.2-0.7-1.7
		C10.3,6.6,10,6.3,9.9,5.8c-0.1-0.4-0.2-1.4,0.4-2.2c0.4-0.6,1.1-0.9,2-1c2-0.1,2.7,1.7,2.8,2.7c0,0.3-0.2,0.5-0.5,0.5
		c-0.3,0-0.5-0.2-0.5-0.5c0-0.2-0.2-1.9-1.7-1.7c-0.6,0-1,0.2-1.3,0.6c-0.4,0.5-0.3,1.2-0.2,1.4c0,0.2,0.2,0.4,0.5,0.6
		c0.5,0.5,1.2,1.2,1,2.5C12,10.4,10.9,10.8,10.3,10.8C10.3,10.8,10.3,10.8,10.3,10.8z"/>
</g>
</svg>
