<?xml version="1.0" encoding="utf-8"?>
<!-- Generator: Adobe Illustrator 20.1.0, SVG Export Plug-In . SVG Version: 6.00 Build 0)  -->
<svg version="1.1" id="technical_page" xmlns="http://www.w3.org/2000/svg" xmlns:xlink="http://www.w3.org/1999/xlink" x="0px"
	 y="0px" viewBox="0 0 9.4 17.2" style="enable-background:new 0 0 9.4 17.2;" xml:space="preserve">
<style type="text/css">
	.st0{fill:#313131;}
</style>
<g>
	<path class="st0" d="M2.2,17.2c0,0-0.1,0-0.1,0c-0.1,0-0.3-0.1-0.3-0.3L0,13c-0.1-0.2-0.1-0.3,0-0.5c0.1-0.1,0.3-0.2,0.4-0.2h1.4
		l1.6-3.1H0.8c-0.2,0-0.4-0.1-0.4-0.3c-0.1-0.2-0.1-0.4,0-0.5l2.7-4.2H2.2C2,4.3,1.8,4.1,1.8,3.9C1.7,3.7,1.8,3.5,2,3.3l4.9-3.3
		C7,0,7.2,0,7.3,0c0.1,0,0.3,0.1,0.3,0.3l1.5,3.3c0.1,0.2,0.1,0.3,0,0.5C9,4.2,8.9,4.3,8.7,4.3h-1L6.6,6.3h2.3
		c0.2,0,0.3,0.1,0.4,0.2c0.1,0.1,0.1,0.3,0,0.5l-2.5,5.5h0.6c0.2,0,0.4,0.1,0.5,0.3c0.1,0.2,0,0.4-0.2,0.6l-5.3,3.7
		C2.5,17.2,2.4,17.2,2.2,17.2z M1.3,13.3l1.2,2.6L6,13.5c-0.1,0-0.2-0.1-0.3-0.2c-0.1-0.1-0.1-0.3,0-0.5l2.5-5.5H5.8
		c-0.2,0-0.3-0.1-0.4-0.2c-0.1-0.2-0.1-0.3,0-0.5L7,3.5c0.1-0.2,0.3-0.3,0.4-0.3h0.5l-1-2l-3.1,2H4c0.2,0,0.4,0.1,0.4,0.3
		c0.1,0.2,0.1,0.4,0,0.5L1.8,8.2h2.6c0.2,0,0.3,0.1,0.4,0.2c0.1,0.1,0.1,0.3,0,0.5L2.7,13c-0.1,0.2-0.3,0.3-0.4,0.3H1.3z"/>
</g>
</svg>
