<?xml version="1.0" encoding="utf-8"?>
<!-- Generator: Adobe Illustrator 20.1.0, SVG Export Plug-In . SVG Version: 6.00 Build 0)  -->
<svg version="1.1" id="_x31_._Index_copy_2" xmlns="http://www.w3.org/2000/svg" xmlns:xlink="http://www.w3.org/1999/xlink"
	 x="0px" y="0px" viewBox="0 0 33.7 38.6" style="enable-background:new 0 0 33.7 38.6;" xml:space="preserve">
<style type="text/css">
	.st0{fill:#313131;}
</style>
<g>
	<path class="st0" d="M18.5,28.3c-0.2,0-0.4-0.1-0.5-0.2c-0.3-0.3-0.3-0.8,0-1.1l2-1.9c0.3-0.3,0.8-0.3,1.1,0c0.3,0.3,0.3,0.8,0,1.1
		l-2,1.9C18.9,28.2,18.7,28.3,18.5,28.3z"/>
</g>
<g>
	<path class="st0" d="M20.7,30.1c-0.2,0-0.4-0.1-0.5-0.2c-0.3-0.3-0.3-0.8,0-1.1l2-1.9c0.3-0.3,0.8-0.3,1.1,0c0.3,0.3,0.3,0.8,0,1.1
		l-2,1.9C21.1,30,20.9,30.1,20.7,30.1z"/>
</g>
<g>
	<path class="st0" d="M32.9,36.1c-0.4,0-0.8-0.3-0.8-0.8v-2c0-0.1,0.1-1.3-1.1-2.4c-0.7-0.7-2.4-0.7-3.7-0.7c-0.9,0-1.7,0-2.2-0.2
		c-1.2-0.5-6.6-6.1-8.2-7.9c-0.1-0.1-0.2-0.3-0.2-0.5v-3.2C17,16,18.3,5.3,19.4,1.5H1.6c0.3,3.4,1.5,16.2,1.5,19.6
		C3.1,21.2,3,33.8,3,33.8l-1.5,0c0,0,0.1-12.6,0.1-12.7C1.6,17.3,0,1,0,0.8c0-0.2,0-0.4,0.2-0.6C0.3,0.1,0.5,0,0.8,0h19.8
		c0.3,0,0.5,0.2,0.7,0.4c0.1,0.2,0.1,0.5,0,0.8c-0.8,1.3-2.2,11.3-2.9,17.4l0,2.8c3.2,3.4,6.8,7,7.5,7.3c0.3,0.1,1,0.1,1.7,0.1
		c1.6,0,3.6,0,4.8,1.1c1.7,1.7,1.5,3.5,1.5,3.6l0,1.9C33.7,35.7,33.4,36.1,32.9,36.1z"/>
</g>
<g>
	<path class="st0" d="M11.2,38.6H2.3c-0.4,0-0.8-0.3-0.8-0.8v-4.2c0-0.4,0.3-0.8,0.8-0.8h9.1c0.1,0,0.1,0,0.2,0l7.1,1.7l14.3,0
		c0.2,0,0.4,0.1,0.5,0.2c0.1,0.1,0.2,0.3,0.2,0.5l-0.1,2.3c0,0.4-0.3,0.7-0.7,0.7L16,38.4c-0.1,0-0.1,0-0.2,0l-4-0.9v0.3
		C11.9,38.3,11.6,38.6,11.2,38.6z M3,37.1h7.4v-0.5c0-0.2,0.1-0.4,0.3-0.6c0.2-0.1,0.4-0.2,0.6-0.1l4.8,1l16-0.1l0-0.8l-13.6,0
		c-0.1,0-0.1,0-0.2,0l-7.1-1.7H3V37.1z"/>
</g>
<g>
	<path class="st0" d="M12.4,34.1c-0.4,0-0.8-0.3-0.8-0.8c0-8,5.5-11.3,5.7-11.4c0.4-0.2,0.8-0.1,1,0.3c0.2,0.4,0.1,0.8-0.3,1l0,0
		c-0.2,0.1-5,3-5,10.1C13.2,33.7,12.8,34.1,12.4,34.1z"/>
</g>
<g>
	<path class="st0" d="M17,19.7c-0.1,0-0.2,0-0.3-0.1c-0.2-0.1-3.8-2-3.3-8.6c0.2-2.4,0.9-4.1,2.3-5.2c1.7-1.4,3.6-1.2,3.7-1.2
		c0.4,0,0.7,0.4,0.7,0.8c0,0.4-0.4,0.7-0.8,0.7c0,0-1.4-0.1-2.6,0.8c-1,0.8-1.6,2.2-1.7,4.1c-0.4,5.7,2.4,7.2,2.5,7.2
		c0.4,0.2,0.5,0.6,0.3,1C17.5,19.6,17.3,19.7,17,19.7z"/>
</g>
<g>
	<path class="st0" d="M25.6,33.2c-0.4,0-0.7-0.3-0.7-0.7c-0.1-2.6,0.7-3.4,1-3.6c0.3-0.2,0.8-0.2,1,0.2c0.2,0.3,0.2,0.8-0.1,1
		c0,0.1-0.5,0.6-0.4,2.3C26.4,32.8,26,33.2,25.6,33.2C25.6,33.2,25.6,33.2,25.6,33.2z"/>
</g>
<g>
	<path class="st0" d="M12.1,4.5H1.3c-0.4,0-0.8-0.3-0.8-0.8S0.9,3,1.3,3h10.8c0.4,0,0.8,0.3,0.8,0.8S12.5,4.5,12.1,4.5z"/>
</g>
</svg>
