<?xml version="1.0" encoding="utf-8"?>
<!-- Generator: Adobe Illustrator 20.1.0, SVG Export Plug-In . SVG Version: 6.00 Build 0)  -->
<svg version="1.1" id="_x31_._Index_copy_2" xmlns="http://www.w3.org/2000/svg" xmlns:xlink="http://www.w3.org/1999/xlink"
	 x="0px" y="0px" viewBox="0 0 33.5 44.1" style="enable-background:new 0 0 33.5 44.1;" xml:space="preserve">
<style type="text/css">
	.st0{fill:#313131;}
</style>
<g>
	<path class="st0" d="M27.3,17.4c-0.4,0-0.8-0.3-0.8-0.8c0-6.9-4.2-14.2-12.1-14.2C7.4,2.5,2.4,7.4,1.9,14.7c0,0.4-0.4,0.7-0.8,0.7
		c-0.4,0-0.7-0.4-0.7-0.8C0.9,6.6,6.7,1,14.5,1C22.2,1,28,7.7,28,16.6C28,17.1,27.7,17.4,27.3,17.4z"/>
</g>
<g>
	<path class="st0" d="M13.9,44.1c-3.8,0-6.9-2.7-6.9-5.9s3.1-5.9,6.9-5.9s6.9,2.7,6.9,5.9S17.7,44.1,13.9,44.1z M13.9,33.7
		c-3,0-5.4,2-5.4,4.4s2.4,4.4,5.4,4.4s5.4-2,5.4-4.4S16.9,33.7,13.9,33.7z"/>
</g>
<g>
	<path class="st0" d="M20.1,38.9c-0.4,0-0.8-0.3-0.8-0.8v-5.5c0-2.4-2.4-4.4-5.4-4.4s-5.4,2-5.4,4.4v5.5c0,0.4-0.3,0.8-0.8,0.8
		S7,38.6,7,38.2v-5.5c0-3.3,3.1-5.9,6.9-5.9s6.9,2.7,6.9,5.9v5.5C20.8,38.6,20.5,38.9,20.1,38.9z"/>
</g>
<g>
	<path class="st0" d="M7.4,32.8c-0.1,0-0.2,0-0.2,0c-2.4-0.8-3.9-3.4-4.7-5.4c-0.2-0.4,0-0.8,0.4-1c0.4-0.2,0.8,0,1,0.4
		c0.7,1.7,1.9,3.9,3.7,4.5c0.4,0.1,0.6,0.6,0.5,0.9C8.1,32.6,7.8,32.8,7.4,32.8z"/>
</g>
<g>
	<path class="st0" d="M20.8,32.8c-0.3,0-0.6-0.2-0.7-0.5c-0.1-0.4,0.1-0.8,0.5-0.9c2.6-0.9,4-5,4.4-6.6c0.1-0.4,0.5-0.7,0.9-0.6
		c0.4,0.1,0.7,0.5,0.6,0.9c-0.1,0.3-1.4,6.4-5.4,7.7C21,32.7,20.9,32.8,20.8,32.8z"/>
</g>
<g>
	<path class="st0" d="M24.6,39.1h-4.4c-0.4,0-0.8-0.3-0.8-0.8V34c0-0.4,0.3-0.8,0.8-0.8h4.4c0.4,0,0.8,0.3,0.8,0.8v4.4
		C25.3,38.8,25,39.1,24.6,39.1z M20.9,37.6h2.9v-2.9h-2.9V37.6z"/>
</g>
<g>
	<path class="st0" d="M29.4,42.2h-2.7c-1.5,0-2.8-1.2-2.8-2.8V33c0-1.5,1.2-2.7,2.8-2.7h2.7c0.4,0,0.8,0.3,0.8,0.8v10.4
		C30.2,41.9,29.9,42.2,29.4,42.2z M26.8,31.8c-0.7,0-1.3,0.6-1.3,1.2v6.4c0,0.7,0.6,1.3,1.3,1.3h1.9v-8.9H26.8z"/>
</g>
<g>
	<path class="st0" d="M29.9,42.2h-0.3c-0.4,0-0.8-0.3-0.8-0.8V31c0-0.4,0.3-0.8,0.8-0.8H30c2,0,3.6,1.6,3.6,3.6v4.8
		C33.5,40.6,31.9,42.2,29.9,42.2z M30.3,31.8v8.8c1-0.2,1.7-1,1.7-2.1v-4.8C32,32.8,31.3,32,30.3,31.8z"/>
</g>
<g>
	<path class="st0" d="M7.4,4.3c-0.2,0-0.5-0.1-0.6-0.3L4.9,1.2c-0.2-0.3-0.1-0.8,0.2-1c0.3-0.2,0.8-0.1,1,0.2L8,3.1
		c0.2,0.3,0.1,0.8-0.2,1C7.7,4.2,7.5,4.3,7.4,4.3z"/>
</g>
<g>
	<path class="st0" d="M20.7,3.8c-0.1,0-0.2,0-0.4-0.1c-0.4-0.2-0.5-0.7-0.3-1l1.3-2.3c0.2-0.4,0.7-0.5,1-0.3c0.4,0.2,0.5,0.7,0.3,1
		l-1.3,2.3C21.2,3.7,21,3.8,20.7,3.8z"/>
</g>
<g>
	<path class="st0" d="M4.9,27.8c-0.5,0-1.2-0.1-1.8-0.6c-1-0.7-3.7-5.4-2.9-10.2c0.3-1.8,1.1-3.4,2.3-4.6c1.3-1.3,3.2-1.9,5.1-1.6
		l0,0c2.2,0.3,3.7,1.2,4.5,2.6c0.9,1.6,0.8,3.8-0.3,6.5c-1.9,4.6-3.9,7.2-6,7.8C5.5,27.8,5.2,27.8,4.9,27.8z M6.7,12.3
		c-1.2,0-2.4,0.5-3.2,1.3c-1,1-1.7,2.3-1.9,3.8c-0.7,4.2,1.7,8.3,2.3,8.7c0.5,0.3,1,0.4,1.5,0.3c0.9-0.3,2.8-1.5,5-6.9
		c1-2.3,1.1-4,0.4-5.2c-0.7-1.2-2.3-1.7-3.4-1.8C7.2,12.3,6.9,12.3,6.7,12.3z"/>
</g>
<g>
	<path class="st0" d="M23.1,27.8c-0.3,0-0.7-0.1-0.9-0.1c-2.1-0.6-4.1-3.2-6-7.8c-1.1-2.7-1.3-4.9-0.3-6.5c0.8-1.4,2.4-2.3,4.5-2.6
		l0,0c1.9-0.2,3.8,0.4,5.1,1.6c1.2,1.2,2,2.8,2.3,4.6c0.8,4.7-1.9,9.5-2.9,10.2C24.3,27.7,23.7,27.8,23.1,27.8z M20.6,12.3
		c-1.2,0.2-2.7,0.6-3.4,1.8c-0.7,1.2-0.5,2.9,0.4,5.2c2.3,5.4,4.1,6.7,5,6.9c0.5,0.2,1,0.1,1.5-0.3c0.6-0.4,3-4.5,2.3-8.7
		c-0.3-1.5-0.9-2.8-1.9-3.8C23.5,12.6,22,12.1,20.6,12.3L20.6,12.3z M20.5,11.6L20.5,11.6L20.5,11.6z"/>
</g>
</svg>
