<?xml version="1.0" encoding="utf-8"?>
<!-- Generator: Adobe Illustrator 20.1.0, SVG Export Plug-In . SVG Version: 6.00 Build 0)  -->
<svg version="1.1" id="_x31_._Index_copy_2" xmlns="http://www.w3.org/2000/svg" xmlns:xlink="http://www.w3.org/1999/xlink"
	 x="0px" y="0px" viewBox="0 0 22.5 22.5" style="enable-background:new 0 0 22.5 22.5;" xml:space="preserve">
<style type="text/css">
	.st0{fill:#313131;}
</style>
<g>
	<path class="st0" d="M11.3,22.5C5,22.5,0,17.5,0,11.2S5,0,11.3,0s11.2,5,11.2,11.3S17.5,22.5,11.3,22.5z M11.3,1.5
		c-5.4,0-9.8,4.4-9.8,9.8S5.9,21,11.3,21s9.7-4.4,9.7-9.7S16.6,1.5,11.3,1.5z"/>
</g>
<g>
	<path class="st0" d="M16.8,12.7h-5.5c-0.4,0-0.8-0.3-0.8-0.8V4.1c0-0.4,0.3-0.8,0.8-0.8S12,3.7,12,4.1v7.1h4.7
		c0.4,0,0.8,0.3,0.8,0.8S17.2,12.7,16.8,12.7z"/>
</g>
</svg>
