<?xml version="1.0" encoding="utf-8"?>
<!-- Generator: Adobe Illustrator 20.1.0, SVG Export Plug-In . SVG Version: 6.00 Build 0)  -->
<svg version="1.1" id="technical_page" xmlns="http://www.w3.org/2000/svg" xmlns:xlink="http://www.w3.org/1999/xlink" x="0px"
	 y="0px" viewBox="0 0 44.9 29" style="enable-background:new 0 0 44.9 29;" xml:space="preserve">
<style type="text/css">
	.st0{fill:#313131;}
</style>
<g>
	<path class="st0" d="M22.4,19.8H0.8c-0.4,0-0.8-0.3-0.8-0.8V9.9c0-0.4,0.3-0.8,0.8-0.8h21.7c0.4,0,0.8,0.3,0.8,0.8v9.2
		C23.2,19.5,22.8,19.8,22.4,19.8z M1.5,18.3h20.2v-7.7H1.5V18.3z"/>
</g>
<g>
	<path class="st0" d="M44.1,19.8H22.4c-0.4,0-0.8-0.3-0.8-0.8V9.9c0-0.4,0.3-0.8,0.8-0.8h21.7c0.4,0,0.8,0.3,0.8,0.8v9.2
		C44.9,19.5,44.5,19.8,44.1,19.8z M23.2,18.3h20.2v-7.7H23.2V18.3z"/>
</g>
<g>
	<path class="st0" d="M26.3,16.9c-0.4,0-0.8-0.3-0.8-0.8v-3.7c0-0.4,0.3-0.8,0.8-0.8s0.8,0.3,0.8,0.8v3.7
		C27.1,16.5,26.7,16.9,26.3,16.9z"/>
</g>
<g>
	<path class="st0" d="M30.7,16.9c-0.4,0-0.8-0.3-0.8-0.8v-3.7c0-0.4,0.3-0.8,0.8-0.8s0.8,0.3,0.8,0.8v3.7
		C31.5,16.5,31.1,16.9,30.7,16.9z"/>
</g>
<g>
	<path class="st0" d="M35.1,16.9c-0.4,0-0.8-0.3-0.8-0.8v-3.7c0-0.4,0.3-0.8,0.8-0.8s0.8,0.3,0.8,0.8v3.7
		C35.8,16.5,35.5,16.9,35.1,16.9z"/>
</g>
<g>
	<path class="st0" d="M39.5,16.9c-0.4,0-0.8-0.3-0.8-0.8v-3.7c0-0.4,0.3-0.8,0.8-0.8s0.8,0.3,0.8,0.8v3.7
		C40.2,16.5,39.9,16.9,39.5,16.9z"/>
</g>
<g>
	<path class="st0" d="M22.4,10.7H0.8C0.3,10.7,0,10.3,0,9.9V0.8C0,0.3,0.3,0,0.8,0h21.7c0.4,0,0.8,0.3,0.8,0.8v9.2
		C23.2,10.3,22.8,10.7,22.4,10.7z M1.5,9.2h20.2V1.5H1.5V9.2z"/>
</g>
<g>
	<path class="st0" d="M4.6,7.7C4.2,7.7,3.9,7.4,3.9,7V3.2c0-0.4,0.3-0.8,0.8-0.8s0.8,0.3,0.8,0.8V7C5.4,7.4,5,7.7,4.6,7.7z"/>
</g>
<g>
	<path class="st0" d="M9,7.7C8.6,7.7,8.3,7.4,8.3,7V3.2c0-0.4,0.3-0.8,0.8-0.8s0.8,0.3,0.8,0.8V7C9.8,7.4,9.4,7.7,9,7.7z"/>
</g>
<g>
	<path class="st0" d="M13.4,7.7c-0.4,0-0.8-0.3-0.8-0.8V3.2c0-0.4,0.3-0.8,0.8-0.8s0.8,0.3,0.8,0.8V7C14.2,7.4,13.8,7.7,13.4,7.7z"
		/>
</g>
<g>
	<path class="st0" d="M17.8,7.7c-0.4,0-0.8-0.3-0.8-0.8V3.2c0-0.4,0.3-0.8,0.8-0.8s0.8,0.3,0.8,0.8V7C18.6,7.4,18.2,7.7,17.8,7.7z"
		/>
</g>
<g>
	<path class="st0" d="M22.4,29H0.8C0.3,29,0,28.6,0,28.2v-9.2c0-0.4,0.3-0.8,0.8-0.8h21.7c0.4,0,0.8,0.3,0.8,0.8v9.2
		C23.2,28.6,22.8,29,22.4,29z M1.5,27.5h20.2v-7.7H1.5V27.5z"/>
</g>
<g>
	<path class="st0" d="M4.6,26c-0.4,0-0.8-0.3-0.8-0.8v-3.7c0-0.4,0.3-0.8,0.8-0.8s0.8,0.3,0.8,0.8v3.7C5.4,25.7,5,26,4.6,26z"/>
</g>
<g>
	<path class="st0" d="M9,26c-0.4,0-0.8-0.3-0.8-0.8v-3.7c0-0.4,0.3-0.8,0.8-0.8s0.8,0.3,0.8,0.8v3.7C9.8,25.7,9.4,26,9,26z"/>
</g>
<g>
	<path class="st0" d="M13.4,26c-0.4,0-0.8-0.3-0.8-0.8v-3.7c0-0.4,0.3-0.8,0.8-0.8s0.8,0.3,0.8,0.8v3.7C14.2,25.7,13.8,26,13.4,26z"
		/>
</g>
<g>
	<path class="st0" d="M17.8,26c-0.4,0-0.8-0.3-0.8-0.8v-3.7c0-0.4,0.3-0.8,0.8-0.8s0.8,0.3,0.8,0.8v3.7C18.6,25.7,18.2,26,17.8,26z"
		/>
</g>
<g>
	<path class="st0" d="M11.6,19.8c-0.4,0-0.8-0.3-0.8-0.8v-8.6c0-0.4,0.3-0.8,0.8-0.8s0.8,0.3,0.8,0.8v8.6
		C12.4,19.5,12,19.8,11.6,19.8z"/>
</g>
<g>
	<path class="st0" d="M44.1,29H22.4c-0.4,0-0.8-0.3-0.8-0.8v-9.2c0-0.4,0.3-0.8,0.8-0.8h21.7c0.4,0,0.8,0.3,0.8,0.8v9.2
		C44.9,28.6,44.5,29,44.1,29z M23.2,27.5h20.2v-7.7H23.2V27.5z"/>
</g>
<g>
	<path class="st0" d="M33.3,29c-0.4,0-0.8-0.3-0.8-0.8v-8.6c0-0.4,0.3-0.8,0.8-0.8s0.8,0.3,0.8,0.8v8.6C34,28.6,33.7,29,33.3,29z"/>
</g>
</svg>
