<?xml version="1.0" encoding="utf-8"?>
<!-- Generator: Adobe Illustrator 20.1.0, SVG Export Plug-In . SVG Version: 6.00 Build 0)  -->
<svg version="1.1" id="technical_page" xmlns="http://www.w3.org/2000/svg" xmlns:xlink="http://www.w3.org/1999/xlink" x="0px"
	 y="0px" viewBox="0 0 30.3 28.9" style="enable-background:new 0 0 30.3 28.9;" xml:space="preserve">
<style type="text/css">
	.st0{fill:#313131;}
	.st1{fill:#EE5655;}
	.st2{fill:#FFFFFF;}
</style>
<g>
	<path class="st0" d="M25.6,28.9H0.8c-0.4,0-0.8-0.3-0.8-0.8V0.8C0,0.3,0.3,0,0.8,0h24.9c0.4,0,0.8,0.3,0.8,0.8v11.1
		c0,0.4-0.3,0.8-0.8,0.8s-0.8-0.3-0.8-0.8V1.5H1.5v25.9h24.1c0.4,0,0.8,0.3,0.8,0.8S26.1,28.9,25.6,28.9z"/>
</g>
<g>
	<path class="st0" d="M20.6,7.3H5.9C5.5,7.3,5.1,7,5.1,6.5s0.3-0.8,0.8-0.8h14.7c0.4,0,0.8,0.3,0.8,0.8S21,7.3,20.6,7.3z"/>
</g>
<g>
	<path class="st0" d="M20.5,11.6H5.9c-0.4,0-0.8-0.3-0.8-0.8s0.3-0.8,0.8-0.8h14.7c0.4,0,0.8,0.3,0.8,0.8S21,11.6,20.5,11.6z"/>
</g>
<g>
	<rect x="10.9" y="14.5" class="st1" width="19.3" height="9.6"/>
</g>
<g>
	<path class="st2" d="M14.9,16.7h2.1c2.5,0,2.5,3.6,0,3.6h-1V22h-1.1V16.7z M16.9,19.4c1.1,0,1.1-1.5,0-1.5h-1v1.5H16.9z"/>
	<path class="st2" d="M21.4,16.7c1,0,2,0.5,2,1.7v1.9c0,1.2-1,1.7-2,1.7h-1.9v-5.3H21.4z M21.4,20.9c0.5,0,0.9-0.2,0.9-0.6v-1.9
		c0-0.4-0.4-0.6-0.9-0.6h-0.8v3.1H21.4z"/>
	<path class="st2" d="M25.3,19h2.2v1.1h-2.2v2h-1.1v-5.3h3.6v1.1h-2.5V19z"/>
</g>
</svg>
