<?xml version="1.0" encoding="utf-8"?>
<!-- Generator: Adobe Illustrator 20.1.0, SVG Export Plug-In . SVG Version: 6.00 Build 0)  -->
<svg version="1.1" id="technical_page" xmlns="http://www.w3.org/2000/svg" xmlns:xlink="http://www.w3.org/1999/xlink" x="0px"
	 y="0px" viewBox="0 0 30.2 28.9" style="enable-background:new 0 0 30.2 28.9;" xml:space="preserve">
<style type="text/css">
	.st0{fill:#313131;}
	.st1{fill:#2DA84D;}
	.st2{fill:#FFFFFF;}
	.st3{font-family:'UniSansBold';}
	.st4{font-size:7.4418px;}
</style>
<g>
	<path class="st0" d="M25.6,28.9H0.8c-0.4,0-0.8-0.3-0.8-0.8V0.8C0,0.3,0.3,0,0.8,0h24.9c0.4,0,0.8,0.3,0.8,0.8v11.1
		c0,0.4-0.3,0.8-0.8,0.8s-0.8-0.3-0.8-0.8V1.5H1.5v25.9h24.1c0.4,0,0.8,0.3,0.8,0.8S26.1,28.9,25.6,28.9z"/>
</g>
<g>
	<path class="st0" d="M20.6,7.3H5.9C5.4,7.3,5.1,7,5.1,6.5s0.3-0.8,0.8-0.8h14.7c0.4,0,0.8,0.3,0.8,0.8S21,7.3,20.6,7.3z"/>
</g>
<g>
	<path class="st0" d="M20.5,11.6H5.9c-0.4,0-0.8-0.3-0.8-0.8s0.3-0.8,0.8-0.8h14.7c0.4,0,0.8,0.3,0.8,0.8S21,11.6,20.5,11.6z"/>
</g>
<rect x="10.9" y="14.5" class="st1" width="19.3" height="9.6"/>
<text transform="matrix(1 0 0 1 13.7651 22.0162)" class="st2 st3 st4">JPG</text>
</svg>
