<?xml version="1.0" encoding="utf-8"?>
<!-- Generator: Adobe Illustrator 20.1.0, SVG Export Plug-In . SVG Version: 6.00 Build 0)  -->
<svg version="1.1" id="_x31_._Index_copy_2" xmlns="http://www.w3.org/2000/svg" xmlns:xlink="http://www.w3.org/1999/xlink"
	 x="0px" y="0px" viewBox="0 0 52.3 31.5" style="enable-background:new 0 0 52.3 31.5;" xml:space="preserve">
<style type="text/css">
	.st0{fill:#313131;}
</style>
<g>
	<path class="st0" d="M14.3,27.4c-4.1,0-7.4-3.3-7.4-7.4s3.3-7.4,7.4-7.4s7.4,3.3,7.4,7.4S18.4,27.4,14.3,27.4z M14.3,14.1
		c-3.3,0-5.9,2.7-5.9,5.9s2.7,5.9,5.9,5.9s5.9-2.7,5.9-5.9S17.6,14.1,14.3,14.1z"/>
</g>
<g>
	<path class="st0" d="M38.3,27.4c-4.1,0-7.4-3.3-7.4-7.4s3.3-7.4,7.4-7.4s7.4,3.3,7.4,7.4S42.4,27.4,38.3,27.4z M38.3,14.1
		c-3.3,0-5.9,2.7-5.9,5.9s2.7,5.9,5.9,5.9s5.9-2.7,5.9-5.9S41.5,14.1,38.3,14.1z"/>
</g>
<g>
	<path class="st0" d="M14.3,31.5C8,31.5,2.8,26.3,2.8,20C2.8,13.7,8,8.5,14.3,8.5S25.8,13.7,25.8,20C25.8,26.3,20.6,31.5,14.3,31.5z
		 M14.3,10c-5.5,0-10,4.5-10,10c0,5.5,4.5,10,10,10s10-4.5,10-10C24.3,14.5,19.8,10,14.3,10z"/>
</g>
<g>
	<path class="st0" d="M37.9,31.5c-6.3,0-11.5-5.1-11.5-11.5c0-6.3,5.1-11.5,11.5-11.5S49.3,13.7,49.3,20
		C49.3,26.3,44.2,31.5,37.9,31.5z M37.9,10c-5.5,0-10,4.5-10,10c0,5.5,4.5,10,10,10s10-4.5,10-10C47.8,14.5,43.4,10,37.9,10z"/>
</g>
<g>
	<path class="st0" d="M14.3,8.5c-1.9,0-11.5-0.1-11.5-2.9c0-2.7,9.6-2.9,11.5-2.9s11.5,0.1,11.5,2.9C25.8,8.4,16.2,8.5,14.3,8.5z
		 M4.4,5.6C5.2,6.2,8.6,7,14.3,7s9.1-0.8,9.8-1.4c-0.8-0.5-4.1-1.4-9.8-1.4S5.2,5.1,4.4,5.6z M24.3,5.8L24.3,5.8L24.3,5.8z"/>
</g>
<g>
	<path class="st0" d="M37.9,8.5c-1.9,0-11.5-0.1-11.5-2.9c0-2.7,9.6-2.9,11.5-2.9s11.5,0.1,11.5,2.9C49.3,8.4,39.8,8.5,37.9,8.5z
		 M28,5.6C28.8,6.2,32.1,7,37.9,7c5.7,0,9.1-0.8,9.8-1.4c-0.8-0.5-4.1-1.4-9.8-1.4S28.8,5.1,28,5.6z M47.9,5.8L47.9,5.8L47.9,5.8z"
		/>
</g>
<g>
	<path class="st0" d="M3.6,6.4C3.2,6.4,2.8,6,2.8,5.6V2.9C2.8,0.1,12.4,0,14.3,0s11.5,0.1,11.5,2.9v2.5c0,0.4-0.3,0.8-0.8,0.8
		s-0.8-0.3-0.8-0.8V3c-0.5-0.5-3.9-1.5-10-1.5S4.8,2.4,4.3,3v2.7C4.3,6,4,6.4,3.6,6.4z"/>
</g>
<g>
	<path class="st0" d="M48.6,6.4c-0.4,0-0.8-0.3-0.8-0.8V3c-0.5-0.5-3.9-1.5-10-1.5c-6.1,0-9.5,0.9-10,1.5v2.4c0,0.4-0.3,0.8-0.8,0.8
		s-0.8-0.3-0.8-0.8V2.9c0-2.7,9.6-2.9,11.5-2.9s11.5,0.1,11.5,2.9v2.8C49.3,6,49,6.4,48.6,6.4z"/>
</g>
<g>
	<path class="st0" d="M21.3,29.2c-0.1,0-0.3,0-0.4-0.1c-0.4-0.2-0.5-0.7-0.3-1c1.1-1.9,3.2-3.1,5.4-3.1c2.1,0,4,1,5.2,2.7
		c0.2,0.3,0.1,0.8-0.2,1c-0.3,0.2-0.8,0.1-1-0.2c-0.9-1.3-2.4-2.1-4-2.1c-1.7,0-3.3,0.9-4.1,2.3C21.8,29,21.6,29.2,21.3,29.2z"/>
</g>
<g>
	<path class="st0" d="M26.1,8.2c-1.4,0-2.5-0.7-2.6-0.8c-0.3-0.2-0.4-0.7-0.2-1c0.2-0.3,0.7-0.4,1-0.2c0.1,0.1,1.7,1.1,3.1,0.1
		c0.3-0.2,0.8-0.1,1,0.2c0.2,0.3,0.1,0.8-0.2,1C27.6,8.1,26.8,8.2,26.1,8.2z"/>
</g>
<g>
	<path class="st0" d="M26.1,5.8c-0.7,0-1.4-0.2-1.9-0.4c-0.4-0.2-0.6-0.6-0.4-1c0.2-0.4,0.6-0.6,1-0.4c0.5,0.2,1.2,0.4,1.9,0.2
		c0.4-0.1,0.8,0.1,0.9,0.5c0.1,0.4-0.1,0.8-0.5,0.9C26.8,5.8,26.5,5.8,26.1,5.8z"/>
</g>
<g>
	<path class="st0" d="M33.3,10.6H18.7c-0.4,0-0.8-0.3-0.8-0.8s0.3-0.8,0.8-0.8h14.6c0.4,0,0.8,0.3,0.8,0.8S33.7,10.6,33.3,10.6z"/>
</g>
<g>
	<path class="st0" d="M10.1,10.4c-0.4,0-0.8-0.3-0.8-0.8V8.1c0-0.4,0.3-0.8,0.8-0.8s0.8,0.3,0.8,0.8v1.6
		C10.8,10.1,10.5,10.4,10.1,10.4z"/>
</g>
<g>
	<path class="st0" d="M42.9,10.4c-0.4,0-0.8-0.3-0.8-0.8V8.1c0-0.4,0.3-0.8,0.8-0.8s0.8,0.3,0.8,0.8v1.6
		C43.7,10.1,43.4,10.4,42.9,10.4z"/>
</g>
<g>
	<path class="st0" d="M5.5,30.7c-0.2,0-0.3-0.1-0.5-0.2C1.8,27.9,0,24.1,0,20c0-4.4,2.1-8.5,5.7-11c0.3-0.2,0.8-0.2,1,0.2
		c0.2,0.3,0.2,0.8-0.2,1c-3.2,2.3-5.1,5.9-5.1,9.8c0,3.6,1.6,7,4.4,9.3c0.3,0.3,0.4,0.7,0.1,1.1C5.9,30.6,5.7,30.7,5.5,30.7z"/>
</g>
<g>
	<path class="st0" d="M46.1,30.7c-0.2,0-0.5-0.1-0.6-0.3c-0.2-0.3-0.2-0.8,0.2-1c3.2-2.3,5.1-5.9,5.1-9.8c0-3.6-1.6-7-4.4-9.3
		C46,9.9,46,9.4,46.2,9.1C46.5,8.8,47,8.7,47.3,9c3.2,2.6,5,6.4,5,10.5c0,4.4-2.1,8.5-5.7,11C46.4,30.6,46.3,30.7,46.1,30.7z"/>
</g>
</svg>
