<?xml version="1.0" encoding="utf-8"?>
<!-- Generator: Adobe Illustrator 20.1.0, SVG Export Plug-In . SVG Version: 6.00 Build 0)  -->
<svg version="1.1" id="Isolation_Mode" xmlns="http://www.w3.org/2000/svg" xmlns:xlink="http://www.w3.org/1999/xlink" x="0px"
	 y="0px" viewBox="0 0 6.5 12.8" style="enable-background:new 0 0 6.5 12.8;" xml:space="preserve">
<style type="text/css">
	.st0{fill:#FFFFFF;}
</style>
<g id="XMLID_1_">
	<path id="XMLID_2_" class="st0" d="M0.2,6.8h1.4v5.8c0,0.1,0.1,0.2,0.2,0.2h2.4c0.1,0,0.2-0.1,0.2-0.2V6.8H6c0.1,0,0.2-0.1,0.2-0.2
		l0.2-2.1c0-0.1,0-0.1-0.1-0.2c0,0-0.1-0.1-0.2-0.1H4.4V3c0-0.4,0.2-0.6,0.6-0.6c0.1,0,1.2,0,1.2,0c0.1,0,0.2-0.1,0.2-0.2v-2
		C6.5,0.1,6.4,0,6.3,0H4.6c0,0,0,0-0.1,0C4.2,0,3.2,0.1,2.4,0.8c-0.9,0.8-0.8,1.8-0.7,2v1.6H0.2C0.1,4.3,0,4.4,0,4.5v2.1
		C0,6.7,0.1,6.8,0.2,6.8z"/>
</g>
</svg>
