<?xml version="1.0" encoding="utf-8"?>
<!-- Generator: Adobe Illustrator 20.1.0, SVG Export Plug-In . SVG Version: 6.00 Build 0)  -->
<svg version="1.1" id="technical_page" xmlns="http://www.w3.org/2000/svg" xmlns:xlink="http://www.w3.org/1999/xlink" x="0px"
	 y="0px" viewBox="0 0 48.4 29.2" style="enable-background:new 0 0 48.4 29.2;" xml:space="preserve">
<style type="text/css">
	.st0{fill:#313131;}
</style>
<g>
	<g>
		<path class="st0" d="M4.7,25.3h-4C0.3,25.3,0,25,0,24.6V0.8C0,0.3,0.3,0,0.8,0h34.1c0.4,0,0.8,0.3,0.8,0.8v21.9
			c0,0.4-0.3,0.8-0.8,0.8s-0.8-0.3-0.8-0.8V1.5H1.5v22.3h3.2c0.4,0,0.8,0.3,0.8,0.8S5.1,25.3,4.7,25.3z"/>
	</g>
	<g>
		<path class="st0" d="M33.9,25.3H12.5c-0.4,0-0.8-0.3-0.8-0.8s0.3-0.8,0.8-0.8h21.4c0.4,0,0.8,0.3,0.8,0.8S34.3,25.3,33.9,25.3z"/>
	</g>
	<g>
		<path class="st0" d="M47.7,25.3h-5.3c-0.4,0-0.8-0.3-0.8-0.8s0.3-0.8,0.8-0.8h4.6V8.3l-3-2.9h-8.3v16.9c0,0.4-0.3,0.8-0.8,0.8
			s-0.8-0.3-0.8-0.8V4.6c0-0.4,0.3-0.8,0.8-0.8h9.3c0.2,0,0.4,0.1,0.5,0.2l3.5,3.4c0.1,0.1,0.2,0.3,0.2,0.5v16.6
			C48.4,25,48.1,25.3,47.7,25.3z"/>
	</g>
	<g>
		<path class="st0" d="M47.7,14.5H39c-0.4,0-0.8-0.3-0.8-0.8V4.6c0-0.4,0.3-0.8,0.8-0.8s0.8,0.3,0.8,0.8V13h7.9
			c0.4,0,0.8,0.3,0.8,0.8S48.1,14.5,47.7,14.5z"/>
	</g>
	<g>
		<path class="st0" d="M41.3,17.2H39c-0.4,0-0.8-0.3-0.8-0.8s0.3-0.8,0.8-0.8h2.3c0.4,0,0.8,0.3,0.8,0.8S41.7,17.2,41.3,17.2z"/>
	</g>
	<g>
		<path class="st0" d="M8.6,29.2C6,29.2,4,27.1,4,24.6s2.1-4.7,4.7-4.7c2.6,0,4.7,2.1,4.7,4.7S11.2,29.2,8.6,29.2z M8.6,21.4
			c-1.7,0-3.2,1.4-3.2,3.2s1.4,3.2,3.2,3.2c1.7,0,3.2-1.4,3.2-3.2S10.4,21.4,8.6,21.4z"/>
	</g>
	<g>
		<path class="st0" d="M38.3,29.2c-2.6,0-4.7-2.1-4.7-4.7s2.1-4.7,4.7-4.7s4.7,2.1,4.7,4.7S40.9,29.2,38.3,29.2z M38.3,21.4
			c-1.7,0-3.2,1.4-3.2,3.2s1.4,3.2,3.2,3.2s3.2-1.4,3.2-3.2S40,21.4,38.3,21.4z"/>
	</g>
	<g>
		<path class="st0" d="M8.6,26c-0.8,0-1.4-0.6-1.4-1.4c0-0.8,0.6-1.4,1.4-1.4c0.8,0,1.4,0.6,1.4,1.4C10,25.4,9.4,26,8.6,26z
			 M8.6,24.5c-0.1,0-0.1,0.1-0.1,0.1c0,0.1,0.2,0.1,0.2,0C8.7,24.6,8.7,24.5,8.6,24.5z"/>
	</g>
	<g>
		<path class="st0" d="M38.4,26c-0.8,0-1.4-0.6-1.4-1.4s0.6-1.4,1.4-1.4s1.4,0.6,1.4,1.4S39.2,26,38.4,26z M38.4,24.5
			c-0.1,0-0.1,0.1-0.1,0.1c0,0.1,0.2,0.1,0.2,0C38.6,24.5,38.5,24.5,38.4,24.5z"/>
	</g>
</g>
<g>
	<path class="st0" d="M13.1,12.7c-0.2,0-0.4-0.1-0.5-0.2c-0.3-0.3-0.3-0.8,0-1.1l6-6c0.3-0.3,0.8-0.3,1.1,0c0.3,0.3,0.3,0.8,0,1.1
		l-6,6C13.5,12.6,13.3,12.7,13.1,12.7z"/>
</g>
<g>
	<path class="st0" d="M20.7,14.5c-0.2,0-0.4-0.1-0.5-0.2c-0.3-0.3-0.3-0.8,0-1.1l6-6C26.5,7,27,7,27.3,7.3c0.3,0.3,0.3,0.8,0,1.1
		l-6,6C21.1,14.5,20.9,14.5,20.7,14.5z"/>
</g>
<g>
	<path class="st0" d="M13.7,16.7c-0.2,0-0.4-0.1-0.5-0.2c-0.3-0.3-0.3-0.8,0-1.1l6-6c0.3-0.3,0.8-0.3,1.1,0c0.3,0.3,0.3,0.8,0,1.1
		l-6,6C14.1,16.6,13.9,16.7,13.7,16.7z"/>
</g>
<g>
	<path class="st0" d="M21.3,9.1c-0.2,0-0.4-0.1-0.5-0.2c-0.3-0.3-0.3-0.8,0-1.1l2.4-2.4c0.3-0.3,0.8-0.3,1.1,0
		c0.3,0.3,0.3,0.8,0,1.1l-2.4,2.4C21.7,9,21.5,9.1,21.3,9.1z"/>
</g>
</svg>
