<?xml version="1.0" encoding="utf-8"?>
<!-- Generator: Adobe Illustrator 20.1.0, SVG Export Plug-In . SVG Version: 6.00 Build 0)  -->
<svg version="1.1" id="_x31_._Index_copy_2" xmlns="http://www.w3.org/2000/svg" xmlns:xlink="http://www.w3.org/1999/xlink"
	 x="0px" y="0px" viewBox="0 0 41.4 42.9" style="enable-background:new 0 0 41.4 42.9;" xml:space="preserve">
<style type="text/css">
	.st0{fill:none;stroke:#313131;stroke-width:1.5;stroke-linecap:round;stroke-linejoin:round;stroke-miterlimit:10;}
</style>
<path class="st0" d="M4.7,15.8V4.2c0-1.1,0.9-2,2-2h0c1.1,0,2,0.9,2,2v11.6"/>
<path class="st0" d="M8.7,15.6V2.7c0-1.1,0.9-2,2-2h0c1.1,0,2,0.9,2,2v12.9"/>
<path class="st0" d="M4.7,15.7V8.6c0-1.1-0.9-2-2-2s-2,0.9-2,2V17c0,0.1,0,0.1,0,0.2v20.5c0,0.8,0.7,1.5,1.5,1.5h12.9
	c0.8,0,1.5-0.7,1.5-1.5V27.1L22,15.3c0.5-1,0-2.2-1-2.6c-1-0.5-2.2,0-2.6,1l-1.9,4.1v-0.5c0-0.1,0-0.2,0-0.3
	c0.1-0.2,0.1-0.4,0.1-0.6v-11c0-1.1-0.9-2-2-2s-2,0.9-2,2v10.4"/>
<path class="st0" d="M36.6,27.1v11.6c0,1.1-0.9,2-2,2h0c-1.1,0-2-0.9-2-2V27.1"/>
<path class="st0" d="M32.6,27.3v12.9c0,1.1-0.9,2-2,2h0c-1.1,0-2-0.9-2-2V27.3"/>
<path class="st0" d="M36.6,27.2v7.1c0,1.1,0.9,2,2,2s2-0.9,2-2v-8.4c0-0.1,0-0.1,0-0.2V5.2c0-0.8-0.7-1.5-1.5-1.5H26.2
	c-0.8,0-1.5,0.7-1.5,1.5v10.6l-5.5,11.7c-0.5,1,0,2.2,1,2.6c1,0.5,2.2,0,2.6-1l1.9-4.1v0.5c0,0.1,0,0.2,0,0.3
	c-0.1,0.2-0.1,0.4-0.1,0.6v11c0,1.1,0.9,2,2,2s2-0.9,2-2V27.2"/>
<line class="st0" x1="0.9" y1="35.4" x2="10.9" y2="35.4"/>
<line class="st0" x1="40.6" y1="7.6" x2="31.6" y2="7.6"/>
</svg>
