<?xml version="1.0" encoding="utf-8"?>
<!-- Generator: Adobe Illustrator 20.1.0, SVG Export Plug-In . SVG Version: 6.00 Build 0)  -->
<svg version="1.1" id="_x31_._Index_copy_2" xmlns="http://www.w3.org/2000/svg" xmlns:xlink="http://www.w3.org/1999/xlink"
	 x="0px" y="0px" viewBox="0 0 48.2 38.7" style="enable-background:new 0 0 48.2 38.7;" xml:space="preserve">
<style type="text/css">
	.st0{fill:#313131;}
</style>
<g>
	<path class="st0" d="M15.9,38c-0.2,0-0.4-0.1-0.6-0.3c-0.3-0.3-0.2-0.8,0.1-1.1c3.6-3.1,5.7-9.9,6.5-12.6c0.1-0.4,0.5-0.6,0.9-0.5
		c0.4,0.1,0.6,0.5,0.5,0.9c-0.8,2.9-3.1,10.1-7,13.4C16.2,38,16,38,15.9,38z"/>
</g>
<g>
	<path class="st0" d="M14.3,38.7c-5.9,0-6.9-10-7-14.3c0-0.4,0.3-0.8,0.7-0.8c0.4,0,0.8,0.3,0.8,0.7c0.1,3,0.7,12.8,5.5,12.8
		c0,0,0,0,0.1,0c5.7-0.1,8.8-3.5,11.9-12.8c0.1-0.4,0.6-0.6,0.9-0.5c0.4,0.1,0.6,0.6,0.5,0.9C24.9,33.3,21.7,38.6,14.3,38.7
		C14.3,38.7,14.3,38.7,14.3,38.7z"/>
</g>
<g>
	<path class="st0" d="M15.6,38.1c-0.1,0-0.2,0-0.3-0.1c-3.9-2.1-4.5-9.4-4.4-13.6c0-0.4,0.4-0.7,0.8-0.7c0.4,0,0.7,0.3,0.7,0.8
		c0,2.4,0.2,10.4,3.6,12.3c0.4,0.2,0.5,0.6,0.3,1C16.1,37.9,15.9,38.1,15.6,38.1z"/>
</g>
<g>
	<path class="st0" d="M38.3,20.8L38.3,20.8L2.4,20.8c-0.2,0-0.4-0.1-0.5-0.2c-0.1-0.1-0.2-0.3-0.2-0.5l0.2-5.6
		c0-3.2,1.4-6.3,3.9-8.8C9.4,2,14.7,0,20.4,0c0,0,0,0,0.1,0c10.1,0,18.6,6.6,18.6,14.4c0,0,0,0,0,0l-0.1,5.7
		C39.1,20.5,38.7,20.8,38.3,20.8z M3.2,19.3l34.4,0.1l0-4.9c0-6.9-8-12.9-17.1-12.9c0,0,0,0-0.1,0c-5.4,0-10.3,1.9-13.6,5.1
		c-2.3,2.3-3.5,5-3.5,7.8L3.2,19.3z M38.4,14.4L38.4,14.4L38.4,14.4z"/>
</g>
<g>
	<path class="st0" d="M40.8,27.8c-1.7,0-3.2,0-4-0.1c-0.1,0-0.2,0-0.3-0.1L31.6,25H0.8c-0.3,0-0.5-0.1-0.6-0.4
		c-0.1-0.2-0.2-0.5,0-0.7l2.1-4.2c0.2-0.4,0.6-0.5,1-0.3c0.4,0.2,0.5,0.6,0.3,1L2,23.5h29.9c0.1,0,0.3,0,0.4,0.1l4.8,2.6
		c3.6,0.1,7.8,0.1,9.4-0.2c-1.2-1.1-5-3.4-8.4-5.3c-0.4-0.2-0.5-0.7-0.3-1c0.2-0.4,0.7-0.5,1-0.3c6.3,3.4,9.5,5.7,9.6,6.8
		c0,0.3-0.1,0.7-0.4,0.9C47,27.7,43.7,27.8,40.8,27.8z"/>
</g>
<g>
	<path class="st0" d="M6.6,13.8c-0.1,0-0.1,0-0.2,0c-0.4-0.1-0.6-0.5-0.5-0.9c1.3-5.3,6.6-7.7,6.8-7.8c0.4-0.2,0.8,0,1,0.4
		c0.2,0.4,0,0.8-0.4,1c0,0-4.8,2.2-5.9,6.8C7.3,13.6,7,13.8,6.6,13.8z"/>
</g>
</svg>
