<?xml version="1.0" encoding="utf-8"?>
<!-- Generator: Adobe Illustrator 20.1.0, SVG Export Plug-In . SVG Version: 6.00 Build 0)  -->
<svg version="1.1" id="_x31_._Index_copy_2" xmlns="http://www.w3.org/2000/svg" xmlns:xlink="http://www.w3.org/1999/xlink"
	 x="0px" y="0px" viewBox="0 0 42.8 38.8" style="enable-background:new 0 0 42.8 38.8;" xml:space="preserve">
<style type="text/css">
	.st0{fill:#313131;}
	.st1{fill:none;stroke:#313131;stroke-width:1.5;stroke-linecap:round;stroke-linejoin:round;stroke-miterlimit:10;}
</style>
<g>
	<path class="st0" d="M41.9,29.9c-0.4,0-0.8-0.3-0.8-0.8v-6.9c0-8-4.7-15.1-12.1-18.2c-0.4-0.2-0.6-0.6-0.4-1s0.6-0.6,1-0.4
		c7.9,3.3,13,11,13,19.6v6.9C42.7,29.6,42.3,29.9,41.9,29.9z"/>
</g>
<g>
	<path class="st0" d="M0.9,32.4c-0.4,0-0.8-0.3-0.8-0.8v-9.3c0-8.9,5.6-16.9,14-20c0.4-0.1,0.8,0.1,1,0.4s-0.1,0.8-0.4,1
		C6.9,6.5,1.7,14,1.7,22.3v9.3C1.7,32,1.3,32.4,0.9,32.4z"/>
</g>
<g>
	<path class="st0" d="M38.4,28.7c-0.4,0-0.7-0.3-0.8-0.7l0-6.3c0-6-3.6-11.6-9.2-14.2c-0.4-0.2-0.5-0.6-0.4-1c0.2-0.4,0.6-0.5,1-0.4
		c6.1,2.8,10.1,8.9,10.1,15.5l0,6.3C39.2,28.3,38.8,28.7,38.4,28.7L38.4,28.7z"/>
</g>
<g>
	<path class="st0" d="M4.4,24c-0.4,0-0.8-0.3-0.8-0.8v-1.6c0-7.1,4.4-13.4,11.2-16c0.4-0.1,0.8,0,1,0.4c0.1,0.4,0,0.8-0.4,1
		C9.2,9.4,5.2,15.1,5.2,21.6v1.6C5.2,23.6,4.8,24,4.4,24z"/>
</g>
<g>
	<path class="st0" d="M14.8,37.5c-0.1,0-0.2,0-0.3,0c-0.4,0-0.7-0.3-0.7-0.7l-0.1-2.2c0,0,0,0,0,0V24.1c0-0.4,0.3-0.7,0.7-0.7
		c0.2,0,2.2-0.2,3.3,0.9c0.6,0.5,0.9,1.2,0.9,2v8.8c0,0,0,0.1,0,0.1C18.5,35.3,18.1,37.5,14.8,37.5z M15.1,34.5l0.1,1.5
		c1.4-0.1,1.7-0.8,1.8-1v-8.7c0-0.4-0.1-0.7-0.4-0.9c-0.4-0.3-1-0.5-1.5-0.5V34.5z"/>
</g>
<g>
	<path class="st0" d="M41.9,35.6c-0.4,0-0.8-0.3-0.8-0.8v-6.2c0-0.4,0.3-0.8,0.8-0.8s0.8,0.3,0.8,0.8v6.2
		C42.7,35.3,42.4,35.6,41.9,35.6z"/>
</g>
<g>
	<path class="st0" d="M4.4,36.3H0.8C0.3,36.3,0,36,0,35.5V23.5c0-0.4,0.3-0.8,0.8-0.8s0.8,0.3,0.8,0.8v11.3h2.2V23.5
		c0-0.4,0.3-0.8,0.8-0.8s0.8,0.3,0.8,0.8v12.1C5.2,36,4.8,36.3,4.4,36.3z"/>
</g>
<g>
	<path class="st0" d="M42.1,36.3h-3.7c-0.4,0-0.8-0.3-0.8-0.8V23.5c0-0.4,0.3-0.8,0.8-0.8s0.8,0.3,0.8,0.8v11.3h2.2V23.5
		c0-0.4,0.3-0.8,0.8-0.8s0.8,0.3,0.8,0.8v12.1C42.8,36,42.5,36.3,42.1,36.3z"/>
</g>
<g>
	<path class="st1" d="M2.3,23.4"/>
</g>
<g>
	<path class="st0" d="M7.2,34.6H4.4c-0.4,0-0.8-0.3-0.8-0.8v-6.8c0-0.4,0.3-0.8,0.8-0.8h2.8c0.4,0,0.8,0.3,0.8,0.8v6.8
		C8,34.3,7.6,34.6,7.2,34.6z M5.1,33.1h1.3v-5.3H5.1V33.1z"/>
</g>
<g>
	<path class="st0" d="M14.4,38.8h-4.3c-2,0-3.6-1.6-3.6-3.6v-9.2c0-2.4,1.9-4.3,4.3-4.3h3.6c0.4,0,0.8,0.3,0.8,0.8v15.6
		C15.2,38.5,14.8,38.8,14.4,38.8z M10.8,23.3c-1.6,0-2.8,1.3-2.8,2.8v9.2c0,1.1,0.9,2.1,2.1,2.1h3.6V23.3H10.8z"/>
</g>
<g>
	<path class="st0" d="M27.8,37.3c-0.7,0-2-0.1-2.9-0.9c-0.6-0.5-0.9-1.2-0.9-2v-8.8c0,0,0-0.1,0-0.1c0-0.1,0.4-2.5,4-2.3
		c0.4,0,0.7,0.3,0.7,0.7l0.1,2.2c0,0,0,0,0,0v10.4c0,0.4-0.3,0.7-0.7,0.7C28.2,37.3,28,37.3,27.8,37.3z M25.6,25.6v8.7
		c0,0.4,0.1,0.7,0.4,0.9c0.4,0.3,1,0.5,1.5,0.5v-9.7l-0.1-1.5C25.9,24.7,25.6,25.4,25.6,25.6z"/>
</g>
<g>
	<path class="st0" d="M38.2,34.3h-2.8c-0.4,0-0.8-0.3-0.8-0.8v-6.8c0-0.4,0.3-0.8,0.8-0.8h2.8c0.4,0,0.8,0.3,0.8,0.8v6.8
		C39,34,38.6,34.3,38.2,34.3z M36.1,32.8h1.3v-5.3h-1.3V32.8z"/>
</g>
<g>
	<path class="st0" d="M31.8,38.8h-3.6c-0.4,0-0.8-0.3-0.8-0.8V22.5c0-0.4,0.3-0.8,0.8-0.8h4.3c2,0,3.6,1.6,3.6,3.6v9.2
		C36.1,36.9,34.1,38.8,31.8,38.8z M28.9,37.3h2.8c1.6,0,2.8-1.3,2.8-2.8v-9.2c0-1.1-0.9-2.1-2.1-2.1h-3.6V37.3z"/>
</g>
<g>
	<path class="st0" d="M27,8.1h-9.9C15.3,8.1,14,6.7,14,5V3.1C14,1.4,15.3,0,17.1,0H27c1.7,0,3.1,1.4,3.1,3.1V5
		C30.1,6.7,28.7,8.1,27,8.1z M17.1,1.5c-0.9,0-1.6,0.7-1.6,1.6V5c0,0.9,0.7,1.6,1.6,1.6H27c0.9,0,1.6-0.7,1.6-1.6V3.1
		c0-0.9-0.7-1.6-1.6-1.6H17.1z"/>
</g>
</svg>
