<?xml version="1.0" encoding="utf-8"?>
<!-- Generator: Adobe Illustrator 20.1.0, SVG Export Plug-In . SVG Version: 6.00 Build 0)  -->
<svg version="1.1" id="Isolation_Mode" xmlns="http://www.w3.org/2000/svg" xmlns:xlink="http://www.w3.org/1999/xlink" x="0px"
	 y="0px" viewBox="0 0 14.9 14.9" style="enable-background:new 0 0 14.9 14.9;" xml:space="preserve">
<style type="text/css">
	.st0{fill:#FFFFFF;}
</style>
<g>
	<path class="st0" d="M10.8,0H4.1C1.8,0,0,1.8,0,4.1v6.7c0,2.3,1.8,4.1,4.1,4.1h6.7c2.3,0,4.1-1.8,4.1-4.1V4.1C14.9,1.8,13,0,10.8,0
		z M13.5,10.8c0,1.5-1.2,2.8-2.8,2.8H4.1c-1.5,0-2.8-1.2-2.8-2.8V4.1c0-1.5,1.2-2.8,2.8-2.8h6.7c1.5,0,2.8,1.2,2.8,2.8L13.5,10.8
		L13.5,10.8z"/>
	<path class="st0" d="M7.4,3.6c-2.1,0-3.8,1.7-3.8,3.8c0,2.1,1.7,3.8,3.8,3.8s3.8-1.7,3.8-3.8C11.3,5.3,9.5,3.6,7.4,3.6z M7.4,9.9
		C6,9.9,4.9,8.8,4.9,7.4C4.9,6,6,4.9,7.4,4.9S9.9,6,9.9,7.4C9.9,8.8,8.8,9.9,7.4,9.9z"/>
	<path class="st0" d="M11.4,2.5c-0.3,0-0.5,0.1-0.7,0.3c-0.2,0.2-0.3,0.4-0.3,0.7c0,0.3,0.1,0.5,0.3,0.7c0.2,0.2,0.4,0.3,0.7,0.3
		c0.3,0,0.5-0.1,0.7-0.3c0.2-0.2,0.3-0.4,0.3-0.7c0-0.3-0.1-0.5-0.3-0.7C11.9,2.6,11.7,2.5,11.4,2.5z"/>
</g>
</svg>
