<?xml version="1.0" encoding="utf-8"?>
<!-- Generator: Adobe Illustrator 20.1.0, SVG Export Plug-In . SVG Version: 6.00 Build 0)  -->
<svg version="1.1" id="technical_page" xmlns="http://www.w3.org/2000/svg" xmlns:xlink="http://www.w3.org/1999/xlink" x="0px"
	 y="0px" viewBox="0 0 26.6 26.6" style="enable-background:new 0 0 26.6 26.6;" xml:space="preserve">
<style type="text/css">
	.st0{fill:#C4C4C4;}
</style>
<g>
	<path class="st0" d="M13.3,26.6C6,26.6,0,20.7,0,13.3S6,0,13.3,0s13.3,6,13.3,13.3S20.7,26.6,13.3,26.6z M13.3,1.5
		C6.8,1.5,1.5,6.8,1.5,13.3s5.3,11.8,11.8,11.8s11.8-5.3,11.8-11.8S19.8,1.5,13.3,1.5z"/>
</g>
<g>
	<path class="st0" d="M18.4,10.9c-0.7,0-1.3-0.6-1.3-1.3s0.6-1.3,1.3-1.3s1.3,0.6,1.3,1.3S19.1,10.9,18.4,10.9z M18.4,9.4
		c-0.1,0-0.2,0.1-0.2,0.2c0,0.2,0.4,0.2,0.4,0C18.6,9.5,18.5,9.4,18.4,9.4z"/>
</g>
<g>
	<path class="st0" d="M8.2,10.9c-0.7,0-1.3-0.6-1.3-1.3s0.6-1.3,1.3-1.3s1.3,0.6,1.3,1.3S8.9,10.9,8.2,10.9z M8.2,9.4
		C8.1,9.4,8,9.5,8,9.6c0,0.2,0.4,0.2,0.4,0C8.4,9.5,8.3,9.4,8.2,9.4z"/>
</g>
<g>
	<path class="st0" d="M13.4,19.9c-3.6,0-6.2-2.6-6.3-2.7c-0.3-0.3-0.3-0.8,0-1.1c0.3-0.3,0.8-0.3,1.1,0c0.2,0.2,4.9,4.9,10.2,0
		c0.3-0.3,0.8-0.3,1.1,0c0.3,0.3,0.3,0.8,0,1.1C17.3,19.2,15.2,19.9,13.4,19.9z"/>
</g>
</svg>
