<?xml version="1.0" encoding="utf-8"?>
<!-- Generator: Adobe Illustrator 20.1.0, SVG Export Plug-In . SVG Version: 6.00 Build 0)  -->
<svg version="1.1" id="Isolation_Mode" xmlns="http://www.w3.org/2000/svg" xmlns:xlink="http://www.w3.org/1999/xlink" x="0px"
	 y="0px" viewBox="0 0 134.8 41.6" style="enable-background:new 0 0 134.8 41.6;" xml:space="preserve">
<style type="text/css">
	.st0{fill:#939393;}
</style>
<g>
	<g>
		<path class="st0" d="M36.9,11.9c0-1.1-0.6-2-1.4-2.6L20.1,0.4c-1-0.6-2.3-0.6-3.3,0L1.4,9.3C0.6,9.9,0,10.9,0,11.9C0,12,0,12,0,12
			v17.8c0.1,1,0.6,2,1.5,2.5l15.3,8.9c1,0.6,2.3,0.6,3.3,0l15.3-8.9l0,0c0.9-0.6,1.4-1.5,1.5-2.5V12C36.9,12,36.9,12,36.9,11.9z
			 M8.4,13.1c-1,0.6-1.6,1.6-1.6,2.7c0,0,0,0.1,0,0.1v15.6l0,0l-1.7-1h0l0,0c0,0,0,0,0,0c-0.5-0.3-0.9-0.7-1.1-1.2
			c-0.3-0.5-0.4-1-0.4-1.6V14c0-0.4,0.1-0.7,0.2-1.1c0.3-0.7,0.8-1.4,1.5-1.8l0,0h0l11.8-6.8c1-0.6,2.3-0.6,3.3,0l0,0l1.7,1
			L8.4,13.1L8.4,13.1z M15.1,17c-1,0.6-1.6,1.7-1.6,2.8v15.6h0v0l-1.7-1l-1.7-1V17.9c0,0,0-0.1,0-0.1c0-1.1,0.7-2.2,1.6-2.7l0.1,0
			l13.4-7.8l1.7,1l0,0l0.6,0.3l1.1,0.6l0,0L15.1,17L15.1,17z M26.9,33.4L26.9,33.4l-1.7,1h0l-1.7,1h0v-9.7c0-1.2,0.6-2.2,1.6-2.8
			l1.7-1V33.4z M33.6,27.6c0,0.6-0.2,1.1-0.4,1.6c-0.3,0.5-0.7,0.9-1.1,1.2l-0.1,0.1h0l-1.7,1h0v-7.8l3.4-1.9V27.6z M33.6,14
			l-11.8,6.8c-1,0.6-1.6,1.7-1.6,2.8v13.6l0,0c-1,0.6-2.3,0.6-3.3,0l0,0V21.7c0-1.2,0.6-2.3,1.6-2.8l0,0l13.4-7.8l0,0
			c0.7,0.4,1.2,1,1.5,1.8C33.5,13.3,33.6,13.6,33.6,14L33.6,14z"/>
		<g>
			<path class="st0" d="M71.2,12.4c-2.2,0-3.5,1.1-3.5,3.3c0,2.2,1.3,3.3,3.5,3.3c2.2,0,3.5-1.1,3.5-3.3
				C74.7,13.5,73.4,12.4,71.2,12.4z M71.2,17.6c-1,0-1.5-0.6-1.5-2c0-1.4,0.5-2,1.5-2c1,0,1.5,0.6,1.5,2
				C72.7,17.1,72.2,17.6,71.2,17.6z"/>
			<path class="st0" d="M79.6,12.4c-0.8,0-1.5,0.3-2,0.7v-0.2c0-0.2-0.1-0.3-0.3-0.3h-1.3c-0.1,0-0.2,0.1-0.2,0.2v8
				c0,0.1,0.1,0.2,0.2,0.2h1.1c0.4,0,0.7-0.3,0.7-0.7v-1.4c0.5,0.2,1,0.3,1.7,0.3c1.8,0,3.1-1.1,3.1-3.3
				C82.5,13.5,81.3,12.4,79.6,12.4z M79,17.6c-0.3,0-0.8-0.1-1.3-0.2v-3c0.4-0.3,0.9-0.5,1.4-0.5c0.9,0,1.3,0.6,1.3,1.9
				C80.5,17,80.1,17.6,79,17.6z"/>
			<path class="st0" d="M89.8,12.5h-1.6c-0.2,0-0.5,0.2-0.7,0.4l-2,3.7v-3.5c0-0.4-0.3-0.7-0.7-0.7h-1.1c-0.1,0-0.2,0.1-0.2,0.2v5.8
				c0,0.2,0.2,0.4,0.4,0.4h1.6c0.2,0,0.5-0.2,0.7-0.4l2-3.7v3.4c0,0.4,0.3,0.7,0.7,0.7H90c0.1,0,0.2-0.1,0.2-0.2v-5.8
				C90.2,12.7,90,12.5,89.8,12.5z"/>
			<path class="st0" d="M91.7,13.9h1.5v4.6c0,0.2,0.1,0.3,0.3,0.3h1c0.4,0,0.7-0.3,0.7-0.7v-4.2h1.5c0.4,0,0.7-0.3,0.7-0.7v-0.5
				c0-0.1-0.1-0.2-0.2-0.2h-6.1c-0.1,0-0.2,0.1-0.2,0.2v0.5C91,13.6,91.3,13.9,91.7,13.9z"/>
			<path class="st0" d="M106.8,18.7v-5.5c0-0.4-0.3-0.7-0.7-0.7h-1.6c-0.2,0-0.4,0.2-0.5,0.4l-1.4,3.4l-1.4-3.4
				c-0.1-0.2-0.3-0.4-0.5-0.4H99c-0.4,0-0.7,0.3-0.7,0.7v5.5c0,0.1,0.1,0.2,0.2,0.2h1.1c0.4,0,0.7-0.3,0.7-0.7v-3.3l1.5,3.6
				c0.1,0.2,0.3,0.4,0.5,0.4h0.6c0.2,0,0.4-0.2,0.5-0.4l1.5-3.6v3.3c0,0.4,0.3,0.7,0.7,0.7h1.1C106.7,18.8,106.8,18.8,106.8,18.7z"
				/>
			<path class="st0" d="M52.8,18.7v-7.8c0-0.2-0.1-0.3-0.3-0.3h-3.3c-1.7,0-3.4,0.4-3.8,2.3l-0.7,2.6l-0.9,3.3
				c0,0.1,0.1,0.2,0.2,0.2h1.5c0.3,0,0.6-0.2,0.7-0.5l0,0c0,0,0,0,0-0.1l0.4-1.5h4.1v1.2c0,0.4,0.3,0.8,0.8,0.8h1.3
				C52.7,18.8,52.8,18.8,52.8,18.7z M50.6,15.2h-3.7l0.5-1.9c0.2-0.7,0.8-1.2,1.5-1.2h1.6V15.2z"/>
			<path class="st0" d="M60.9,18.7v-5.8c0-0.2-0.2-0.3-0.3-0.3h-2.7c-1.2,0-2.4,0.3-2.9,1.6c0,0.1,0,0.1,0,0.2l-1,3.9l-0.1,0.4
				l0,0.2c0,0.1,0.1,0.2,0.2,0.2h1.4c0.2,0,0.5-0.2,0.5-0.4l0.9-3.7c0.2-0.6,0.5-0.9,1-0.9h1.1v4.2c0,0.4,0.3,0.7,0.7,0.7h1.1
				C60.9,18.8,60.9,18.8,60.9,18.7z"/>
			<path class="st0" d="M67,12.5h-2.7h-1.7c-0.2,0-0.3,0.2-0.3,0.3v5.8c0,0.1,0.1,0.2,0.2,0.2h1.1c0.4,0,0.7-0.3,0.7-0.7v-4.2H67
				c0.2,0,0.4-0.2,0.4-0.4v-0.7C67.4,12.7,67.2,12.5,67,12.5z"/>
			<path class="st0" d="M48.8,25.7H46v-1.4h4.9c0.3,0,0.5-0.2,0.5-0.5v-0.6c0-0.3-0.2-0.5-0.5-0.5h-6.4c-0.4,0-0.7,0.3-0.7,0.7v6.9
				c0,0.4,0.3,0.7,0.7,0.7h4.3c1.8,0,3.2-0.8,3.2-2.6C52,26.5,50.6,25.7,48.8,25.7z M48.8,29.3H46v-2h2.9c0.6,0,1,0.3,1,1
				C49.8,29,49.4,29.3,48.8,29.3z"/>
			<path class="st0" d="M56.1,24.5c-2.1,0-3.4,1.2-3.4,3.3c0,2.1,1.3,3.3,3.4,3.3c1.9,0,3.2-0.4,3.2-1.7c0-0.2-0.2-0.4-0.4-0.4H58
				c-0.3,0-0.5,0.1-0.7,0.3c-0.2,0.2-0.6,0.4-1.1,0.4c-1,0-1.4-0.4-1.5-1.4h4c0.4,0,0.7-0.3,0.7-0.7C59.4,25.6,58.2,24.5,56.1,24.5z
				 M54.7,27.2c0-0.9,0.5-1.4,1.4-1.4c0.9,0,1.3,0.5,1.3,1.4H54.7z"/>
			<path class="st0" d="M65.7,27.6c0.6-0.3,0.8-0.7,0.8-1.4c0-1.2-1.1-1.8-2.7-1.8h-1.2c-1.4,0-2.6,0.7-2.6,1.8
				c0,0.2,0.2,0.3,0.4,0.3h0.9c0.3,0,0.5-0.2,0.6-0.4c0.2-0.3,0.5-0.4,0.7-0.4h1.1c0.5,0,0.8,0.3,0.8,0.6c0,0.4-0.2,0.6-0.8,0.6
				h-1.3c-0.2,0-0.3,0.2-0.3,0.3V28c0,0.2,0.2,0.3,0.3,0.3h1.4c0.6,0,0.8,0.3,0.8,0.7c0,0.4-0.3,0.7-0.8,0.7h-1.2
				c-0.4,0-0.7-0.1-0.9-0.4c-0.1-0.2-0.3-0.4-0.6-0.4h-0.9c-0.2,0-0.3,0.1-0.3,0.3c0,1.1,1.2,1.8,2.7,1.8H64c1.7,0,2.7-0.5,2.7-1.8
				C66.8,28.4,66.3,27.9,65.7,27.6z"/>
			<path class="st0" d="M70.9,24.5c-2.2,0-3.5,1.1-3.5,3.3c0,2.2,1.3,3.3,3.5,3.3c2.2,0,3.5-1.1,3.5-3.3
				C74.4,25.6,73.1,24.5,70.9,24.5z M70.9,29.8c-1,0-1.5-0.6-1.5-2c0-1.4,0.5-2,1.5-2c1,0,1.5,0.6,1.5,2
				C72.4,29.2,71.9,29.8,70.9,29.8z"/>
			<path class="st0" d="M81.7,24.6h-5.8c-0.2,0-0.3,0.2-0.3,0.3v5.6c0,0.2,0.2,0.4,0.4,0.4h1c0.4,0,0.7-0.3,0.7-0.7V26H80v4.2
				c0,0.4,0.3,0.7,0.7,0.7h1c0.2,0,0.4-0.2,0.4-0.4V25C82,24.8,81.9,24.6,81.7,24.6z"/>
			<path class="st0" d="M86.7,24.5c-1.9,0-3.2,0.4-3.2,1.7c0,0.2,0.2,0.3,0.4,0.3l0.9,0c0.3,0,0.5-0.1,0.7-0.3
				c0.2-0.3,0.6-0.4,1.1-0.4c0.8,0,1.2,0.3,1.2,1.2h-1.9c-1.6,0-2.7,0.7-2.7,2c0,1.3,1.2,2,2.7,2c0.9,0,1.6-0.3,2.1-0.7v0.2
				c0,0.2,0.2,0.3,0.3,0.3H89c0.4,0,0.7-0.3,0.7-0.7V27C89.7,25.2,88.4,24.5,86.7,24.5z M87.7,29.2c-0.4,0.3-1,0.5-1.7,0.5
				c-0.6,0-0.9-0.3-0.9-0.7c0-0.4,0.3-0.7,0.9-0.7h1.8V29.2z"/>
			<path class="st0" d="M97.2,28.7h-0.9c-0.3,0-0.5,0.2-0.7,0.4c-0.2,0.3-0.6,0.5-1.2,0.5c-1.2,0-1.6-0.6-1.6-1.9
				c0-1.3,0.4-1.9,1.5-1.9c0.6,0,1,0.2,1.2,0.5c0.2,0.3,0.4,0.4,0.7,0.4h0.9c0.2,0,0.4-0.2,0.4-0.4c0-1.4-1.2-2-3.3-2
				c-2.2,0-3.4,1.1-3.4,3.3c0,2.2,1.2,3.3,3.5,3.3c2,0,3.3-0.7,3.3-2C97.6,28.9,97.4,28.7,97.2,28.7z"/>
			<path class="st0" d="M104.7,24.6h-1c-0.4,0-0.7,0.3-0.7,0.7v1.7h-2.5v-1.7c0-0.4-0.3-0.7-0.7-0.7h-1c-0.2,0-0.3,0.2-0.3,0.3v5.6
				c0,0.2,0.2,0.3,0.3,0.3h1c0.4,0,0.7-0.3,0.7-0.7v-1.8h2.5v1.8c0,0.4,0.3,0.7,0.7,0.7h1c0.2,0,0.3-0.2,0.3-0.3V25
				C105.1,24.8,104.9,24.6,104.7,24.6z"/>
			<path class="st0" d="M109.6,24.5c-2.2,0-3.5,1.1-3.5,3.3c0,2.2,1.3,3.3,3.5,3.3c2.2,0,3.5-1.1,3.5-3.3
				C113.1,25.6,111.9,24.5,109.6,24.5z M109.6,29.8c-1,0-1.5-0.6-1.5-2c0-1.4,0.5-2,1.5-2c1,0,1.5,0.6,1.5,2
				C111.1,29.2,110.6,29.8,109.6,29.8z"/>
			<path class="st0" d="M120.3,28.7h-0.9c-0.3,0-0.5,0.2-0.7,0.4c-0.2,0.3-0.6,0.5-1.2,0.5c-1.2,0-1.6-0.6-1.6-1.9
				c0-1.3,0.4-1.9,1.5-1.9c0.6,0,1,0.2,1.2,0.5c0.2,0.3,0.4,0.4,0.7,0.4h0.9c0.2,0,0.4-0.2,0.4-0.3c0-1.4-1.2-2-3.3-2
				c-1.9,0-3.4,1.5-3.4,3.4c0,2.1,1.3,3.2,3.5,3.2c2,0,3.3-0.7,3.3-2C120.6,28.9,120.5,28.7,120.3,28.7z"/>
			<path class="st0" d="M127,24.6h-5.7c-0.2,0-0.3,0.2-0.3,0.3v0.4c0,0.4,0.3,0.7,0.7,0.7h1.5v4.6c0,0.2,0.2,0.4,0.4,0.4h1
				c0.4,0,0.7-0.3,0.7-0.7V26h1.5c0.4,0,0.7-0.3,0.7-0.7V25C127.4,24.8,127.2,24.6,127,24.6z"/>
			<path class="st0" d="M134.1,24.6h-1.3c-0.2,0-0.5,0.2-0.7,0.4l-2,3.8v-3.5c0-0.4-0.3-0.7-0.7-0.7h-0.9c-0.2,0-0.3,0.2-0.3,0.3
				v5.3c0,0.4,0.3,0.7,0.7,0.7h1.3c0.2,0,0.5-0.2,0.7-0.4l2-3.7v3.5c0,0.4,0.3,0.7,0.7,0.7h0.9c0.2,0,0.3-0.2,0.3-0.3v-5.3
				C134.8,24.9,134.5,24.6,134.1,24.6z"/>
		</g>
	</g>
</g>
</svg>
