<?xml version="1.0" encoding="utf-8"?>
<!-- Generator: Adobe Illustrator 20.1.0, SVG Export Plug-In . SVG Version: 6.00 Build 0)  -->
<svg version="1.1" id="Isolation_Mode" xmlns="http://www.w3.org/2000/svg" xmlns:xlink="http://www.w3.org/1999/xlink" x="0px"
	 y="0px" viewBox="0 0 197.8 61.1" style="enable-background:new 0 0 197.8 61.1;" xml:space="preserve">
<style type="text/css">
	.st0{fill:#EE5655;}
	.st1{fill:#0D0A0B;}
</style>
<g>
	<path class="st0" d="M54.2,17.5c0-1.5-0.8-3-2.1-3.8l-22.6-13c-1.5-0.9-3.3-0.9-4.8,0l-22.6,13C0.8,14.5,0.1,16,0,17.5
		c0,0.1,0,0.1,0,0.2v26.1c0.1,1.5,0.9,2.9,2.2,3.7l22.5,13c1.5,0.9,3.3,0.9,4.8,0l22.5-13l0,0c1.3-0.8,2.1-2.2,2.2-3.7V17.7
		C54.2,17.6,54.2,17.5,54.2,17.5z M12.3,19.2c-1.4,0.8-2.3,2.3-2.4,4c0,0.1,0,0.1,0,0.2v22.8l0,0l-2.5-1.4h0l-0.1,0c0,0,0,0-0.1,0
		c-0.7-0.4-1.3-1-1.7-1.7c-0.4-0.7-0.6-1.5-0.6-2.4V20.5c0-0.5,0.1-1.1,0.3-1.5c0.4-1.1,1.1-2,2.1-2.6l0,0h0l17.3-10
		c1.5-0.9,3.3-0.9,4.8,0l0.1,0L32,7.8L12.3,19.2L12.3,19.2z M22.1,24.9c-1.5,0.9-2.4,2.4-2.4,4.2v22.8h0v0l-2.5-1.4L14.8,49V26.2
		c0-0.1,0-0.1,0-0.2c0.1-1.6,1-3.2,2.4-4l0.1,0l19.7-11.4l2.5,1.4l0,0l0.9,0.5l1.6,0.9l0,0L22.1,24.9L22.1,24.9z M39.4,49L39.4,49
		l-2.5,1.4h0l-2.5,1.4h0V37.6c0-1.7,0.9-3.3,2.4-4.2l2.5-1.5V49z M49.2,40.6c0,0.9-0.2,1.7-0.6,2.4c-0.4,0.7-1,1.3-1.7,1.7l-0.1,0.1
		h0l-2.5,1.4h0V34.8l4.9-2.8V40.6z M49.2,20.6l-17.3,10c-1.5,0.9-2.4,2.4-2.4,4.2v20l-0.1,0c-1.5,0.9-3.3,0.9-4.8,0l0,0V31.9
		c0-1.7,0.9-3.3,2.4-4.2l0.1,0l19.7-11.4l0,0c1,0.6,1.8,1.5,2.1,2.6C49.1,19.4,49.2,20,49.2,20.6L49.2,20.6z"/>
	<g>
		<path class="st1" d="M104.4,18.2c-3.3,0-5.1,1.6-5.1,4.8c0,3.2,1.8,4.8,5.1,4.8c3.3,0,5.1-1.6,5.1-4.8
			C109.6,19.8,107.7,18.2,104.4,18.2z M104.4,25.9c-1.5,0-2.2-0.9-2.2-2.9c0-2,0.7-2.9,2.2-2.9c1.5,0,2.2,0.8,2.2,2.9
			C106.6,25,105.9,25.9,104.4,25.9z"/>
		<path class="st1" d="M116.8,18.2c-1.2,0-2.2,0.4-3,1v-0.3c0-0.3-0.2-0.5-0.5-0.5h-2c-0.1,0-0.2,0.1-0.2,0.2v11.7
			c0,0.1,0.1,0.2,0.2,0.2h1.7c0.6,0,1-0.5,1-1v-2.1c0.7,0.2,1.4,0.4,2.4,0.4c2.7,0,4.6-1.6,4.6-4.8
			C121.1,19.8,119.2,18.2,116.8,18.2z M115.9,25.8c-0.4,0-1.1-0.1-1.8-0.3V21c0.6-0.4,1.4-0.8,2-0.8c1.4,0,2,0.9,2,2.8
			C118.1,24.9,117.5,25.8,115.9,25.8z"/>
		<path class="st1" d="M131.8,18.3h-2.4c-0.3,0-0.8,0.3-1,0.6l-3,5.5v-5.1c0-0.6-0.5-1-1-1h-1.6c-0.1,0-0.2,0.1-0.2,0.2v8.5
			c0,0.3,0.2,0.5,0.5,0.5h2.4c0.3,0,0.8-0.3,1-0.6l3-5.5v5.1c0,0.6,0.5,1,1,1h1.6c0.1,0,0.2-0.1,0.2-0.2v-8.5
			C132.3,18.6,132.1,18.3,131.8,18.3z"/>
		<path class="st1" d="M134.5,20.4h2.2v6.8c0,0.3,0.2,0.5,0.5,0.5h1.4c0.6,0,1-0.5,1-1v-6.2h2.2c0.6,0,1-0.5,1-1v-0.8
			c0-0.1-0.1-0.2-0.2-0.2h-8.9c-0.1,0-0.2,0.1-0.2,0.2v0.8C133.5,19.9,134,20.4,134.5,20.4z"/>
		<path class="st1" d="M156.7,27.4v-8c0-0.6-0.5-1-1-1h-2.4c-0.3,0-0.6,0.3-0.8,0.6l-2.1,5.1l-2.1-5.1c-0.2-0.4-0.4-0.6-0.8-0.6
			h-2.4c-0.6,0-1,0.5-1,1v8c0,0.1,0.1,0.2,0.2,0.2h1.6c0.6,0,1-0.5,1-1v-4.8l2.2,5.2c0.2,0.3,0.4,0.6,0.8,0.6h0.8
			c0.4,0,0.6-0.2,0.8-0.6l2.2-5.2v4.8c0,0.6,0.5,1,1,1h1.6C156.6,27.6,156.7,27.5,156.7,27.4z"/>
		<path class="st1" d="M77.4,27.4V15.9c0-0.3-0.2-0.5-0.5-0.5h-4.8c-2.5,0-4.9,0.6-5.6,3.3l-1,3.8l-1.3,4.8c0,0.2,0.1,0.3,0.2,0.3
			h2.2c0.4,0,0.8-0.3,1-0.7l0,0c0,0,0-0.1,0-0.1l0.6-2.1h6v1.8c0,0.6,0.5,1.1,1.1,1.1h1.8C77.3,27.6,77.4,27.5,77.4,27.4z
			 M74.2,22.3h-5.4l0.7-2.7c0.3-1,1.1-1.7,2.2-1.7h2.4V22.3z"/>
		<path class="st1" d="M89.4,27.4v-8.5c0-0.3-0.2-0.5-0.5-0.5h-4c-1.8,0-3.6,0.4-4.2,2.3c0,0.1,0,0.2-0.1,0.2l-1.4,5.7l-0.1,0.5
			L79,27.3c0,0.2,0.1,0.3,0.2,0.3h2c0.3,0,0.7-0.3,0.8-0.6l1.3-5.4c0.2-0.9,0.7-1.3,1.5-1.3h1.6v6.2c0,0.6,0.5,1,1,1h1.7
			C89.3,27.6,89.4,27.5,89.4,27.4z"/>
		<path class="st1" d="M98.3,18.3h-3.9H92c-0.3,0-0.5,0.2-0.5,0.5v8.5c0,0.1,0.1,0.2,0.2,0.2h1.7c0.6,0,1-0.5,1-1v-6.2h3.9
			c0.3,0,0.5-0.2,0.5-0.5v-1C98.9,18.6,98.6,18.3,98.3,18.3z"/>
		<path class="st1" d="M71.6,37.7h-4.2v-2.1h7.2c0.4,0,0.8-0.3,0.8-0.8V34c0-0.5-0.4-0.8-0.8-0.8h-9.3c-0.6,0-1,0.5-1,1v10.1
			c0,0.6,0.5,1,1,1h6.4c2.6,0,4.6-1.2,4.6-3.9C76.2,38.9,74.2,37.7,71.6,37.7z M71.6,43h-4.2v-2.9h4.2c0.9,0,1.4,0.5,1.4,1.5
			C73,42.5,72.5,43,71.6,43z"/>
		<path class="st1" d="M82.2,35.9c-3.1,0-5,1.7-5,4.8c0,3.1,1.9,4.8,5,4.8c2.8,0,4.6-0.6,4.6-2.4c0-0.3-0.2-0.5-0.5-0.5h-1.3
			c-0.4,0-0.8,0.2-1,0.5c-0.3,0.4-0.9,0.6-1.7,0.6c-1.4,0-2.1-0.6-2.2-2h5.9c0.6,0,1-0.5,1-1C87.2,37.6,85.3,35.9,82.2,35.9z
			 M80.3,39.9c0.1-1.3,0.7-2,2-2c1.3,0,1.9,0.7,2,2H80.3z"/>
		<path class="st1" d="M96.4,40.5c0.9-0.4,1.2-1.1,1.2-2c0-1.8-1.6-2.6-3.9-2.6H92c-2,0-3.8,1-3.8,2.6c0,0.3,0.2,0.5,0.5,0.5H90
			c0.5,0,0.7-0.2,0.9-0.6c0.2-0.4,0.7-0.6,1.1-0.6h1.6c0.8,0,1.1,0.4,1.1,0.9c0,0.5-0.3,0.9-1.1,0.9h-2c-0.3,0-0.5,0.2-0.5,0.5v0.9
			c0,0.3,0.2,0.5,0.5,0.5h2.1c0.8,0,1.2,0.4,1.2,1c0,0.6-0.4,1-1.2,1H92c-0.5,0-1-0.2-1.3-0.6c-0.2-0.3-0.4-0.6-0.9-0.6h-1.3
			c-0.3,0-0.5,0.2-0.5,0.5c0,1.6,1.8,2.6,4,2.6h1.9c2.5,0,4-0.8,4-2.7C97.9,41.7,97.3,41,96.4,40.5z"/>
		<path class="st1" d="M104,35.9c-3.3,0-5.1,1.6-5.1,4.8c0,3.2,1.8,4.8,5.1,4.8c3.3,0,5.1-1.6,5.1-4.8
			C109.1,37.6,107.3,35.9,104,35.9z M104,43.7c-1.5,0-2.2-0.9-2.2-2.9c0-2,0.7-2.9,2.2-2.9c1.5,0,2.2,0.8,2.2,2.9
			C106.2,42.8,105.5,43.7,104,43.7z"/>
		<path class="st1" d="M119.8,36.1h-8.6c-0.3,0-0.5,0.2-0.5,0.5v8.3c0,0.3,0.2,0.5,0.5,0.5h1.4c0.6,0,1-0.5,1-1v-6.2h3.7v6.2
			c0,0.6,0.5,1,1,1h1.4c0.3,0,0.5-0.2,0.5-0.5v-8.3C120.3,36.3,120.1,36.1,119.8,36.1z"/>
		<path class="st1" d="M127.2,35.9c-2.8,0-4.6,0.6-4.6,2.5c0,0.3,0.2,0.5,0.5,0.5l1.3,0c0.4,0,0.7-0.2,1-0.4
			c0.3-0.4,0.9-0.6,1.6-0.6c1.2,0,1.7,0.4,1.7,1.8h-2.8c-2.3,0-4,1-4,3c0,2,1.7,3,4,3c1.3,0,2.3-0.4,3.1-1v0.3
			c0,0.3,0.2,0.5,0.5,0.5h1.1c0.6,0,1-0.5,1-1v-4.7C131.6,37,129.7,35.9,127.2,35.9z M128.7,42.9c-0.6,0.4-1.5,0.8-2.5,0.8
			c-0.9,0-1.4-0.4-1.4-1.1c0-0.6,0.5-1,1.3-1h2.6V42.9z"/>
		<path class="st1" d="M142.6,42.1h-1.3c-0.4,0-0.7,0.2-1,0.6c-0.3,0.5-0.9,0.8-1.8,0.8c-1.7,0-2.3-0.9-2.3-2.8
			c0-1.9,0.6-2.8,2.2-2.8c0.9,0,1.5,0.3,1.8,0.8c0.2,0.4,0.5,0.6,1,0.6h1.3c0.3,0,0.5-0.2,0.5-0.5c0-2-1.8-3-4.8-3
			c-3.2,0-5,1.6-5,4.8c0,3.2,1.8,4.8,5.1,4.8c3,0,4.8-1,4.8-3C143.1,42.3,142.9,42.1,142.6,42.1z"/>
		<path class="st1" d="M153.6,36.1h-1.4c-0.6,0-1,0.5-1,1v2.5h-3.7v-2.5c0-0.6-0.5-1-1-1H145c-0.3,0-0.5,0.2-0.5,0.5v8.3
			c0,0.3,0.2,0.5,0.5,0.5h1.4c0.6,0,1-0.5,1-1v-2.7h3.7v2.7c0,0.6,0.5,1,1,1h1.4c0.3,0,0.5-0.2,0.5-0.5v-8.3
			C154.1,36.3,153.9,36.1,153.6,36.1z"/>
		<path class="st1" d="M160.8,35.9c-3.3,0-5.1,1.6-5.1,4.8c0,3.2,1.8,4.8,5.1,4.8c3.3,0,5.1-1.6,5.1-4.8
			C166,37.6,164.1,35.9,160.8,35.9z M160.8,43.7c-1.5,0-2.2-0.9-2.2-2.9c0-2,0.7-2.9,2.2-2.9s2.2,0.8,2.2,2.9
			C163,42.8,162.3,43.7,160.8,43.7z"/>
		<path class="st1" d="M176.4,42.1h-1.3c-0.4,0-0.7,0.2-1,0.6c-0.3,0.5-0.9,0.8-1.8,0.8c-1.7,0-2.3-0.9-2.3-2.8
			c0-1.9,0.6-2.8,2.2-2.8c0.9,0,1.5,0.3,1.8,0.8c0.2,0.4,0.5,0.6,1,0.6h1.3c0.3,0,0.5-0.2,0.5-0.5c0-2-1.8-3-4.8-3
			c-2.7,0-5,2.2-5,4.9c0,3.1,1.9,4.7,5.1,4.7c3,0,4.8-1,4.8-3C176.9,42.3,176.7,42.1,176.4,42.1z"/>
		<path class="st1" d="M186.4,36.1H178c-0.3,0-0.5,0.2-0.5,0.5v0.5c0,0.6,0.5,1,1,1h2.2v6.7c0,0.3,0.2,0.5,0.5,0.5h1.4
			c0.6,0,1-0.5,1-1v-6.2h2.2c0.6,0,1-0.5,1-1v-0.5C186.9,36.3,186.6,36.1,186.4,36.1z"/>
		<path class="st1" d="M196.7,36.1h-1.9c-0.3,0-0.8,0.3-1,0.6l-3,5.5v-5.1c0-0.6-0.5-1-1-1h-1.3c-0.3,0-0.5,0.2-0.5,0.5v7.8
			c0,0.6,0.5,1,1,1h1.9c0.4,0,0.8-0.3,1-0.6l3-5.5v5.1c0,0.6,0.5,1,1,1h1.3c0.3,0,0.5-0.2,0.5-0.5v-7.8
			C197.8,36.6,197.3,36.1,196.7,36.1z"/>
	</g>
</g>
</svg>
