<?xml version="1.0" encoding="utf-8"?>
<!-- Generator: Adobe Illustrator 20.1.0, SVG Export Plug-In . SVG Version: 6.00 Build 0)  -->
<svg version="1.1" id="_x31_._Index_copy_2" xmlns="http://www.w3.org/2000/svg" xmlns:xlink="http://www.w3.org/1999/xlink"
	 x="0px" y="0px" viewBox="0 0 16.2 21.7" style="enable-background:new 0 0 16.2 21.7;" xml:space="preserve">
<style type="text/css">
	.st0{fill:#313131;}
</style>
<g>
	<g>
		<g>
			<path class="st0" d="M8.1,21.7L8.1,21.7c-0.4,0-0.8-0.2-1-0.5c-0.7-0.8-7-8-7-13.2C0,3.6,3.6,0,8.1,0s8.1,3.6,8.1,8.1
				c0,5.2-6.3,12.4-7,13.2C8.9,21.6,8.5,21.7,8.1,21.7z M8.1,1.5c-3.6,0-6.6,3-6.6,6.6c0,3.8,4.3,9.5,6.6,12.1
				c2.3-2.6,6.6-8.4,6.6-12.1C14.7,4.5,11.7,1.5,8.1,1.5z"/>
		</g>
	</g>
</g>
<g>
	<path class="st0" d="M8.1,9.5c-1.1,0-2-0.9-2-2s0.9-2,2-2s2,0.9,2,2S9.2,9.5,8.1,9.5z M8.1,7.1c-0.3,0-0.5,0.2-0.5,0.5S7.8,8,8.1,8
		c0.3,0,0.5-0.2,0.5-0.5S8.3,7.1,8.1,7.1z"/>
</g>
</svg>
