<?xml version="1.0" encoding="utf-8"?>
<!-- Generator: Adobe Illustrator 20.1.0, SVG Export Plug-In . SVG Version: 6.00 Build 0)  -->
<svg version="1.1" id="technical_page" xmlns="http://www.w3.org/2000/svg" xmlns:xlink="http://www.w3.org/1999/xlink" x="0px"
	 y="0px" viewBox="0 0 39.8 34.2" style="enable-background:new 0 0 39.8 34.2;" xml:space="preserve">
<style type="text/css">
	.st0{fill:#313131;}
</style>
<g>
	<path class="st0" d="M18.6,15.3c-0.3,0-0.6-0.2-0.7-0.5L13.4,1c-0.1-0.2,0-0.5,0.1-0.7C13.7,0.1,13.9,0,14.1,0h3.4
		c0.3,0,0.5,0.1,0.6,0.3l9,13.8c0.2,0.3,0.1,0.8-0.2,1c-0.3,0.2-0.8,0.1-1-0.2L17.1,1.5h-2l4.1,12.8c0.1,0.4-0.1,0.8-0.5,0.9
		C18.7,15.3,18.7,15.3,18.6,15.3z"/>
</g>
<g>
	<path class="st0" d="M17.5,34.2h-3.4c-0.2,0-0.5-0.1-0.6-0.3c-0.1-0.2-0.2-0.4-0.1-0.7l4.5-13.8c0.1-0.4,0.6-0.6,0.9-0.5
		c0.4,0.1,0.6,0.6,0.5,0.9l-4.1,12.8h2L26,19.3c0.2-0.3,0.7-0.4,1-0.2c0.3,0.2,0.4,0.7,0.2,1l-9,13.8C18,34.1,17.8,34.2,17.5,34.2z"
		/>
</g>
<g>
	<path class="st0" d="M5.8,23.7H0.8c-0.3,0-0.6-0.2-0.7-0.5C-0.1,23,0,22.6,0.2,22.4l4.9-5.1l-4.9-5.1c-0.2-0.2-0.3-0.5-0.1-0.8
		c0.1-0.3,0.4-0.5,0.7-0.5h5.1c0.2,0,0.4,0.1,0.5,0.2l2.9,3.1h27.3c1.7,0,3.1,1.4,3.1,3.1c0,1.7-1.4,3.1-3.1,3.1H9.2l-2.9,3
		C6.2,23.6,6,23.7,5.8,23.7z M2.5,22.2h3l2.9-3C8.5,19,8.7,19,8.9,19h27.7c0.9,0,1.6-0.7,1.6-1.6c0-0.9-0.7-1.6-1.6-1.6H9
		c-0.2,0-0.4-0.1-0.5-0.2l-2.9-3.1h-3l4.2,4.3c0.1,0.1,0.2,0.3,0.2,0.5c0,0,0,0.1,0,0.1c0,0.2-0.1,0.4-0.2,0.5L2.5,22.2z"/>
</g>
<g>
	<path class="st0" d="M7.1,6.7H0.8C0.3,6.7,0,6.4,0,6s0.3-0.8,0.8-0.8h6.4c0.4,0,0.8,0.3,0.8,0.8S7.6,6.7,7.1,6.7z"/>
</g>
<g>
	<path class="st0" d="M10.3,3.1H3.9c-0.4,0-0.8-0.3-0.8-0.8s0.3-0.8,0.8-0.8h6.4c0.4,0,0.8,0.3,0.8,0.8S10.7,3.1,10.3,3.1z"/>
</g>
<g>
	<path class="st0" d="M7.1,28.5H0.8c-0.4,0-0.8-0.3-0.8-0.8S0.3,27,0.8,27h6.4c0.4,0,0.8,0.3,0.8,0.8S7.6,28.5,7.1,28.5z"/>
</g>
<g>
	<path class="st0" d="M10.3,32.1H3.9c-0.4,0-0.8-0.3-0.8-0.8s0.3-0.8,0.8-0.8h6.4c0.4,0,0.8,0.3,0.8,0.8S10.7,32.1,10.3,32.1z"/>
</g>
<g>
	<path class="st0" d="M32.5,20.5c-0.4,0-0.8-0.3-0.8-0.8v-4.8c0-0.4,0.3-0.8,0.8-0.8s0.8,0.3,0.8,0.8v4.8
		C33.3,20.1,32.9,20.5,32.5,20.5z"/>
</g>
<g>
	<path class="st0" d="M35.6,20.5c-0.4,0-0.8-0.3-0.8-0.8v-4.8c0-0.4,0.3-0.8,0.8-0.8s0.8,0.3,0.8,0.8v4.8
		C36.3,20.1,36,20.5,35.6,20.5z"/>
</g>
</svg>
