<?xml version="1.0" encoding="utf-8"?>
<!-- Generator: Adobe Illustrator 20.1.0, SVG Export Plug-In . SVG Version: 6.00 Build 0)  -->
<svg version="1.1" id="_x31_._Index_copy_2" xmlns="http://www.w3.org/2000/svg" xmlns:xlink="http://www.w3.org/1999/xlink"
	 x="0px" y="0px" viewBox="0 0 22.6 16.7" style="enable-background:new 0 0 22.6 16.7;" xml:space="preserve">
<style type="text/css">
	.st0{fill:#313131;}
</style>
<g>
	<path class="st0" d="M20.8,16.7h-19c-1,0-1.8-0.8-1.8-1.8V1.8C0,0.8,0.8,0,1.8,0h19c1,0,1.8,0.8,1.8,1.8v13.1
		C22.6,15.9,21.8,16.7,20.8,16.7z M1.8,1.5c-0.2,0-0.3,0.1-0.3,0.3v13.1c0,0.2,0.1,0.3,0.3,0.3h19c0.2,0,0.3-0.1,0.3-0.3V1.8
		c0-0.2-0.1-0.3-0.3-0.3H1.8z"/>
</g>
<g>
	<path class="st0" d="M11.2,8.6c-0.1,0-0.3,0-0.4-0.1L1,1.9c-0.3-0.2-0.4-0.7-0.2-1c0.2-0.3,0.7-0.4,1-0.2l9.4,6.3l9.9-6.4
		c0.3-0.2,0.8-0.1,1,0.2c0.2,0.3,0.1,0.8-0.2,1L11.6,8.5C11.5,8.5,11.3,8.6,11.2,8.6z"/>
</g>
</svg>
