<?xml version="1.0" encoding="utf-8"?>
<!-- Generator: Adobe Illustrator 20.1.0, SVG Export Plug-In . SVG Version: 6.00 Build 0)  -->
<svg version="1.1" id="_x31_._Index_copy_2" xmlns="http://www.w3.org/2000/svg" xmlns:xlink="http://www.w3.org/1999/xlink"
	 x="0px" y="0px" viewBox="0 0 39.2 42.5" style="enable-background:new 0 0 39.2 42.5;" xml:space="preserve">
<style type="text/css">
	.st0{fill:#313131;}
</style>
<g>
	<path class="st0" d="M9.3,40.8c-0.4,0-0.8-0.3-0.8-0.8V6.8C8.5,6.3,8.2,6,7.8,6L6.6,6C5.9,6,5.4,6.1,5.2,6.4C5.1,6.5,5,6.6,5,6.8
		V40c0,0.4-0.3,0.8-0.8,0.8S3.5,40.4,3.5,40V6.8c0-0.5,0.2-1,0.6-1.4c0.4-0.4,1.2-0.8,2.5-0.8l1.1,0c1.2,0,2.3,1,2.3,2.3V40
		C10,40.4,9.7,40.8,9.3,40.8z"/>
</g>
<g>
	<path class="st0" d="M13.1,40.8c-0.4,0-0.8-0.3-0.8-0.8V5.9c0-2.4-2-4.4-4.4-4.4c-4,0-6.4,1.7-6.4,4.4V40c0,0.4-0.3,0.8-0.8,0.8
		S0,40.4,0,40V5.9C0,3.2,2.1,0,7.9,0c3.3,0,5.9,2.7,5.9,5.9V40C13.9,40.4,13.5,40.8,13.1,40.8z"/>
</g>
<g>
	<path class="st0" d="M2.5,42.5c-1.4,0-2.5-1.1-2.5-2.5c0-0.4,0.3-0.8,0.8-0.8s0.8,0.3,0.8,0.8c0,0.5,0.4,1,1,1s1-0.4,1-1
		c0-0.4,0.3-0.8,0.8-0.8S5,39.6,5,40C5,41.4,3.9,42.5,2.5,42.5z"/>
</g>
<g>
	<path class="st0" d="M11.2,42.5c-1.5,0-2.7-1.1-2.7-2.5c0-0.4,0.3-0.8,0.8-0.8S10,39.6,10,40c0,0.5,0.5,1,1.2,1s1.2-0.4,1.2-1
		c0-0.4,0.3-0.8,0.8-0.8s0.8,0.3,0.8,0.8C13.9,41.4,12.7,42.5,11.2,42.5z"/>
</g>
<g>
	<path class="st0" d="M4,9.9c-0.2,0-0.3-0.1-0.5-0.2L0.6,7.3C0.3,7,0.2,6.6,0.5,6.2c0.3-0.3,0.7-0.4,1.1-0.1l2.9,2.4
		c0.3,0.3,0.4,0.7,0.1,1.1C4.4,9.8,4.2,9.9,4,9.9z"/>
</g>
<g>
	<path class="st0" d="M4,17.1c-0.2,0-0.3-0.1-0.5-0.2l-2.9-2.4c-0.3-0.3-0.4-0.7-0.1-1.1c0.3-0.3,0.7-0.4,1.1-0.1l2.9,2.4
		c0.3,0.3,0.4,0.7,0.1,1.1C4.4,17,4.2,17.1,4,17.1z"/>
</g>
<g>
	<path class="st0" d="M4,25.6c-0.2,0-0.3-0.1-0.5-0.2L0.6,23c-0.3-0.3-0.4-0.7-0.1-1.1c0.3-0.3,0.7-0.4,1.1-0.1l2.9,2.4
		c0.3,0.3,0.4,0.7,0.1,1.1C4.4,25.5,4.2,25.6,4,25.6z"/>
</g>
<g>
	<path class="st0" d="M4,33.5c-0.2,0-0.3-0.1-0.5-0.2L0.6,31c-0.3-0.3-0.4-0.7-0.1-1.1c0.3-0.3,0.7-0.4,1.1-0.1l2.9,2.4
		c0.3,0.3,0.4,0.7,0.1,1.1C4.4,33.4,4.2,33.5,4,33.5z"/>
</g>
<g>
	<path class="st0" d="M9.6,9.9C9.4,9.9,9.2,9.8,9,9.6C8.8,9.3,8.8,8.8,9.1,8.5l2.9-2.4c0.3-0.3,0.8-0.2,1.1,0.1
		C13.4,6.6,13.3,7,13,7.3l-2.9,2.4C10,9.8,9.8,9.9,9.6,9.9z"/>
</g>
<g>
	<path class="st0" d="M9.6,17.1c-0.2,0-0.4-0.1-0.6-0.3c-0.3-0.3-0.2-0.8,0.1-1.1l2.9-2.4c0.3-0.3,0.8-0.2,1.1,0.1
		c0.3,0.3,0.2,0.8-0.1,1.1L10.1,17C10,17.1,9.8,17.1,9.6,17.1z"/>
</g>
<g>
	<path class="st0" d="M9.6,25.6c-0.2,0-0.4-0.1-0.6-0.3c-0.3-0.3-0.2-0.8,0.1-1.1l2.9-2.4c0.3-0.3,0.8-0.2,1.1,0.1
		c0.3,0.3,0.2,0.8-0.1,1.1l-2.9,2.4C10,25.5,9.8,25.6,9.6,25.6z"/>
</g>
<g>
	<path class="st0" d="M9.6,33.5c-0.2,0-0.4-0.1-0.6-0.3c-0.3-0.3-0.2-0.8,0.1-1.1l2.9-2.4c0.3-0.3,0.8-0.2,1.1,0.1
		c0.3,0.3,0.2,0.8-0.1,1.1l-2.9,2.4C10,33.5,9.8,33.5,9.6,33.5z"/>
</g>
<g>
	<path class="st0" d="M27.2,32.7c-2,0-4.9-2.7-5.8-3.6c-0.1-0.1-0.2-0.3-0.2-0.5v-3.3c0-0.4,0.3-0.8,0.8-0.8s0.8,0.3,0.8,0.8v3
		c1.9,1.8,4.1,3.2,4.7,2.9c1.5-1,6.9-14.4,5.9-18.5c-0.1-0.5-0.4-0.8-0.8-1c-1.5-0.7-4.8,0.3-9.7,3l0,0v2.4c0,0.4-0.3,0.8-0.8,0.8
		s-0.8-0.3-0.8-0.8v-2.9c0-0.3,0.2-0.5,0.4-0.7l0.4-0.2c3.5-1.9,8.4-4.2,11.1-3.1c0.8,0.4,1.4,1,1.6,2c1.2,4.7-4.6,19.3-6.7,20.2
		C27.8,32.6,27.5,32.7,27.2,32.7z"/>
</g>
<g>
	<path class="st0" d="M28.5,37c-2.8,0-7.4-3.8-8.4-4.6L18,30.3c-0.1-0.1-0.2-0.3-0.2-0.5v-4.5c0-0.4,0.3-0.8,0.8-0.8
		s0.8,0.3,0.8,0.8v4.2l1.8,1.8c2.3,2,6.4,4.8,7.7,4.2c1.7-0.8,10.3-19.7,8.7-25.8c-0.2-0.8-0.6-1.3-1.3-1.6c-2.3-1-6.9,0.3-13.8,3.8
		L21.9,12l-2.6,1.6v3.5c0,0.4-0.3,0.8-0.8,0.8s-0.8-0.3-0.8-0.8v-3.9c0-0.3,0.1-0.5,0.4-0.6l3-1.9l0.5-0.3C26.4,8.1,33.1,5,36.8,6.7
		c1.1,0.5,1.8,1.4,2.2,2.6c1.7,6.3-6.6,26.3-9.5,27.6C29.1,37,28.8,37,28.5,37z"/>
</g>
<g>
	<path class="st0" d="M22.6,25.8h-4.8c-0.8,0-1.5-0.7-1.5-1.5V18c0-0.8,0.7-1.5,1.5-1.5h4.8c0.8,0,1.5,0.7,1.5,1.5v6.3
		C24.1,25.1,23.5,25.8,22.6,25.8z M22.6,24.3v0.8V24.3L22.6,24.3L22.6,24.3z M17.8,18v6.3h4.8l0-6.3H17.8z"/>
</g>
</svg>
