<?xml version="1.0" encoding="utf-8"?>
<!-- Generator: Adobe Illustrator 20.1.0, SVG Export Plug-In . SVG Version: 6.00 Build 0)  -->
<svg version="1.1" id="_x31_._Index_copy_2" xmlns="http://www.w3.org/2000/svg" xmlns:xlink="http://www.w3.org/1999/xlink"
	 x="0px" y="0px" viewBox="0 0 54.2 27.3" style="enable-background:new 0 0 54.2 27.3;" xml:space="preserve">
<style type="text/css">
	.st0{fill:#EE5655;}
</style>
<g>
	<path class="st0" d="M39.8,23C39.8,23,39.8,23,39.8,23l-39-0.3c-0.3,0-0.5-0.1-0.6-0.4s-0.1-0.5,0-0.7L12.5,0.4
		C12.6,0.1,12.8,0,13.1,0h0l38.4,0c0.3,0,0.5,0.1,0.6,0.4c0.1,0.2,0.1,0.5,0,0.7L40.5,22.7C40.3,22.9,40.1,23,39.8,23z M2,21.3
		l37.3,0.2l10.9-20l-36.7,0L2,21.3z"/>
</g>
<g>
	<path class="st0" d="M41.7,27.3C41.7,27.3,41.7,27.3,41.7,27.3L2.7,27c-0.3,0-0.5-0.1-0.6-0.4s-0.1-0.5,0-0.7l2.5-4.2
		c0.2-0.4,0.7-0.5,1-0.3c0.4,0.2,0.5,0.7,0.3,1L4,25.5l37.3,0.2l10.9-20l-3.1,0c-0.4,0-0.8-0.3-0.7-0.8c0-0.4,0.3-0.7,0.8-0.7h0
		l4.3,0c0.3,0,0.5,0.1,0.6,0.4c0.1,0.2,0.1,0.5,0,0.7L42.4,26.9C42.2,27.1,42,27.3,41.7,27.3z"/>
</g>
<g>
	<path class="st0" d="M24.5,17.4c-0.1,0-0.3,0-0.4-0.1c-0.3-0.2-0.4-0.7-0.2-1L31.6,5c0.2-0.3,0.7-0.4,1-0.2c0.3,0.2,0.4,0.7,0.2,1
		l-7.7,11.3C25,17.3,24.8,17.4,24.5,17.4z"/>
</g>
<g>
	<path class="st0" d="M24.1,12.2c-0.7,0-1.5-0.3-2.1-0.8c-0.6-0.6-1-1.3-1.1-2.2c-0.1-0.8,0.2-1.7,0.8-2.3c0.6-0.6,1.3-1,2.2-1.1
		c0.9-0.1,1.7,0.2,2.3,0.8c0,0,0,0,0,0c1.3,1.1,1.5,3.1,0.3,4.5C25.8,11.8,24.9,12.2,24.1,12.2z M24.1,7.4c0,0-0.1,0-0.1,0
		c-0.4,0-0.8,0.2-1.1,0.6c-0.3,0.3-0.4,0.8-0.4,1.2c0,0.4,0.2,0.8,0.6,1.1c0.7,0.6,1.7,0.5,2.3-0.2c0.6-0.7,0.5-1.7-0.2-2.3
		C24.8,7.5,24.5,7.4,24.1,7.4z"/>
</g>
<g>
	<path class="st0" d="M32,17c-0.8,0-1.5-0.3-2.1-0.8c-1.3-1.1-1.5-3.1-0.3-4.5c1.1-1.3,3.1-1.5,4.5-0.3c0,0,0,0,0,0
		c0.6,0.6,1,1.3,1.1,2.2c0.1,0.8-0.2,1.7-0.8,2.3c-0.6,0.6-1.3,1-2.2,1.1C32.2,17,32.1,17,32,17z M32,12.2c-0.5,0-0.9,0.2-1.3,0.6
		c-0.6,0.7-0.5,1.7,0.2,2.3c0.3,0.3,0.8,0.4,1.2,0.4c0.4,0,0.8-0.2,1.1-0.6c0.3-0.3,0.4-0.8,0.4-1.2c0-0.4-0.2-0.8-0.6-1.1
		C32.8,12.3,32.4,12.2,32,12.2z"/>
</g>
<g>
	<path class="st0" d="M10.3,16.2c-0.1,0-0.3,0-0.4-0.1c-0.4-0.2-0.5-0.7-0.3-1L18,0.9c0.2-0.4,0.7-0.5,1-0.3c0.4,0.2,0.5,0.7,0.3,1
		L11,15.8C10.8,16,10.6,16.2,10.3,16.2z"/>
</g>
</svg>
