<?xml version="1.0" encoding="utf-8"?>
<!-- Generator: Adobe Illustrator 20.1.0, SVG Export Plug-In . SVG Version: 6.00 Build 0)  -->
<svg version="1.1" id="technical_page" xmlns="http://www.w3.org/2000/svg" xmlns:xlink="http://www.w3.org/1999/xlink" x="0px"
	 y="0px" viewBox="0 0 26.6 26.6" style="enable-background:new 0 0 26.6 26.6;" xml:space="preserve">
<style type="text/css">
	.st0{fill:#C4C4C4;}
</style>
<g>
	<path class="st0" d="M13.3,26.6C6,26.6,0,20.7,0,13.3S6,0,13.3,0s13.3,6,13.3,13.3S20.7,26.6,13.3,26.6z M13.3,1.5
		C6.8,1.5,1.5,6.8,1.5,13.3s5.3,11.8,11.8,11.8s11.8-5.3,11.8-11.8S19.8,1.5,13.3,1.5z"/>
</g>
<g>
	<path class="st0" d="M8.3,14.7c-2.1,0-3.9-1.7-3.9-3.9s1.7-3.9,3.9-3.9s3.9,1.7,3.9,3.9S10.5,14.7,8.3,14.7z M8.3,8.4
		c-1.3,0-2.4,1.1-2.4,2.4s1.1,2.4,2.4,2.4s2.4-1.1,2.4-2.4S9.6,8.4,8.3,8.4z"/>
</g>
<g>
	<path class="st0" d="M18,14.7c-2.1,0-3.9-1.7-3.9-3.9s1.7-3.9,3.9-3.9s3.9,1.7,3.9,3.9S20.1,14.7,18,14.7z M18,8.4
		c-1.3,0-2.4,1.1-2.4,2.4s1.1,2.4,2.4,2.4s2.4-1.1,2.4-2.4S19.3,8.4,18,8.4z"/>
</g>
<g>
	<path class="st0" d="M14.3,11.6h-2.4c-0.4,0-0.8-0.3-0.8-0.8s0.3-0.8,0.8-0.8h2.4c0.4,0,0.8,0.3,0.8,0.8S14.8,11.6,14.3,11.6z"/>
</g>
<g>
	<path class="st0" d="M13.4,20.3c-3.6,0-6.2-2.6-6.3-2.7c-0.3-0.3-0.3-0.8,0-1.1c0.3-0.3,0.8-0.3,1.1,0c0.2,0.2,4.9,4.9,10.2,0
		c0.3-0.3,0.8-0.3,1.1,0c0.3,0.3,0.3,0.8,0,1.1C17.3,19.6,15.2,20.3,13.4,20.3z"/>
</g>
</svg>
