<?xml version="1.0" encoding="utf-8"?>
<!-- Generator: Adobe Illustrator 20.1.0, SVG Export Plug-In . SVG Version: 6.00 Build 0)  -->
<svg version="1.1" id="_x31_._Index_copy_2" xmlns="http://www.w3.org/2000/svg" xmlns:xlink="http://www.w3.org/1999/xlink"
	 x="0px" y="0px" viewBox="0 0 51.1 40.8" style="enable-background:new 0 0 51.1 40.8;" xml:space="preserve">
<style type="text/css">
	.st0{fill:#313131;}
</style>
<g>
	<g>
		<path class="st0" d="M28.3,34.7H16.7c-0.4,0-0.7-0.3-0.7-0.7l-3.7-31c-0.1-0.8,0.2-1.6,0.7-2.1C13.5,0.3,14.2,0,15,0h15.9
			c0.8,0,1.6,0.3,2.1,1s0.8,1.4,0.6,2.2L29,34C28.9,34.4,28.6,34.7,28.3,34.7z M17.4,33.2h10.2l4.6-30.3c0.1-0.4-0.1-0.7-0.3-1
			c-0.2-0.3-0.6-0.4-0.9-0.4H15c-0.4,0-0.7,0.1-0.9,0.4c-0.2,0.3-0.3,0.6-0.3,1L17.4,33.2z"/>
	</g>
</g>
<g>
	<g>
		<path class="st0" d="M27.3,40.4h-9.7c-0.9,0-1.6-0.7-1.6-1.6V34c0-0.4,0.3-0.8,0.8-0.8h11.4c0.4,0,0.8,0.3,0.8,0.8v4.8
			C28.9,39.7,28.2,40.4,27.3,40.4z M17.5,34.8v4.1c0,0.1,0.1,0.1,0.1,0.1h9.7c0.1,0,0.1-0.1,0.1-0.1v-4.1H17.5z"/>
	</g>
</g>
<g>
	<g>
		<path class="st0" d="M27.6,12.9h-9.7c-0.4,0-0.8-0.3-0.8-0.8V4.8c0-0.4,0.3-0.8,0.8-0.8h9.7c0.4,0,0.8,0.3,0.8,0.8v7.4
			C28.3,12.6,28,12.9,27.6,12.9z M18.7,11.4h8.2V5.5h-8.2V11.4z"/>
	</g>
</g>
<g>
	<path class="st0" d="M9.5,37H2.6c-0.4,0-0.7-0.3-0.7-0.7L0,16.2c0-0.2,0.1-0.4,0.2-0.6c0.1-0.2,0.3-0.2,0.6-0.2h11.2
		c0.2,0,0.4,0.1,0.6,0.3c0.1,0.2,0.2,0.4,0.2,0.6l-2.4,20.1C10.2,36.7,9.9,37,9.5,37z M3.2,35.5h5.6l2.2-18.6H1.6L3.2,35.5z"/>
</g>
<g>
	<path class="st0" d="M9.5,40.7H2.6c-0.6,0-1-0.4-1-1v-3.4c0-0.6,0.4-1,1-1h6.9c0.6,0,1,0.4,1,1v3.4C10.5,40.2,10,40.7,9.5,40.7z
		 M3.6,38.7h4.9v-1.4H3.6V38.7z"/>
</g>
<g>
	<path class="st0" d="M8.1,25.6H3.8c-0.4,0-0.8-0.3-0.8-0.8v-4.6c0-0.4,0.3-0.8,0.8-0.8h4.3c0.4,0,0.8,0.3,0.8,0.8v4.6
		C8.9,25.3,8.5,25.6,8.1,25.6z M4.6,24.1h2.8V21H4.6V24.1z"/>
</g>
<g>
	<path class="st0" d="M48.4,40.8H35.7c-1.5,0-2.7-1.2-2.7-2.7l2.1-21.7c0-1.4,1.2-2.6,2.7-2.6h8.5c1.5,0,2.7,1.2,2.7,2.7L51.1,38
		C51.1,39.5,49.9,40.8,48.4,40.8z M37.8,15.2c-0.7,0-1.2,0.5-1.2,1.2l-2.1,21.7c0,0.6,0.5,1.1,1.2,1.1h12.7c0.7,0,1.2-0.5,1.2-1.2
		l-2.1-21.5c0-0.7-0.5-1.3-1.2-1.3H37.8z"/>
</g>
<g>
	<path class="st0" d="M43.3,15.2h-2.1c-0.6,0-1.1-0.5-1.1-1.1V9.5c0-0.4,0.3-0.8,0.8-0.8s0.8,0.3,0.8,0.8v4.2h1.4v-3.5
		c0-0.4,0.3-0.8,0.8-0.8s0.8,0.3,0.8,0.8V14C44.4,14.6,43.9,15.2,43.3,15.2z"/>
</g>
<g>
	<path class="st0" d="M34.5,11.5c-0.2,0-0.5-0.1-0.6-0.3c-0.2-0.3-0.2-0.7,0.1-1c5.5-5.4,9.9-4.8,11.2-4.4c1.4,0.4,2,1.1,2.2,1.7
		c0.4,0.9,0.3,1.9,0,2.5c-0.5,1.1-1.6,1.2-2.2,1c-0.1,0-0.2-0.1-0.3-0.1c-3.3-2.7-10.1,0.5-10.2,0.6C34.8,11.5,34.7,11.5,34.5,11.5z
		 M45.8,9.6c0.2,0,0.2-0.1,0.3-0.1c0.1-0.3,0.2-0.9,0-1.3c-0.2-0.4-0.6-0.7-1.3-0.9C44,7,41.6,6.7,38.4,8.7
		C40.8,8.1,43.8,8,45.8,9.6z"/>
</g>
<g>
	<path class="st0" d="M45.8,36.8H34.2c-0.6,0-1-0.4-1-1s0.4-1,1-1h11.6c0.6,0,1,0.4,1,1S46.4,36.8,45.8,36.8z"/>
</g>
</svg>
