<?xml version="1.0" encoding="utf-8"?>
<!-- Generator: Adobe Illustrator 20.1.0, SVG Export Plug-In . SVG Version: 6.00 Build 0)  -->
<svg version="1.1" id="technical_page" xmlns="http://www.w3.org/2000/svg" xmlns:xlink="http://www.w3.org/1999/xlink" x="0px"
	 y="0px" viewBox="0 0 52.2 29.2" style="enable-background:new 0 0 52.2 29.2;" xml:space="preserve">
<style type="text/css">
	.st0{fill:#313131;}
</style>
<g>
	<path class="st0" d="M51.4,24.6H0.8c-0.4,0-0.8-0.3-0.8-0.8V4.1c0-0.4,0.3-0.7,0.7-0.8l39.8-0.1c0,0,0,0,0,0c0.2,0,0.4,0.1,0.5,0.2
		l10.8,10.5c0.1,0.1,0.2,0.3,0.2,0.5v9.5C52.2,24.3,51.8,24.6,51.4,24.6z M1.5,23.1h49.2v-8.4l-10.4-10L1.5,4.8V23.1z"/>
</g>
<g>
	<path class="st0" d="M49.3,13.2h-17c-0.4,0-0.7-0.3-0.7-0.8V7.2c0-0.4,0.3-0.8,0.7-0.8h11.6c0.4,0,0.8,0.3,0.8,0.8
		s-0.3,0.8-0.8,0.8H33.1v3.8h16.2c0.4,0,0.8,0.3,0.8,0.8S49.7,13.2,49.3,13.2z"/>
</g>
<g>
	<path class="st0" d="M28.2,13.2H23c-0.4,0-0.8-0.3-0.8-0.8V7.2c0-0.4,0.3-0.8,0.8-0.8h5.3c0.4,0,0.8,0.3,0.8,0.8v5.3
		C29,12.9,28.7,13.2,28.2,13.2z M23.7,11.7h3.8V7.9h-3.8V11.7z"/>
</g>
<g>
	<path class="st0" d="M19.9,13.2h-5.3c-0.4,0-0.8-0.3-0.8-0.8V7.2c0-0.4,0.3-0.8,0.8-0.8h5.3c0.4,0,0.8,0.3,0.8,0.8v5.3
		C20.6,12.9,20.3,13.2,19.9,13.2z M15.4,11.7h3.8V7.9h-3.8V11.7z"/>
</g>
<g>
	<path class="st0" d="M48.6,18.3H32.3c-0.4,0-0.7-0.3-0.7-0.8s0.3-0.8,0.7-0.8h16.3c0.4,0,0.8,0.3,0.8,0.8S49,18.3,48.6,18.3z"/>
</g>
<g>
	<path class="st0" d="M28.9,18.3h-1.4c-0.4,0-0.8-0.3-0.8-0.8s0.3-0.8,0.8-0.8h1.4c0.4,0,0.8,0.3,0.8,0.8S29.4,18.3,28.9,18.3z"/>
</g>
<g>
	<path class="st0" d="M14,1.5H3.6c-0.4,0-0.8-0.3-0.8-0.8S3.2,0,3.6,0H14c0.4,0,0.8,0.3,0.8,0.8S14.4,1.5,14,1.5z"/>
</g>
<g>
	<path class="st0" d="M6.7,26.7c-1.5,0-2.8-1.2-2.8-2.8c0-0.4,0.3-0.8,0.8-0.8s0.8,0.3,0.8,0.8c0,0.7,0.6,1.3,1.3,1.3
		s1.3-0.6,1.3-1.3c0-0.4,0.3-0.8,0.8-0.8s0.8,0.3,0.8,0.8C9.4,25.4,8.2,26.7,6.7,26.7z"/>
</g>
<g>
	<path class="st0" d="M14,26.7c-1.5,0-2.8-1.2-2.8-2.8c0-0.4,0.3-0.8,0.8-0.8s0.8,0.3,0.8,0.8c0,0.7,0.6,1.3,1.3,1.3
		s1.3-0.6,1.3-1.3c0-0.4,0.3-0.8,0.8-0.8s0.8,0.3,0.8,0.8C16.7,25.4,15.5,26.7,14,26.7z"/>
</g>
<g>
	<path class="st0" d="M37.2,26.7c-1.5,0-2.8-1.2-2.8-2.8c0-0.4,0.3-0.8,0.8-0.8s0.8,0.3,0.8,0.8c0,0.7,0.6,1.3,1.3,1.3
		s1.3-0.6,1.3-1.3c0-0.4,0.3-0.8,0.8-0.8s0.8,0.3,0.8,0.8C39.9,25.4,38.7,26.7,37.2,26.7z"/>
</g>
<g>
	<path class="st0" d="M44.5,26.7c-1.5,0-2.8-1.2-2.8-2.8c0-0.4,0.3-0.8,0.8-0.8s0.8,0.3,0.8,0.8c0,0.7,0.6,1.3,1.3,1.3
		s1.3-0.6,1.3-1.3c0-0.4,0.3-0.8,0.8-0.8s0.8,0.3,0.8,0.8C47.3,25.4,46,26.7,44.5,26.7z"/>
</g>
<g>
	<path class="st0" d="M51.4,29.2H0.8c-0.4,0-0.8-0.3-0.8-0.8s0.3-0.8,0.8-0.8h50.7c0.4,0,0.8,0.3,0.8,0.8S51.8,29.2,51.4,29.2z"/>
</g>
</svg>
