<?xml version="1.0" encoding="utf-8"?>
<!-- Generator: Adobe Illustrator 20.1.0, SVG Export Plug-In . SVG Version: 6.00 Build 0)  -->
<svg version="1.1" id="Isolation_Mode" xmlns="http://www.w3.org/2000/svg" xmlns:xlink="http://www.w3.org/1999/xlink" x="0px"
	 y="0px" viewBox="0 0 17.3 9.9" style="enable-background:new 0 0 17.3 9.9;" xml:space="preserve">
<style type="text/css">
	.st0{fill:#FFFFFF;}
</style>
<g>
	<path class="st0" d="M17.2,8.9c0,0,0-0.1-0.1-0.1c-0.3-0.5-0.9-1.2-1.7-2l0,0l0,0l0,0h0C15,6.4,14.8,6.2,14.7,6
		c-0.2-0.2-0.2-0.5-0.1-0.7c0.1-0.2,0.3-0.6,0.8-1.2c0.2-0.3,0.4-0.6,0.6-0.8c1-1.4,1.5-2.3,1.4-2.7l-0.1-0.1c0-0.1-0.1-0.1-0.3-0.1
		c-0.2,0-0.3-0.1-0.6,0l-2.6,0c0,0-0.1,0-0.2,0c-0.1,0-0.1,0-0.1,0l0,0l0,0c0,0-0.1,0-0.1,0.1c0,0-0.1,0.1-0.1,0.2
		c-0.3,0.7-0.6,1.4-1,2c-0.2,0.4-0.4,0.7-0.6,1c-0.2,0.3-0.3,0.5-0.5,0.6c-0.1,0.1-0.2,0.2-0.3,0.3c-0.1,0.1-0.2,0.1-0.2,0.1
		c-0.1,0-0.1,0-0.2,0c-0.1-0.1-0.2-0.1-0.2-0.2c-0.1-0.1-0.1-0.2-0.1-0.4c0-0.1,0-0.3,0-0.4c0-0.1,0-0.2,0-0.4c0-0.2,0-0.3,0-0.4
		c0-0.2,0-0.5,0-0.7c0-0.3,0-0.5,0-0.6c0-0.2,0-0.3,0-0.5s0-0.3,0-0.4c0-0.1-0.1-0.2-0.1-0.3c0-0.1-0.1-0.2-0.2-0.2
		C9.8,0.2,9.7,0.1,9.5,0.1C9.2,0,8.8,0,8.3,0C7.2,0,6.5,0.1,6.2,0.2C6.1,0.3,5.9,0.4,5.8,0.5c-0.1,0.1-0.1,0.2,0,0.2
		c0.4,0.1,0.6,0.2,0.8,0.4l0.1,0.1c0,0.1,0.1,0.2,0.1,0.4c0,0.2,0.1,0.4,0.1,0.7c0,0.4,0,0.8,0,1.1c0,0.3-0.1,0.6-0.1,0.7
		c0,0.2-0.1,0.3-0.1,0.4C6.6,4.7,6.5,4.7,6.5,4.8c0,0,0,0,0,0c-0.1,0-0.2,0-0.2,0c-0.1,0-0.2,0-0.3-0.1C5.8,4.6,5.7,4.5,5.5,4.4
		C5.4,4.2,5.3,4,5.1,3.8C4.9,3.5,4.8,3.2,4.6,2.8L4.4,2.6C4.4,2.4,4.2,2.1,4.1,1.8C3.9,1.5,3.8,1.2,3.7,0.9c0-0.1-0.1-0.2-0.2-0.3
		l0,0c0,0-0.1,0-0.1-0.1c-0.1,0-0.1,0-0.2-0.1l-2.5,0c-0.3,0-0.4,0.1-0.5,0.2l0,0.1c0,0,0,0.1,0,0.1C0,0.9,0,1,0.1,1.1
		c0.4,0.8,0.8,1.7,1.2,2.5S2,4.9,2.3,5.4c0.3,0.5,0.6,0.9,1,1.4c0.3,0.4,0.5,0.7,0.6,0.8C4,7.7,4.1,7.8,4.2,7.9l0.2,0.2
		C4.6,8.2,4.8,8.4,5,8.6C5.3,8.8,5.6,9,6,9.2c0.3,0.2,0.7,0.4,1.2,0.5C7.6,9.8,8,9.9,8.5,9.8h1c0.2,0,0.4-0.1,0.5-0.2l0,0
		c0,0,0-0.1,0.1-0.2c0-0.1,0-0.2,0-0.2c0-0.3,0-0.5,0.1-0.7c0-0.2,0.1-0.4,0.2-0.5c0.1-0.1,0.1-0.2,0.2-0.3c0.1-0.1,0.1-0.1,0.2-0.1
		c0,0,0.1,0,0.1,0c0.1,0,0.3,0,0.5,0.1c0.2,0.1,0.4,0.3,0.6,0.5c0.2,0.2,0.4,0.4,0.6,0.7c0.2,0.3,0.5,0.5,0.6,0.6l0.2,0.1
		c0.1,0.1,0.3,0.1,0.5,0.2c0.2,0.1,0.4,0.1,0.5,0l2.3,0c0.2,0,0.4,0,0.5-0.1c0.1-0.1,0.2-0.2,0.2-0.2c0-0.1,0-0.2,0-0.3
		C17.3,9,17.2,9,17.2,8.9z"/>
</g>
</svg>
