<?xml version="1.0" encoding="utf-8"?>
<!-- Generator: Adobe Illustrator 20.1.0, SVG Export Plug-In . SVG Version: 6.00 Build 0)  -->
<svg version="1.1" id="_x31_._Index_copy_2" xmlns="http://www.w3.org/2000/svg" xmlns:xlink="http://www.w3.org/1999/xlink"
	 x="0px" y="0px" viewBox="0 0 58.3 43" style="enable-background:new 0 0 58.3 43;" xml:space="preserve">
<style type="text/css">
	.st0{fill:#313131;}
</style>
<g>
	<path class="st0" d="M42.4,43H15.9c-1.1,0-2-1.2-2-2.9V6.8c0-0.4,0.3-0.8,0.8-0.8s0.8,0.3,0.8,0.8v33.3c0,0.9,0.4,1.3,0.5,1.4
		l26.5,0c0.1,0,0.5-0.5,0.5-1.4V6.8c0-0.4,0.3-0.8,0.8-0.8s0.8,0.3,0.8,0.8v33.3C44.4,41.7,43.5,43,42.4,43z"/>
</g>
<g>
	<path class="st0" d="M43.8,7.8c-0.3,0-0.5-0.1-0.7-0.4c-0.3-0.5-0.3-0.6-0.8-0.7l-0.2-0.1l-5.6-1.9c-0.4-0.1-0.6-0.6-0.5-1
		c0.1-0.4,0.6-0.6,1-0.5l5.9,2.1c0.7,0.3,1,0.5,1.5,1.4c0.2,0.4,0.1,0.8-0.3,1C44,7.8,43.9,7.8,43.8,7.8z"/>
</g>
<g>
	<path class="st0" d="M14.6,7.9c-0.1,0-0.2,0-0.3,0c-0.4-0.1-0.6-0.6-0.5-1c0.4-1,1-1.3,1.7-1.7l6.9-2.1c0.4-0.1,0.8,0.1,0.9,0.5
		c0.1,0.4-0.1,0.8-0.5,0.9l-6.8,2.1c-0.5,0.2-0.7,0.4-0.8,0.8C15.2,7.7,14.9,7.9,14.6,7.9z"/>
</g>
<g>
	<path class="st0" d="M5.7,35.8c-0.1,0-0.3,0-0.4-0.1l-5-3.4c-0.3-0.2-0.4-0.6-0.2-1l14-25.1c0.2-0.4,0.7-0.5,1-0.3
		c0.4,0.2,0.5,0.7,0.3,1L1.7,31.5L5.6,34l8.5-12c0.2-0.3,0.7-0.4,1-0.2c0.3,0.2,0.4,0.7,0.2,1L6.3,35.5C6.2,35.7,6,35.8,5.7,35.8z"
		/>
</g>
<g>
	<path class="st0" d="M52.5,35.8c-0.2,0-0.5-0.1-0.6-0.3L43,22.9c-0.2-0.3-0.2-0.8,0.2-1c0.3-0.2,0.8-0.2,1,0.2l8.5,12l3.8-2.6
		L42.8,7c-0.2-0.4-0.1-0.8,0.3-1c0.4-0.2,0.8-0.1,1,0.3l14,25.1c0.2,0.3,0.1,0.8-0.2,1l-5,3.4C52.8,35.8,52.7,35.8,52.5,35.8z"/>
</g>
<g>
	<path class="st0" d="M29.7,5.9c-0.2,0-0.3-0.1-0.5-0.2l-5.3-4.1c-0.3-0.3-0.4-0.7-0.1-1.1c0.3-0.3,0.7-0.4,1.1-0.1l4.9,3.8l4.9-3.7
		c0.3-0.3,0.8-0.2,1.1,0.1c0.3,0.3,0.2,0.8-0.1,1.1l-5.3,4.1C30,5.8,29.9,5.9,29.7,5.9z"/>
</g>
<g>
	<path class="st0" d="M29.7,42.8c-0.4,0-0.8-0.3-0.8-0.8V5.1c0-0.4,0.3-0.8,0.8-0.8s0.8,0.3,0.8,0.8V42
		C30.5,42.4,30.1,42.8,29.7,42.8z"/>
</g>
<g>
	<path class="st0" d="M25.1,40.4h-7.7c-0.7,0-1.3-0.6-1.3-1.3V30c0-0.7,0.6-1.3,1.3-1.3h7.7c0.7,0,1.3,0.6,1.3,1.3v9.2
		C26.3,39.9,25.8,40.4,25.1,40.4z M17.7,38.9h7.2v-8.7h-7.2V38.9z"/>
</g>
<g>
	<path class="st0" d="M23.6,32.2H17c-0.4,0-0.8-0.3-0.8-0.8s0.3-0.8,0.8-0.8h6.6c0.4,0,0.8,0.3,0.8,0.8S24,32.2,23.6,32.2z"/>
</g>
<g>
	<path class="st0" d="M40.2,40.4h-7.7c-0.7,0-1.2-0.6-1.2-1.3V30c0-0.7,0.6-1.3,1.2-1.3h7.7c0.7,0,1.3,0.6,1.3,1.3v9.2
		C41.4,39.9,40.9,40.4,40.2,40.4z M32.8,38.9h7.2v-8.7h-7.2V38.9z"/>
</g>
<g>
	<path class="st0" d="M40.6,32.2H34c-0.4,0-0.8-0.3-0.8-0.8s0.3-0.8,0.8-0.8h6.6c0.4,0,0.8,0.3,0.8,0.8S41,32.2,40.6,32.2z"/>
</g>
<g>
	<path class="st0" d="M27.1,7.6c-0.5,0-1-0.1-1.5-0.4c0,0-0.1-0.1-0.1-0.1l-3.4-3c-0.1-0.1-0.1-0.2-0.2-0.3
		c-0.2-0.5-0.3-1.4,0.2-2.3c0.7-1,2.2-1.5,4.4-1.4l6.2,0c0.4,0,0.8,0.3,0.8,0.8s-0.3,0.8-0.8,0.8h-6.2c-2.2-0.1-2.9,0.5-3.1,0.8
		c-0.2,0.3-0.2,0.6-0.1,0.8l3.2,2.9c1,0.5,2.3-0.4,2.9-0.8c0.3-0.2,0.4-0.3,0.7-0.3c0.4,0,0.8,0.3,0.8,0.8c0,0.3-0.2,0.6-0.5,0.7
		c0,0-0.1,0-0.1,0.1C29.6,6.7,28.4,7.6,27.1,7.6z"/>
</g>
<g>
	<path class="st0" d="M32.6,7.6c-1.3,0-2.6-0.8-3.1-1.2c0,0-0.1-0.1-0.1-0.1C29.1,6.2,29,5.9,29,5.6c0-0.4,0.3-0.8,0.8-0.8
		c0.3,0,0.4,0.1,0.7,0.3c0.5,0.4,1.9,1.3,2.9,0.8L36.4,3c0-0.2,0.1-0.5-0.1-0.8c-0.2-0.3-0.9-0.8-3.1-0.8c0,0,0,0,0,0
		c-0.4,0-0.7-0.3-0.8-0.7c0-0.4,0.3-0.8,0.7-0.8c2.2-0.1,3.7,0.4,4.4,1.4c0.6,0.9,0.4,1.8,0.2,2.3c0,0.1-0.1,0.2-0.2,0.3l-3.4,3
		c0,0-0.1,0.1-0.1,0.1C33.6,7.4,33.1,7.6,32.6,7.6z"/>
</g>
</svg>
