<?xml version="1.0" encoding="utf-8"?>
<!-- Generator: Adobe Illustrator 20.1.0, SVG Export Plug-In . SVG Version: 6.00 Build 0)  -->
<svg version="1.1" id="Isolation_Mode" xmlns="http://www.w3.org/2000/svg" xmlns:xlink="http://www.w3.org/1999/xlink" x="0px"
	 y="0px" viewBox="0 0 17.9 12.6" style="enable-background:new 0 0 17.9 12.6;" xml:space="preserve">
<style type="text/css">
	.st0{fill:#FFFFFF;}
</style>
<g>
	<path class="st0" d="M14.6,0H3.3C1.5,0,0,1.5,0,3.3v5.9c0,1.8,1.5,3.3,3.3,3.3h11.3c1.8,0,3.3-1.5,3.3-3.3V3.3
		C17.9,1.5,16.5,0,14.6,0z M11.5,6.7L9.6,7.8L7.7,8.9C7.3,9.1,7,8.8,7,8.5V6.3V4.1c0-0.4,0.4-0.6,0.7-0.4l1.9,1.1l1.9,1.1
		C11.8,6.1,11.8,6.5,11.5,6.7z"/>
</g>
</svg>
