<svg width="206" height="41" fill="none" xmlns="http://www.w3.org/2000/svg"><path d="M41 20.5c-11.319.008-20.492 9.181-20.5 20.5-.008-11.319-9.181-20.492-20.5-20.5 11.319-.008 20.492-9.181 20.5-20.5.008 11.319 9.181 20.492 20.5 20.5z" fill="#C74141"/><path d="M47 7.398h2.08v3.152l-.096.32v1.824l.096.56v5.84H47V7.398zm1.28 4.528c.203-.96.539-1.792 1.008-2.496.47-.715 1.045-1.27 1.728-1.664a4.575 4.575 0 012.304-.592c.885 0 1.67.203 2.352.608a4.15 4.15 0 011.6 1.664c.384.704.576 1.53.576 2.48 0 .939-.192 1.765-.576 2.48a4.257 4.257 0 01-1.6 1.68c-.683.395-1.467.592-2.352.592-.843 0-1.605-.197-2.288-.592-.683-.395-1.264-.95-1.744-1.664-.47-.715-.805-1.547-1.008-2.496zm7.456 0c0-.608-.128-1.141-.384-1.6a2.655 2.655 0 00-1.024-1.088c-.437-.267-.939-.4-1.504-.4-.565 0-1.099.133-1.6.4-.49.256-.923.619-1.296 1.088a5.849 5.849 0 00-.912 1.6c.235.608.539 1.147.912 1.616.373.459.805.821 1.296 1.088a3.47 3.47 0 001.6.384c.565 0 1.067-.128 1.504-.384a2.8 2.8 0 001.024-1.088c.256-.47.384-1.008.384-1.616zm7.634 4.752c-.832 0-1.541-.17-2.128-.512a3.366 3.366 0 01-1.328-1.472c-.31-.64-.464-1.403-.464-2.288V7.398h2.08v4.688c0 .939.213 1.653.64 2.144.438.48 1.061.72 1.872.72.587 0 1.088-.128 1.504-.384.427-.256.757-.619.992-1.088.235-.48.352-1.035.352-1.664l.72.4c-.085.928-.32 1.728-.704 2.4-.384.661-.88 1.173-1.488 1.536-.608.352-1.29.528-2.048.528zm4.048-.224l-.528-3.264V7.398h2.08v6.112l.528 2.944h-2.08zm3.447-9.056h2.08l.544 3.296v5.76h-2.08v-6.16l-.544-2.896zm7.216-.064v1.824a5.18 5.18 0 00-.768-.144 6.858 6.858 0 00-.784-.048c-.587 0-1.11.128-1.568.384-.459.256-.822.64-1.088 1.152-.256.501-.384 1.12-.384 1.856l-.48-.592c.043-.64.15-1.237.32-1.792a5.006 5.006 0 01.736-1.472c.32-.416.71-.741 1.168-.976.459-.235.992-.352 1.6-.352.213 0 .432.016.656.048.224.021.421.059.592.112zm5.959 9.344c-1.1 0-2.065-.197-2.897-.592-.821-.405-1.466-.965-1.936-1.68-.458-.715-.688-1.541-.688-2.48 0-.95.23-1.776.688-2.48.47-.715 1.115-1.27 1.936-1.664.832-.405 1.798-.608 2.896-.608 1.099 0 2.059.203 2.88.608.832.395 1.478.95 1.936 1.664.47.704.704 1.53.704 2.48 0 .939-.234 1.765-.704 2.48-.458.715-1.104 1.275-1.936 1.68-.821.395-1.781.592-2.88.592zm0-1.632c.703 0 1.306-.128 1.807-.384a2.82 2.82 0 001.184-1.072c.278-.47.416-1.024.416-1.664 0-.64-.138-1.19-.416-1.648a2.787 2.787 0 00-1.184-1.088c-.501-.256-1.104-.384-1.808-.384-.693 0-1.296.128-1.808.384a2.788 2.788 0 00-1.184 1.088c-.277.459-.416 1.008-.416 1.648 0 .64.139 1.195.416 1.664.278.459.672.816 1.184 1.072.512.256 1.115.384 1.808.384zm7.21-10.912h2.08v12.32h-2.08V4.134zm9.289 12.544c-1.098 0-2.064-.197-2.896-.592-.821-.405-1.466-.965-1.936-1.68-.458-.715-.688-1.541-.688-2.48 0-.95.23-1.776.688-2.48.47-.715 1.115-1.27 1.936-1.664.832-.405 1.798-.608 2.896-.608 1.099 0 2.059.203 2.88.608.832.395 1.478.95 1.936 1.664.47.704.704 1.53.704 2.48 0 .939-.234 1.765-.704 2.48-.458.715-1.104 1.275-1.936 1.68-.821.395-1.781.592-2.88.592zm0-1.632c.704 0 1.307-.128 1.808-.384a2.819 2.819 0 001.184-1.072c.278-.47.416-1.024.416-1.664 0-.64-.138-1.19-.416-1.648a2.785 2.785 0 00-1.184-1.088c-.501-.256-1.104-.384-1.808-.384-.693 0-1.296.128-1.808.384a2.788 2.788 0 00-1.184 1.088c-.277.459-.416 1.008-.416 1.648 0 .64.139 1.195.416 1.664.278.459.672.816 1.184 1.072.512.256 1.115.384 1.808.384zm15.435-.816v-1.6l.08-.288v-1.744l-.08-.32v-2.88h2.08v6.64c0 1.163-.245 2.133-.736 2.912a4.595 4.595 0 01-2.016 1.776c-.853.395-1.835.592-2.944.592a7.48 7.48 0 01-2.24-.32 7.45 7.45 0 01-1.984-.976v-1.728c.651.512 1.323.87 2.016 1.072a7.05 7.05 0 002.08.32c1.216 0 2.144-.299 2.784-.896.64-.597.96-1.45.96-2.56zm-4.352 1.52c-.832 0-1.579-.176-2.24-.528a4.089 4.089 0 01-1.568-1.504c-.384-.64-.576-1.392-.576-2.256 0-.864.192-1.616.576-2.256a3.973 3.973 0 011.568-1.488c.661-.363 1.408-.544 2.24-.544a4.93 4.93 0 011.712.288 5.217 5.217 0 011.424.768c.427.31.784.656 1.072 1.04.299.373.528.757.688 1.152.16.384.24.736.24 1.056 0 .416-.123.875-.368 1.376-.245.49-.597.955-1.056 1.392-.448.437-.987.8-1.616 1.088-.629.277-1.328.416-2.096.416zm.64-1.536c.757 0 1.451-.219 2.08-.656.64-.437 1.211-1.136 1.712-2.096-.501-.981-1.072-1.685-1.712-2.112a3.566 3.566 0 00-2.08-.656c-.619 0-1.147.117-1.584.352-.437.235-.773.56-1.008.976-.224.416-.336.896-.336 1.44 0 .533.112 1.008.336 1.424.235.416.571.741 1.008.976.437.235.965.352 1.584.352zm7.957-6.88l1.04.192 1.04-.192v9.12h-2.08v-9.12zm1.04-1.136c-.395 0-.72-.107-.976-.32a1.096 1.096 0 01-.384-.864c0-.352.128-.635.384-.848.256-.224.581-.336.976-.336.405 0 .73.112.976.336.256.213.384.496.384.848s-.128.64-.384.864c-.246.213-.571.32-.976.32zm13.241 6.688a3.905 3.905 0 01-.88 1.984c-.48.565-1.093 1.008-1.84 1.328-.747.32-1.579.48-2.496.48-1.045 0-1.968-.197-2.768-.592a4.646 4.646 0 01-1.856-1.68c-.448-.715-.672-1.541-.672-2.48 0-.939.224-1.765.672-2.48a4.532 4.532 0 011.856-1.664c.8-.405 1.723-.608 2.768-.608.917 0 1.749.16 2.496.48.747.32 1.36.768 1.84 1.344.48.565.773 1.227.88 1.984h-2.096a2.511 2.511 0 00-1.072-1.6c-.565-.384-1.248-.576-2.048-.576-.64 0-1.2.128-1.68.384a2.65 2.65 0 00-1.12 1.072c-.256.459-.384 1.013-.384 1.664 0 .64.128 1.195.384 1.664.267.47.64.832 1.12 1.088.48.245 1.04.368 1.68.368.811 0 1.499-.197 2.064-.592.565-.395.917-.917 1.056-1.568h2.096zm6.586 3.792c-1.099 0-2.064-.197-2.896-.592-.821-.405-1.467-.965-1.936-1.68-.459-.715-.688-1.541-.688-2.48 0-.95.229-1.776.688-2.48.469-.715 1.115-1.27 1.936-1.664.832-.405 1.797-.608 2.896-.608s2.059.203 2.88.608c.832.395 1.477.95 1.936 1.664.469.704.704 1.53.704 2.48 0 .939-.235 1.765-.704 2.48-.459.715-1.104 1.275-1.936 1.68-.821.395-1.781.592-2.88.592zm0-1.632c.704 0 1.307-.128 1.808-.384a2.819 2.819 0 001.184-1.072c.277-.47.416-1.024.416-1.664 0-.64-.139-1.19-.416-1.648a2.785 2.785 0 00-1.184-1.088c-.501-.256-1.104-.384-1.808-.384-.693 0-1.296.128-1.808.384a2.785 2.785 0 00-1.184 1.088c-.277.459-.416 1.008-.416 1.648 0 .64.139 1.195.416 1.664.277.459.672.816 1.184 1.072.512.256 1.115.384 1.808.384z" fill="#363636"/><path d="M52.7 34.454l-2.716-3.276h-1.68v3.276h-.994V27.09h.994v3.234h1.694l2.59-3.234h1.078l-2.898 3.57 3.108 3.794H52.7zm6.539-7.42c2.1 0 3.668 1.512 3.668 3.738 0 2.24-1.568 3.752-3.668 3.752-1.176 0-2.184-.504-2.8-1.456v4.102h-.994V27.09h.952v1.456c.602-.98 1.624-1.512 2.842-1.512zm-.07 6.608c1.554 0 2.744-1.148 2.744-2.87 0-1.708-1.19-2.87-2.744-2.87-1.568 0-2.744 1.162-2.744 2.87 0 1.722 1.176 2.87 2.744 2.87zm12.327-2.87c0 .084-.014.196-.014.308h-6.16c.112 1.54 1.288 2.562 2.898 2.562.896 0 1.694-.322 2.254-.966l.56.644c-.658.784-1.68 1.204-2.842 1.204-2.296 0-3.864-1.568-3.864-3.752 0-2.184 1.526-3.738 3.598-3.738s3.57 1.526 3.57 3.738zm-3.57-2.884c-1.428 0-2.478 1.008-2.604 2.45h5.222c-.126-1.442-1.176-2.45-2.618-2.45zm8.1-.854c1.904 0 2.982.952 2.982 2.856v4.564h-.952v-1.148c-.448.756-1.316 1.218-2.534 1.218-1.666 0-2.688-.868-2.688-2.142 0-1.134.728-2.086 2.842-2.086h2.338v-.448c0-1.26-.714-1.946-2.086-1.946-.952 0-1.848.336-2.45.868l-.448-.742c.742-.63 1.834-.994 2.996-.994zm-.35 6.706c1.12 0 1.946-.532 2.338-1.498v-1.204h-2.31c-1.428 0-1.89.56-1.89 1.316 0 .854.686 1.386 1.862 1.386zm11.158-6.65v.882h-2.786v6.482h-.994v-6.482h-2.786v-.882h6.566zm1.436 7.364V27.09h.995v5.852l4.914-5.852h.882v7.364h-.994v-5.852l-4.9 5.852h-.896zm14.33-3.808c1.022.238 1.498.84 1.498 1.806 0 1.274-.924 2.002-2.842 2.002H97.91V27.09h3.248c1.666 0 2.688.672 2.688 1.89 0 .826-.476 1.386-1.246 1.666zm-3.724-2.772v2.492h2.212c1.134 0 1.764-.434 1.764-1.26 0-.826-.63-1.232-1.764-1.232h-2.212zm2.338 5.796c1.246 0 1.904-.392 1.904-1.274s-.56-1.288-1.806-1.288h-2.436v2.562h2.338zm5.213.784V27.09h.994v3.262h4.634V27.09h.994v7.364h-.994v-3.248h-4.634v3.248h-.994zm12.485.07c-2.156 0-3.752-1.568-3.752-3.752 0-2.184 1.596-3.738 3.752-3.738 2.156 0 3.738 1.554 3.738 3.738s-1.582 3.752-3.738 3.752zm0-.882c1.568 0 2.73-1.148 2.73-2.87 0-1.722-1.162-2.87-2.73-2.87s-2.744 1.148-2.744 2.87c0 1.722 1.176 2.87 2.744 2.87zm12.317-2.87c0 .084-.014.196-.014.308h-6.16c.112 1.54 1.288 2.562 2.898 2.562.896 0 1.694-.322 2.254-.966l.56.644c-.658.784-1.68 1.204-2.842 1.204-2.296 0-3.864-1.568-3.864-3.752 0-2.184 1.526-3.738 3.598-3.738s3.57 1.526 3.57 3.738zm-3.57-2.884c-1.428 0-2.478 1.008-2.604 2.45h5.222c-.126-1.442-1.176-2.45-2.618-2.45zm11.968-.854c1.904 0 2.982.952 2.982 2.856v4.564h-.952v-1.148c-.448.756-1.316 1.218-2.534 1.218-1.666 0-2.688-.868-2.688-2.142 0-1.134.728-2.086 2.842-2.086h2.338v-.448c0-1.26-.714-1.946-2.086-1.946-.952 0-1.848.336-2.45.868l-.448-.742c.742-.63 1.834-.994 2.996-.994zm-.35 6.706c1.12 0 1.946-.532 2.338-1.498v-1.204h-2.31c-1.428 0-1.89.56-1.89 1.316 0 .854.686 1.386 1.862 1.386zm11.186-6.65v.882h-4.214v6.482h-.994V27.09h5.208zm7.549 3.682c0 .084-.014.196-.014.308h-6.16c.112 1.54 1.288 2.562 2.898 2.562.896 0 1.694-.322 2.254-.966l.56.644c-.658.784-1.68 1.204-2.842 1.204-2.296 0-3.864-1.568-3.864-3.752 0-2.184 1.526-3.738 3.598-3.738s3.57 1.526 3.57 3.738zm-3.57-2.884c-1.428 0-2.478 1.008-2.604 2.45h5.222c-.126-1.442-1.176-2.45-2.618-2.45zm5.77 6.566V27.09h.994v3.262h4.634V27.09h.994v7.364h-.994v-3.248h-4.634v3.248h-.994zm14.628-7.364v.882h-2.786v6.482h-.994v-6.482h-2.786v-.882h6.566zm4.175 7.434c-2.198 0-3.794-1.554-3.794-3.752 0-2.198 1.596-3.738 3.794-3.738 1.246 0 2.296.49 2.884 1.456l-.742.504c-.504-.742-1.288-1.092-2.142-1.092-1.61 0-2.786 1.148-2.786 2.87 0 1.736 1.176 2.87 2.786 2.87.854 0 1.638-.336 2.142-1.078l.742.504c-.588.952-1.638 1.456-2.884 1.456zm9.852-7.434v.882h-2.786v6.482h-.994v-6.482h-2.786v-.882h6.566zm6.127 3.556c1.022.238 1.498.84 1.498 1.806 0 1.274-.924 2.002-2.842 2.002h-3.346V27.09h3.248c1.666 0 2.688.672 2.688 1.89 0 .826-.476 1.386-1.246 1.666zm-3.724-2.772v2.492h2.212c1.134 0 1.764-.434 1.764-1.26 0-.826-.63-1.232-1.764-1.232h-2.212zm2.338 5.796c1.246 0 1.904-.392 1.904-1.274s-.56-1.288-1.806-1.288h-2.436v2.562h2.338zm8.252.854c-2.156 0-3.752-1.568-3.752-3.752 0-2.184 1.596-3.738 3.752-3.738 2.156 0 3.738 1.554 3.738 3.738s-1.582 3.752-3.738 3.752zm0-.882c1.568 0 2.73-1.148 2.73-2.87 0-1.722-1.162-2.87-2.73-2.87s-2.744 1.148-2.744 2.87c0 1.722 1.176 2.87 2.744 2.87z" fill="#363636" fill-opacity=".7"/></svg>